<?xml version="1.0" encoding="utf-8"?>
<!-- Uploaded to: SVG Repo, www.svgrepo.com, Generator: SVG Repo Mixer Tools -->
<svg width="800px" height="800px" viewBox="0 0 1024 1024" class="icon"  version="1.1" xmlns="http://www.w3.org/2000/svg"><path d="M294.328 893.721c132.701 52.379 267.202-25.881 317.091-54.836 129.817-75.351 187.286-189.111 207.42-236.031 20.67-48.172 45.811-127.992 38.146-224.109-4.065-51.068-8.917-102.817-47.682-150.201-2.228-2.73-4.077-4.887-4.41-5.269-25.39-28.932-72.108-60.879-118.014-55.526-44.178 5.185-71.93 43.105-82.252 57.219-44.429 60.712-16.688 107.716-53.643 175.235-22.458 41.043-53.739 62.167-91.682 87.772-100.598 67.9-152.18 35.631-222.19 93.423-6.234 5.138-94.865 80.452-79.57 172.957 15.092 91.325 120.543 132.952 136.79 139.365z" fill="#884CF6" /><path d="M244.261 862.727c-1.824 16.223 63.037 42.473 126.359 47.682 31.649 2.599 85.627 1.812 162.122-30.994 36.681-15.723 209.805-89.978 286.097-276.561 60.188-147.197 29.862-290.305 21.457-290.865-7.628-0.501 5.185 116.68-63.991 242.074-53.44 96.88-131.175 153.968-167.271 179.919-79.201 56.946-152.847 81.526-174.043 88.213-111.232 35.107-188.765 23.031-190.732 40.531z" fill="#713FCC" /><path d="M856.985 378.748c-4.065-51.068-8.917-102.817-47.682-150.201-2.228-2.73-4.077-4.887-4.41-5.269-25.39-28.932-72.108-60.879-118.014-55.526-44.178 5.185-71.93 43.105-82.253 57.219-35.487 48.494-24.951 88.213-38.087 136.682 1.601-0.102 3.472-0.16 5.357-0.16 8.118 0 15.984 1.075 23.464 3.094 47.281 12.17 48.079 47.681 89.968 54.691 49.758 8.345 68.043-40.4 123.975-35.762 21.195 1.764 36.739 10.216 48.875 19.002-0.155-7.808-0.547-15.723-1.192-23.77z" fill="#713FCC" /><path d="M389.336 935.206c-0.366 0.002-0.799 0.003-1.233 0.003-36.876 0-72.097-7.082-104.379-19.96-63.996-25.175-113.729-68.757-141.862-125.345-5.483-11.027-52.368-110.445-9.907-204.047 29.886-65.886 89.405-95.591 137.851-114.128 2.438-0.922 5.257-1.455 8.2-1.455 13.167 0 23.843 10.673 23.843 23.843 0 9.99-6.144 18.544-14.859 22.091-60.323 23.041-93.653 49.743-111.619 89.344-33.926 74.791 7.403 159.547 9.179 163.111 22.804 45.835 63.775 81.406 118.492 102.863 51.831 20.325 110.314 21.171 173.84 2.527 53.476-15.712 98.441-41.782 122.617-55.789 117.037-67.948 173.96-170.013 197.479-224.813 20.492-47.743 43.416-123.428 36.288-212.809-3.696-46.419-7.522-94.412-42.366-136.992-16.881-20.623-62.918-68.043-125.954-63.061-13.661 1.086-48.314 6.437-74.849 32.71-23.508 23.269-25.629 48.314-28.336 80.023-1.729 20.265-3.696 43.356-12.195 66.982-10.551 29.288-28.491 53.227-54.836 73.169-20.325 15.366-45.621 28.299-79.595 40.697-2.43 0.915-5.239 1.444-8.171 1.444-13.168 0-23.843-10.674-23.843-23.843 0-10.236 6.45-18.965 15.506-22.345 61.712-22.512 92.407-47.213 106.128-85.287 6.389-17.738 7.915-35.762 9.537-54.836 2.957-34.797 6.319-74.229 42.294-109.862 37.729-37.359 85.746-44.87 104.64-46.372 85.472-6.771 144.991 53.965 166.616 80.393 44.286 54.12 49.113 114.713 53 163.409 7.904 99.108-17.392 182.721-40.006 235.411-25.927 60.188-88.522 172.397-217.493 247.224-40.066 23.281-130.366 75.684-234.003 75.696z" fill="#000000" /><path d="M341.629 496.762c-0.001 0-0.003 0-0.004 0-13.167 0-23.843-10.673-23.843-23.843 0-10.672 7.011-19.705 16.678-22.747l3.113-0.952c1.862-0.521 3.998-0.822 6.205-0.822 13.167 0 23.843 10.673 23.843 23.843 0 10.386-6.641 19.221-15.909 22.491l-3.1 0.957c-2.109 0.68-4.536 1.072-7.055 1.073z" fill="#000000" /><path d="M489.827 352.522c-29.050-24.675 19.514-148.425 81.061-187.155 40.531-25.487 64.467-32.186 64.467-32.186 16.939-4.768 26.964-4.768 40.697-14.305 18.894-13.113 20.98-27.417 31.924-27.417s13.601 14.698 33.377 30.397c12.79 10.157 22.53 12.611 34.57 17.881 0 0 27.835 12.195 66.756 50.067 57.887 56.338 84.553 194.248 54.573 209.805-17.881 9.262-35.762-35.571-87.952-39.899-55.932-4.637-74.218 44.107-123.975 35.762-41.889-7.010-42.687-42.521-90.598-54.836-54.383-14.019-86.318 27.668-104.902 11.886z" fill="#6BE166" /><path d="M902.558 394.793c20.933-29.027-5.9-152.454-59.866-205.037-38.921-37.872-66.756-50.067-66.756-50.067-9.024-3.958-16.761-6.319-25.462-11.539-1.502 1.979 6.712 10.335 25.45 31.255 0 0 15.426 17.213 26.226 29.801 29.075 33.867 34.892 80.858 36.049 92.981 4.41 46.097-13.411 60.532-2.873 83.623 32.854 13.113 47.385 41.305 61.928 33.784 3.266-2.003 5.826-4.88 7.388-8.305z" fill="#60C95B" /></svg>