<svg height="512" viewBox="0 0 60 60" width="512" xmlns="http://www.w3.org/2000/svg"><g id="Page-1" fill="none" fill-rule="evenodd"><g id="002---Spicy-Sausage" transform="translate(-1)"><path id="Path" d="m24.21 55.96-.22.21c-1.179549 1.1028692-2.6007511 1.9144955-4.15 2.37-6.79 2-14.39-3.29-16.97-11.82-2.03-6.68-.37-13.37 3.72-16.9 1.12568058-.9876367 2.45318303-1.7179337 3.89-2.14 6.79-2 14.39 3.29 16.98 11.81 1.94 6.42.49 12.84-3.25 16.47z" fill="#ef314c"/><path id="Path" d="m27.46 39.49c-2.411-7.933-9.166-13.058-15.566-12.114 5.4.736 10.531 5.418 12.566 12.114 1.94 6.42.49 12.84-3.25 16.47l-.22.21c-1.5343212 1.4440992-3.4778481 2.3781378-5.564 2.674 1.4759566.2142272 2.9806028.1119631 4.414-.3 1.5492489-.4555045 2.970451-1.2671308 4.15-2.37l.22-.21c3.74-3.634 5.19-10.054 3.25-16.474z" fill="#bb193b"/><path id="Path" d="m11.814 37.865c.5 1.658-.16 3.318-1.483 3.706s-2.8-.64-3.3-2.3.16-3.317 1.481-3.7 2.799.636 3.302 2.294z" fill="#f5f5f5"/><path id="Path" d="m20.147 37.058c.4945902 1.178408-.0482113 2.5356343-1.219 3.048-1.2665275.2025228-2.4664241-.6328985-2.716-1.891-.4951434-1.177573.0474444-2.5344879 1.218-3.046 1.2663643-.2037687 2.4669665.6309525 2.717 1.889z" fill="#f5f5f5"/><path id="Path" d="m22.417 49.071c.4944668 1.1786799-.0488233 2.5360146-1.22 3.048-1.2661747.201932-2.4654268-.6333482-2.715-1.891-.4958024-1.1778468.046894-2.5354789 1.218-3.047 1.2664358-.2026244 2.466493.6321596 2.717 1.89z" fill="#f5f5f5"/><path id="Path" d="m13.552 48.983c.4944668 1.1786799-.0488233 2.5360146-1.22 3.048-1.2662993.2024765-2.4658943-.6330425-2.715-1.891-.49580239-1.1778468.04689402-2.5354789 1.218-3.047 1.2664358-.2026244 2.466493.6321596 2.717 1.89z" fill="#f5f5f5"/><path id="Path" d="m55.32 21.12c-.1605539 4.141136-1.967615 8.0468356-5.02 10.85l-26.09 23.99c3.74-3.63 5.19-10.05 3.25-16.47-2.59-8.52-10.19-13.81-16.98-11.81-1.43681697.4220663-2.76431942 1.1523633-3.89 2.14l-.04-.05 22.59-20.79c4.6425244-4.29600292 11.4196309-5.36346039 17.1579364-2.70253494 5.7383054 2.66092544 9.3018742 8.52348604 9.0220636 14.84253494z" fill="#e91e63"/><path id="Path" d="m9.181 27.349-2.631 2.421.04.05c1.49000682-1.3148858 3.33252889-2.1645318 5.3-2.444-.8982176-.123622-1.8084969-.1326945-2.709-.027z" fill="#ad1457"/><path id="Path" d="m54.58 15.64c-.7008538-2.1318955-1.8499287-4.0890736-3.37-5.74-1.5141461-1.65604395-3.3703883-2.96292035-5.44-3.83-2.3963002-1.00230633-5.0040425-1.39369102-7.589-1.139 1.578575.14476116 3.1259427.52882127 4.589 1.139 2.0696117.86707965 3.9258539 2.17395605 5.44 3.83 1.5200713 1.6509264 2.6691462 3.6081045 3.37 5.74 1.8701994 5.8124881.2007697 12.1820647-4.28 16.33l-19.656 18.074c-.6135816 2.235876-1.7968006 4.2742929-3.434 5.916l26.09-23.99c4.4807697-4.1479353 6.1501994-10.5175119 4.28-16.33z" fill="#ad1457"/><path id="Path" d="m58.57 14.11c-1.1547942.8838017-2.5403603 1.415109-3.99 1.53-.7008538-2.1318955-1.8499287-4.0890736-3.37-5.74-1.5141461-1.65604395-3.3703883-2.96292035-5.44-3.83.2362823-1.43568175.8821593-2.77257763 1.86-3.85.7882432-.77195701 1.8513174-1.19844691 2.9545275-1.18531345 1.1032102.01313345 2.15583.46481018 2.9254725 1.25531345.1547966.16909408.2921573.3533585.41.55 1.5912498-.79137919 3.5123333-.45498692 4.74.83 1.155943 1.31395046 1.3374364 3.22164771.45 4.73 1.3601358 1.7461194 1.123359 4.2498153-.54 5.71z" fill="#ad1457"/><g fill="#000"><path id="Shape" d="m20.12 59.5c1.657907-.4975701 3.1818875-1.3634836 4.458-2.533.231-.17 26.5-24.356 26.4-24.261 4.4734247-4.1320685 6.3394205-10.3736481 4.868-16.283 1.2452291-.2489343 2.4133818-.7905075 3.408-1.58 1.8516054-1.66192 2.2760806-4.3982165 1.015-6.543.7829972-1.77030288.4530314-3.8354116-.8426205-5.27358516-1.2956518-1.43817356-3.315255-1.98108645-5.1573795-1.38641484-.9233183-1.01348315-2.2290054-1.59378853-3.6-1.6-1.3785636-.01054393-2.7091491.50559448-3.72 1.443-.8702553.92712534-1.507464 2.04798196-1.859 3.27-5.7629104-1.96710009-12.1400772-.62799097-16.625 3.491-15.992 14.743-20.672 19-22.13 20.361-1.33935774 1.2052721-2.47501392 2.619186-3.363 4.187-2.21920755 4.4136926-2.60172122 9.526218-1.064 14.221 2.592 8.543 10.573 14.741 18.212 12.487zm30.526-57.463c.9640095-.00428287 1.8647973.47922271 2.394 1.285.2538321.4654819.8268361.65194953 1.306.425 1.193417-.60923081 2.6449554-.36554781 3.574.6.8650615.99573986.9944427 2.4338465.321 3.568-.1982279.35774879-.1586217.80015091.1 1.117 1.0192821 1.3351423.8281491 3.232039-.437 4.337-.78868.5843317-1.70239.97734-2.669 1.148-1.5091716-3.9478811-4.4757661-7.16610633-8.288-8.991.582-1.933 1.677-3.545 3.699-3.489zm-20.827 7.679c5.9452926-5.45974089 15.1884534-5.07542941 20.66.859 5.4607481 5.944547 5.0763932 15.1883039-.859 20.659l-21.131 19.444c1.1273015-3.7466359 1.1025649-7.7455967-.071-11.478-2.556-8.423-9.834-13.854-16.726-12.8zm-19.056 18.925c6.637-1.956 13.471 3.659 15.737 11.141 2.194 7.246-.171 15.809-6.948 17.8-6.252 1.841-13.305-3.159-15.73-11.15-2.222-7.323.255-15.832 6.941-17.791z" fill-rule="nonzero"/><path id="Path" d="m48.056 29.535c5.0003433-4.6071664 5.3238949-12.3938856.723-17.4-.2414549-.2651894-.606434-.3807686-.9565244-.3029058-.3500903.0778628-.6316756.3372429-.7379688.6797741-.1062931.3425313-.0210152.715755.2234932.9781317 3.8507019 4.1926951 3.5795676 10.7115519-.606 14.57-.4064816.3738968-.4328968 1.0065184-.059 1.413s1.0065184.4328968 1.413.059z"/><path id="Shape" d="m10.613 42.531c1.94-.57 2.8-2.853 2.158-4.955-.662-2.179-2.7-3.511-4.542-2.967-1.946.57-2.792 2.863-2.157 4.954.628 2.067 2.605 3.537 4.541 2.968zm-1.82-6c.882-.255 1.772.666 2.064 1.629s.053 2.2-.809 2.456c-.783.226-1.724-.517-2.062-1.631-.294-.971-.052-2.207.807-2.458z" fill-rule="nonzero"/><path id="Shape" d="m19.209 41.065c.8223215-.3178904 1.4843182-.9499819 1.8398551-1.7567412s.3753786-1.721847.0551449-2.5432588c-.407084-1.7837946-2.1610412-2.9186559-3.955-2.559-.8223125.3178666-1.4842548.9500158-1.8396277 1.7568286-.3553729.8068129-.3749374 1.7219071-.0543723 2.5431714.4094125 1.7816988 2.1609165 2.9152594 3.954 2.559zm-1.5-4.938c.618-.181 1.269.537 1.477 1.221s.066 1.619-.545 1.8c-.542.157-1.231-.413-1.477-1.223-.207-.699-.051-1.625.549-1.798z" fill-rule="nonzero"/><path id="Shape" d="m19.418 46.222c-.8219676.3183044-1.4835591.950501-1.8388661 1.7571641-.3553069.8066631-.3751432 1.7215305-.0551339 2.5428359.4098753 1.7818401 2.1616802 2.9153088 3.955 2.559.8221492-.3181093 1.4839705-.9502245 1.8394744-1.7569089.355504-.8066845.3754814-1.7216588.0555256-2.5430911-.4066139-1.7845891-2.1615923-2.9198241-3.956-2.559zm2.042 3.138c.213.7.053 1.623-.545 1.8-.542.157-1.23-.412-1.477-1.223-.211-.7-.056-1.621.544-1.8.618-.178 1.269.537 1.478 1.223z" fill-rule="nonzero"/><path id="Shape" d="m10.554 46.133c-.82213997.3180856-1.48390676.9502585-1.83924668 1.7569965-.35533993.8067379-.37504035 1.7217186-.05475332 2.5430035.40896116 1.7821041 2.1606045 2.916198 3.954 2.56.821977-.318328 1.4836231-.9504669 1.8390941-1.7570765.355471-.8066097.3755841-1.7214707.0559059-2.5429235-.4061638-1.7845267-2.160622-2.9201558-3.955-2.56zm2.041 3.14c.212.7.054 1.622-.546 1.8-.54.161-1.229-.411-1.476-1.223-.211-.7-.057-1.62.545-1.8.618-.179 1.269.539 1.482 1.223z" fill-rule="nonzero"/></g></g></g></svg>