<?xml version="1.0" encoding="iso-8859-1"?>
<!-- Generator: Adobe Illustrator 19.0.0, SVG Export Plug-In . SVG Version: 6.00 Build 0)  -->
<svg version="1.1" id="Capa_1" xmlns="http://www.w3.org/2000/svg" xmlns:xlink="http://www.w3.org/1999/xlink" x="0px" y="0px"
	 viewBox="0 0 512 512" style="enable-background:new 0 0 512 512;" xml:space="preserve">
<path style="fill:#FF7671;" d="M295.274,235.016H130.091c-37.082,0-67.148-30.065-67.148-67.148v-41.967
	c0-66.812,55.649-117.34,123.216-117.34c29.545,0,65.553,0,95.014-0.084h0.923c1.847,0.084,4.281,0.168,7.051,0.252
	c14.101,0.504,37.267,1.259,37.267,1.091v0.168c-56.714,9.375-98.304,58.427-98.287,115.913v41.967
	c-0.034,8.973,1.771,17.853,5.288,26.104C243.872,218.876,268.264,235.058,295.274,235.016z"/>
<rect x="172.058" y="125.902" style="fill:#A61A36;" width="16.787" height="41.967"/>
<g>
	<path style="fill:#D32144;" d="M247.599,226.623c-17.836,0.059-34.724-8.058-45.82-22.024l-13.111,10.475
		c3.399,4.255,7.244,8.125,11.482,11.549h-11.306c-32.432-0.042-58.712-26.322-58.754-58.754h-16.787
		c0.008,22.839,10.358,44.443,28.16,58.754h-11.373c-32.432-0.042-58.712-26.322-58.754-58.754v-41.967
		c0-58.225,45.845-104.33,105.883-108.536c-19.54,10.643-35.815,26.397-47.087,45.576l14.521,8.393
		c19.288-31.467,52.686-51.569,89.516-53.878c-8.805,5.162-16.955,11.356-24.282,18.466l11.751,12.036
		c18.289-17.861,42.253-28.773,67.735-30.854c20.002,0.705,30.057,1.066,35.412,0.906h0.327l0,0
		c5.128-0.176,5.825-0.839,7.193-2.166c1.645-1.578,2.568-3.76,2.568-6.043c0-8.066-7.554-8.486-13.069-8.788
		c-3.634-0.201-9.342-0.478-18.071-0.839l-2.417-0.076c-0.403-0.034-0.814-0.034-1.217,0c-1.494-0.076-2.904-0.084-4.381,0
		c-0.487-0.034-0.982-0.034-1.469,0c-1.838,0-3.668,0.084-5.305,0.243c-2.518-0.084-4.734-0.159-6.782-0.243h-0.512
		C279.612,0,278.462,0,278.487,0v0.084c-28.949,0.076-63.656,0.084-92.328,0.084c-73.795,0-131.609,55.229-131.609,125.734v41.967
		c0.05,41.699,33.842,75.491,75.541,75.541h249.117v-16.787H247.599z"/>
	<path style="fill:#D32144;" d="M295.274,243.41c-41.724,0-75.541-33.817-75.541-75.541v-41.967
		C219.691,56.421,275.986,0.067,345.458,0.025c2.073,0,4.146,0.05,6.22,0.151c68.046,4.037,120.866,60.92,119.858,129.083v38.61
		c-0.05,41.699-33.842,75.491-75.541,75.541H295.274z"/>
</g>
<g>
	<circle style="fill:#A61A36;" cx="381.894" cy="386.098" r="16.787"/>
	<circle style="fill:#A61A36;" cx="345.643" cy="117.508" r="16.787"/>
	<path style="fill:#A61A36;" d="M465.829,397.849v38.61c0,18.541-15.033,33.574-33.574,33.574h-50.361v-16.787
		c0.067-9.241,7.546-16.72,16.787-16.787c18.541,0,33.574-15.033,33.574-33.574v-24.509l9.652-21.319
		c1.754-3.844,6.295-5.54,10.139-3.785c1.561,0.713,2.837,1.93,3.626,3.45C462.337,369.404,465.82,383.522,465.829,397.849z"/>
	<path style="fill:#A61A36;" d="M395.492,326.841l-16.703,7.47c-14.42,6.413-26.725,16.77-35.504,29.881
		c-12.12,18.155-11.44,41.984,1.679,59.426c2.199,2.896,3.374,6.438,3.357,10.072v19.557c-0.067,9.241-7.546,16.72-16.787,16.787
		c-18.541,0-33.574-15.033-33.574-33.574v-37.77c-0.21-40.154,26.683-75.39,65.469-85.781c7.369-1.888,14.982-2.652,22.578-2.266
		c2.518,0.168,5.036,0.336,7.554,0.755c4.423,0.747,7.403,4.935,6.656,9.367C399.764,323.45,397.993,325.741,395.492,326.841z"/>
	<path style="fill:#A61A36;" d="M327.085,44.317c7.395-1.889,15.041-2.652,22.662-2.266c10.206,0.487,20.211,2.963,29.461,7.302
		l-36.763,16.367c-14.395,6.413-26.674,16.77-35.42,29.881c-12.12,18.155-11.44,41.984,1.679,59.426
		c2.199,2.896,3.374,6.438,3.357,10.072v19.557c-0.067,9.241-7.546,16.72-16.787,16.787c-18.541,0-33.574-15.033-33.574-33.574
		v-37.77C261.457,89.961,288.324,54.717,327.085,44.317z"/>
	<path style="fill:#A61A36;" d="M429.569,129.259v38.61c0,18.541-15.033,33.574-33.574,33.574h-50.361
		c-0.025-18.516,14.974-33.549,33.49-33.574c0.025,0,0.059,0,0.084,0c9.258-0.025,16.762-7.529,16.787-16.787v-35.924
		c-0.025-14.68,5.489-28.823,15.444-39.617C423.181,90.985,429.552,109.853,429.569,129.259z"/>
</g>
<path style="fill:#FF7671;" d="M255.993,276.984h0.588l0.084,0.504c-59.627,6.673-104.759,57.008-104.918,117.005v41.967
	c0,37.082,30.065,67.148,67.148,67.148H79.73c-37.082,0-67.148-30.065-67.148-67.148v-41.967
	c0-66.812,52.459-117.508,123.216-117.508H255.993z"/>
<path style="fill:#D32144;" d="M463.143,129.259v38.61c0,37.082-30.065,67.148-67.148,67.148H295.274
	c-27.01,0.042-51.401-16.141-61.86-41.044c-3.517-8.251-5.321-17.131-5.288-26.104v-41.967
	c-0.025-57.487,41.573-106.538,98.287-115.913c8.209-1.368,16.535-1.847,24.845-1.427
	C414.679,12.708,463.806,65.704,463.143,129.259z M429.569,167.869v-38.61c-0.017-19.406-6.387-38.274-18.13-53.718
	c-9.955,10.794-15.469,24.937-15.444,39.617v35.924c-0.025,9.258-7.529,16.762-16.787,16.787
	c-18.516-0.025-33.549,14.974-33.574,33.49c0,0.025,0,0.059,0,0.084h50.361C414.536,201.443,429.569,186.41,429.569,167.869z
	 M342.445,65.721l36.763-16.367c-9.25-4.339-19.255-6.815-29.461-7.302c-7.621-0.386-15.268,0.378-22.662,2.266
	c-38.769,10.399-65.637,45.644-65.385,85.781v37.77c0,18.541,15.033,33.574,33.574,33.574c9.241-0.067,16.72-7.546,16.787-16.787
	v-19.557c0.017-3.634-1.158-7.176-3.357-10.072c-13.119-17.442-13.799-41.271-1.679-59.426
	C315.771,82.491,328.05,72.133,342.445,65.721z M362.421,117.508c0-9.275-7.512-16.787-16.787-16.787s-16.787,7.512-16.787,16.787
	s7.512,16.787,16.787,16.787C354.892,134.27,362.396,126.766,362.421,117.508z"/>
<path style="fill:#8C112A;" d="M282.852,326.841l-16.703,7.47c-14.395,6.413-26.674,16.77-35.42,29.881
	c-12.087,18.155-11.449,41.95,1.595,59.426c2.199,2.896,3.374,6.438,3.357,10.072v19.557c0.017,4.432-1.737,8.696-4.868,11.835
	c-3.131,3.206-7.437,4.994-11.919,4.952c-18.533-0.025-33.549-15.041-33.574-33.574v-37.77c-0.21-40.154,26.683-75.39,65.469-85.781
	c7.369-1.888,14.982-2.652,22.578-2.266c2.526,0.118,5.053,0.369,7.554,0.755c4.423,0.73,7.42,4.91,6.681,9.333
	C287.157,323.441,285.37,325.741,282.852,326.841z"/>
<path style="fill:#D32144;" d="M499.402,397.849v38.61c0,37.082-30.065,67.148-67.148,67.148H331.534
	c-27.019,0.076-51.427-16.115-61.86-41.044c-3.517-8.251-5.321-17.131-5.288-26.104v-41.967
	c-0.025-35.504,16.023-69.103,43.646-91.405c5.389-4.356,11.146-8.234,17.207-11.583c19.053-10.475,40.649-15.444,62.363-14.353
	C451.006,281.315,500.099,334.311,499.402,397.849z M465.829,436.459v-38.61c-0.008-14.328-3.492-28.445-10.156-41.128
	c-1.939-3.76-6.555-5.229-10.316-3.29c-1.528,0.789-2.736,2.065-3.45,3.626l-9.652,21.319v24.509
	c0,18.541-15.033,33.574-33.574,33.574c-9.241,0.067-16.72,7.546-16.787,16.787v16.787h50.361
	C450.796,470.033,465.829,455,465.829,436.459z M395.492,326.841c4.104-1.813,5.959-6.614,4.146-10.718
	c-1.1-2.501-3.391-4.272-6.077-4.725c-2.518-0.42-5.036-0.588-7.554-0.755c-7.596-0.386-15.209,0.378-22.578,2.266
	c-38.786,10.391-65.679,45.627-65.469,85.781v37.77c0,18.541,15.033,33.574,33.574,33.574c9.241-0.067,16.72-7.546,16.787-16.787
	v-19.557c0.017-3.634-1.158-7.176-3.357-10.072c-13.119-17.442-13.799-41.271-1.679-59.426c8.78-13.111,21.084-23.468,35.504-29.881
	L395.492,326.841z M398.681,386.098c0-9.275-7.512-16.787-16.787-16.787s-16.787,7.512-16.787,16.787s7.512,16.787,16.787,16.787
	C391.152,402.86,398.656,395.356,398.681,386.098z"/>
<g>
	<path style="fill:#B51C3A;" d="M256.664,277.487c6.077-0.63,12.196-0.797,18.298-0.504c17.66,0.865,34.875,5.833,50.277,14.521
		c-6.06,3.349-11.818,7.227-17.207,11.583c-27.623,22.301-43.671,55.9-43.646,91.405v41.967c-0.034,8.973,1.771,17.853,5.288,26.104
		c8.838,20.975,27.698,36.05,50.109,40.037l-0.168,1.007H218.893c-37.082,0-67.148-30.065-67.148-67.148v-41.967
		C151.905,334.495,197.045,284.16,256.664,277.487z M266.149,334.311l16.703-7.47c4.104-1.796,5.976-6.58,4.18-10.693
		c-1.1-2.518-3.399-4.306-6.11-4.751c-2.501-0.386-5.028-0.638-7.554-0.755c-7.596-0.386-15.209,0.378-22.578,2.266
		c-38.786,10.391-65.679,45.627-65.469,85.781v37.77c0.025,18.533,15.041,33.549,33.574,33.574
		c4.482,0.042,8.788-1.746,11.919-4.952c3.131-3.139,4.885-7.403,4.868-11.835v-19.557c0.017-3.634-1.158-7.176-3.357-10.072
		c-13.043-17.475-13.681-41.271-1.595-59.426C239.474,351.081,251.754,340.723,266.149,334.311z"/>
	<path style="fill:#B51C3A;" d="M218.894,512c-30.367,0.017-57.797-18.18-69.59-46.164c-3.903-9.3-5.926-19.288-5.951-29.377
		v-41.967c0.168-64.277,48.522-118.205,112.405-125.356c6.53-0.688,13.094-0.865,19.649-0.546
		c18.944,0.898,37.41,6.236,53.919,15.578l-8.175,14.638c-14.26-8.058-30.216-12.657-46.575-13.429
		c-60.399-2.736-111.582,44.007-114.327,104.406c-0.067,1.57-0.109,3.139-0.109,4.709v41.967c0.017,7.848,1.595,15.612,4.633,22.847
		c9.174,21.773,30.502,35.916,54.121,35.907V512z"/>
	<rect x="222.419" y="495.213" style="fill:#B51C3A;" width="97.196" height="16.787"/>
	<path style="fill:#B51C3A;" d="M88.124,436.459H71.337c0.008,22.839,10.358,44.443,28.16,58.754H79.73
		c-32.432-0.042-58.712-26.322-58.754-58.754v-41.967c0-62.111,49.236-108.98,114.562-109.115
		c-19.716,10.769-36.1,26.733-47.373,46.164l14.521,8.393c21.151-34.917,59.451-55.758,100.26-54.557h53.634l-0.588-16.787H135.798
		c-75.029,0-131.609,54.121-131.609,125.902v41.967C4.24,478.158,38.032,511.95,79.73,512h142.689v-16.787h-75.541
		C114.446,495.171,88.166,468.891,88.124,436.459z"/>
	<rect x="71.337" y="374.683" style="fill:#B51C3A;" width="16.787" height="41.967"/>
</g>
<path style="fill:#D32144;" d="M329.301,298.807c-34.85,19.238-56.496,55.884-56.521,95.685v41.967
	c-0.025,7.823,1.544,15.578,4.6,22.78c7.68,18.424,24.207,31.668,43.864,35.135c3.399,0.579,6.841,0.856,10.29,0.839h100.721
	c32.432-0.042,58.712-26.322,58.754-58.754v-38.61c1.016-59.174-44.729-108.67-103.802-112.313
	C367.046,284.471,346.986,289.07,329.301,298.807z M432.255,512H331.534c-30.393,0.067-57.839-18.138-69.598-46.164
	c-3.945-9.292-5.968-19.28-5.943-29.377v-41.967c-0.05-38.039,17.139-74.047,46.751-97.926c5.783-4.658,11.961-8.813,18.466-12.397
	l0,0c20.413-11.214,43.545-16.543,66.812-15.385c68.02,4.054,120.798,60.928,119.774,129.066v38.61
	C507.754,478.158,473.953,511.95,432.255,512z"/>
<rect x="71.337" y="374.683" width="16.787" height="41.967"/>
<path d="M388.005,268.766c-21.756-1.058-43.411,3.55-62.842,13.379c-15.419-8.049-32.39-12.674-49.756-13.555
	c-6.471-0.319-12.968-0.143-19.414,0.529v-0.529H135.798c-75.029,0-131.609,54.121-131.609,125.902v41.967
	C4.24,478.158,38.032,511.95,79.73,512h239.885v-0.965c3.945,0.63,7.923,0.957,11.919,0.965h100.721
	c41.699-0.05,75.491-33.842,75.541-75.541v-38.61C508.837,329.703,456.042,272.812,388.005,268.766z M146.878,495.213
	c-32.432-0.042-58.712-26.322-58.754-58.754H71.337c0.008,22.839,10.358,44.443,28.16,58.754H79.73
	c-32.432-0.042-58.712-26.322-58.754-58.754v-41.967c0-62.111,49.236-108.98,114.562-109.115
	c-19.716,10.769-36.1,26.733-47.373,46.164l14.521,8.393c21.151-34.917,59.451-55.758,100.26-54.557h3.525
	c-5.708,3.299-11.155,7.042-16.283,11.188c-29.662,23.846-46.894,59.87-46.835,97.926v41.967
	c0.025,10.089,2.048,20.077,5.951,29.377c4.919,11.491,12.615,21.588,22.394,29.377H146.878z M222.419,495.213h-3.525
	c-23.619,0.008-44.947-14.135-54.121-35.907c-3.038-7.235-4.616-14.999-4.633-22.847v-41.967
	c-0.21-60.131,48.371-109.048,108.502-109.257c1.981-0.008,3.962,0.042,5.934,0.143c11.474,0.562,22.763,3.038,33.423,7.319
	c-1.771,1.276-3.584,2.518-5.254,3.878c-4.121,3.391-8.024,7.034-11.692,10.911c-2.375-2.325-5.422-3.836-8.712-4.314
	c-2.879-0.436-5.775-0.713-8.687-0.839c-8.402-0.436-16.812,0.411-24.954,2.518c-42.521,11.247-72.049,49.849-71.772,93.839v37.77
	c0.025,23.166,18.801,41.942,41.967,41.967c13.908,0,25.18-11.272,25.18-25.18v-19.557c0.017-5.447-1.754-10.76-5.036-15.108
	c-10.92-14.638-11.465-34.564-1.343-49.765c7.327-10.92,17.416-19.699,29.234-25.466c-7.193,16.09-10.92,33.515-10.937,51.141
	v41.967c-0.025,10.097,1.998,20.086,5.943,29.377c4.826,11.457,12.406,21.554,22.075,29.377H222.419z M225.667,428.72
	c1.074,1.435,1.645,3.181,1.62,4.969v19.557c0.008,2.258-0.898,4.415-2.518,5.985c-1.544,1.578-3.668,2.443-5.875,2.409
	c-13.908,0-25.18-11.272-25.18-25.18v-37.77c-0.311-36.344,24.014-68.281,59.132-77.639c5.414-1.41,10.987-2.115,16.577-2.098
	c1.142,0,2.283,0,3.433,0.059c2.191,0.193,4.398,0.235,6.597,0.126l0,0l0,0l-16.686,7.462
	c-15.864,7.042-29.394,18.457-39.004,32.911c-14.076,21.135-13.295,48.85,1.93,69.17L225.667,428.72z M491.009,436.459
	c-0.042,32.432-26.322,58.712-58.754,58.754H331.534c-3.45,0.017-6.891-0.26-10.29-0.839c-19.649-3.466-36.176-16.695-43.864-35.101
	c-3.064-7.218-4.625-14.974-4.6-22.813v-41.967c-0.067-60.181,48.657-109.022,108.838-109.09c1.863,0,3.727,0.042,5.59,0.134
	c59.073,3.643,104.817,53.139,103.802,112.313V436.459z"/>
<path d="M448.437,344.19c-6.152,0.118-11.675,3.785-14.177,9.409l-9.652,21.319c-0.495,1.083-0.747,2.266-0.747,3.458v24.509
	c0,13.908-11.272,25.18-25.18,25.18c-13.874,0.067-25.113,11.306-25.18,25.18v16.787c0,4.633,3.76,8.393,8.393,8.393h50.361
	c23.166-0.025,41.942-18.801,41.967-41.967v-38.61c-0.025-15.662-3.827-31.081-11.079-44.964
	C460.44,347.287,454.648,343.854,448.437,344.19z M457.435,436.459c0,13.908-11.272,25.18-25.18,25.18h-41.967v-8.393
	c-0.008-2.266,0.932-4.432,2.577-5.985c1.528-1.561,3.634-2.426,5.817-2.409c23.166-0.025,41.942-18.801,41.967-41.967v-22.662
	l8.259-18.256c5.582,11.138,8.494,23.426,8.528,35.882V436.459z"/>
<path d="M343.033,392.729c-0.017-8.494,2.493-16.795,7.21-23.854c7.915-11.784,18.994-21.101,31.971-26.859l16.703-7.462l0,0
	c6.799-3.022,10.735-10.223,9.611-17.584c-0.932-7.126-6.488-12.766-13.597-13.807c-2.711-0.445-5.414-0.646-8.645-0.839
	c-8.393-0.428-16.812,0.42-24.954,2.518c-42.521,11.256-72.049,49.857-71.764,93.847v37.77
	c0.025,23.166,18.801,41.942,41.967,41.967c13.874-0.067,25.113-11.306,25.18-25.18v-19.557c0.017-5.447-1.754-10.76-5.036-15.108
	C346.054,411.136,343.016,402.063,343.033,392.729z M339.927,453.246c0.008,2.266-0.932,4.432-2.577,5.985
	c-1.528,1.561-3.626,2.426-5.817,2.409c-13.908,0-25.18-11.272-25.18-25.18v-37.77c-0.311-36.344,24.014-68.281,59.132-77.639
	c5.431-1.418,11.021-2.124,16.627-2.098c1.183,0,2.367,0,3.559,0.067c2.132,0.185,4.281,0.227,6.421,0.134l-16.695,7.462
	c-15.872,7.05-29.427,18.449-39.088,32.885c-14.118,21.143-13.32,48.909,1.998,69.204c1.074,1.435,1.645,3.19,1.62,4.986
	L339.927,453.246L339.927,453.246z"/>
<path d="M407.074,386.098c0-13.908-11.272-25.18-25.18-25.18c-13.908,0-25.18,11.272-25.18,25.18c0,13.908,11.272,25.18,25.18,25.18
	C395.802,411.279,407.074,400.006,407.074,386.098z M373.501,386.098c0-4.633,3.76-8.393,8.393-8.393
	c4.633,0,8.393,3.76,8.393,8.393c0,4.633-3.76,8.393-8.393,8.393C377.261,394.492,373.501,390.732,373.501,386.098z"/>
<path d="M387.602,151.082c0,4.633-3.76,8.393-8.393,8.393c-23.158-0.025-41.942,18.726-41.967,41.883c0,0.025,0,0.059,0,0.084
	c0,4.633,3.76,8.393,8.393,8.393h50.361c23.166-0.025,41.942-18.801,41.967-41.967v-38.61c-0.067-21.219-7.034-41.841-19.842-58.754
	c-2.803-3.693-8.066-4.423-11.759-1.62c-0.395,0.302-0.764,0.63-1.1,0.999c-11.373,12.347-17.668,28.538-17.626,45.325
	L387.602,151.082z M404.389,151.082v-35.924c-0.017-8.746,2.266-17.349,6.622-24.937c6.631,11.944,10.131,25.373,10.164,39.038
	v38.61c0,13.908-11.272,25.18-25.18,25.18h-40.532c3.534-10.081,13.06-16.812,23.745-16.787
	C393.116,176.262,404.389,164.99,404.389,151.082z"/>
<path d="M253.307,167.869c0.025,23.166,18.801,41.942,41.967,41.967c13.874-0.067,25.113-11.306,25.18-25.18v-19.557
	c0.008-5.447-1.763-10.752-5.036-15.108c-10.979-14.596-11.541-34.531-1.402-49.723c7.873-11.793,18.936-21.11,31.895-26.859
	l36.763-16.367c4.23-1.897,6.127-6.857,4.23-11.088c-0.831-1.863-2.317-3.357-4.172-4.205c-10.274-4.809-21.395-7.554-32.734-8.083
	c-8.427-0.428-16.862,0.428-25.038,2.518c-42.521,11.281-71.999,49.924-71.655,93.914V167.869z M270.094,130.098
	c-0.336-36.318,23.955-68.264,59.048-77.639c5.439-1.418,11.037-2.124,16.661-2.098c1.158,0,2.317,0,3.5,0.067
	c1.914,0.092,3.794,0.26,5.674,0.495l-15.948,7.118c-15.855,7.034-29.377,18.44-38.988,32.877
	c-14.109,21.143-13.32,48.892,1.981,69.196c1.1,1.427,1.687,3.181,1.679,4.977v19.565c0,2.266-0.932,4.44-2.585,5.993
	c-1.536,1.561-3.651,2.434-5.842,2.401c-13.908,0-25.18-11.272-25.18-25.18V130.098z"/>
<path d="M54.55,167.869c0.05,41.699,33.842,75.491,75.541,75.541h265.904c41.699-0.05,75.491-33.842,75.541-75.541v-38.61
	C473.525,59.912,418.926,2.09,349.579,0.101c-4.113-0.118-8.234-0.034-12.338,0.252V0h-16.787v0.965h-0.159V0.008
	c-0.101,0-4.197,0.084-19.305,0.084l0,0c-0.319-0.025-0.63-0.025-0.948,0c-1.494-0.076-2.904-0.084-4.381,0
	c-0.487-0.034-0.982-0.034-1.469,0h-0.201c-3.416,0.084-7.336,0.084-11.751,0h-0.671C279.612,0,278.462,0,278.487,0v0.084
	c-28.949,0.076-63.656,0.084-92.328,0.084c-73.795,0-131.609,55.229-131.609,125.734V167.869z M327.798,18.273
	c7.613-1.276,15.335-1.721,23.04-1.326c59.107,3.609,104.901,53.105,103.911,112.313v38.61
	c-0.042,32.432-26.322,58.712-58.754,58.754H295.274c-23.661,0.05-45.022-14.143-54.146-35.966
	c-3.064-7.21-4.625-14.957-4.608-22.788v-41.967C236.511,72.519,275.138,26.977,327.798,18.273z M71.337,125.902
	c0-58.225,45.845-104.33,105.883-108.536c-19.54,10.643-35.815,26.397-47.087,45.576l14.521,8.393
	c19.288-31.467,52.686-51.569,89.516-53.878c-8.805,5.162-16.955,11.356-24.282,18.466l11.751,12.036
	c16.065-15.671,36.553-26.045,58.695-29.713c-37.67,22.788-60.659,63.631-60.601,107.654v41.967
	c-0.034,22.872,10.383,44.51,28.278,58.754h-0.411c-17.836,0.059-34.724-8.058-45.82-22.024l-13.111,10.475
	c3.399,4.255,7.244,8.125,11.482,11.549h-11.306c-32.432-0.042-58.712-26.322-58.754-58.754h-16.787
	c0.008,22.839,10.358,44.443,28.16,58.754h-11.373c-32.432-0.042-58.712-26.322-58.754-58.754
	C71.337,167.869,71.337,125.902,71.337,125.902z"/>
<rect x="172.058" y="125.902" width="16.787" height="41.967"/>
<path d="M370.815,117.508c0-13.908-11.272-25.18-25.18-25.18c-13.908,0-25.18,11.272-25.18,25.18s11.272,25.18,25.18,25.18
	C359.542,142.689,370.815,131.416,370.815,117.508z M337.241,117.508c0-4.633,3.76-8.393,8.393-8.393
	c4.633,0,8.393,3.76,8.393,8.393c0,4.633-3.76,8.393-8.393,8.393C341.001,125.902,337.241,122.141,337.241,117.508z"/>
<g>
</g>
<g>
</g>
<g>
</g>
<g>
</g>
<g>
</g>
<g>
</g>
<g>
</g>
<g>
</g>
<g>
</g>
<g>
</g>
<g>
</g>
<g>
</g>
<g>
</g>
<g>
</g>
<g>
</g>
</svg>
