<svg id="Layer_3" enable-background="new 0 0 64 64" height="512" viewBox="0 0 64 64" width="512" xmlns="http://www.w3.org/2000/svg"><g><path d="m17.193 14.477 2.138.855c1.103.441 2.279.668 3.466.668 1.449 0 2.877-.337 4.173-.985l.059-.03c1.296-.648 2.725-.985 4.174-.985h.594c1.449 0 2.877.337 4.173.985l.059.03c1.296.648 2.725.985 4.174.985h.283c1.003 0 1.999-.162 2.951-.479l3.337-1.112h-.001c.767 1.567 2.068 2.854 3.727 3.591 2.736 1.216 4.5 3.93 4.5 6.924v31.076c0 3.314-2.686 6-6 6h-34c-3.314 0-6-2.686-6-6v-31.076c0-2.995 1.764-5.708 4.5-6.924 1.634-.726 2.922-1.987 3.693-3.523z" fill="#f5cf88"/><path d="m33.838 14.231c-.668-.149-1.352-.231-2.041-.231h-.594c-1.449 0-2.877.337-4.173.985l-.059.03c-1.296.648-2.725.985-4.174.985-1.187 0-2.363-.227-3.466-.667l-2.138-.855c-.771 1.535-2.059 2.796-3.693 3.522-2.736 1.216-4.5 3.93-4.5 6.924v17.339c12.655-4.042 22.316-14.77 24.838-28.032z" fill="#fadfb2"/><path d="m46.773 14.409-3.337 1.112c-.951.317-1.947.479-2.95.479h-.283c-1.449 0-2.877-.337-4.173-.985l-.059-.03c-1.296-.648-2.725-.985-4.174-.985h-.594c-1.449 0-2.877.337-4.173.985l-.059.03c-1.296.648-2.725.985-4.174.985-1.187 0-2.363-.227-3.466-.667l-2.138-.855c.521-1.036.807-2.196.807-3.402v-1.076h28v1.076c0 1.179.274 2.315.773 3.333z" fill="#c7e2fc"/><path d="m34.824 54.816c5.822-4.06 10.287-9.8 12.807-16.466l2.806-7.42c.706-1.868.749-3.924.122-5.821-.622-1.88-1.96-3.435-3.72-4.321-1.952-.983-4.234-1.051-6.24-.185-2.335 1.008-4.201 2.874-5.219 5.218l-.383.881c-3.184 7.331-7.868 13.902-13.745 19.285-1.144 1.047-1.904 2.452-2.158 3.988-.363 2.195.348 4.432 1.911 6.006 1.493 1.504 3.591 2.229 5.686 1.965 2.921-.367 5.711-1.441 8.133-3.13z" fill="#78b75b"/><path d="m20.037 54.756c.853.235 1.753.304 2.653.191 2.922-.368 5.713-1.442 8.134-3.131 5.822-4.06 10.287-9.8 12.807-16.466l2.806-7.42c.706-1.868.749-3.924.122-5.821-.21-.636-.503-1.234-.865-1.782-1.632-.503-3.399-.428-4.998.236.48 1.767.392 3.647-.258 5.367l-2.806 7.42c-2.521 6.665-6.986 12.406-12.807 16.466-1.736 1.21-3.661 2.105-5.689 2.65l-.009-.04c.158.824.466 1.614.91 2.33z" fill="#669e4f"/><path d="m29.176 54.816c-5.822-4.06-10.287-9.8-12.807-16.466l-2.806-7.42c-.706-1.868-.749-3.924-.122-5.821.622-1.88 1.96-3.435 3.72-4.321 1.952-.983 4.234-1.051 6.24-.185 2.335 1.008 4.201 2.874 5.219 5.218l.383.881c3.184 7.331 7.868 13.902 13.745 19.285 1.144 1.047 1.904 2.452 2.158 3.988.363 2.195-.348 4.432-1.911 6.006-1.493 1.504-3.591 2.229-5.686 1.965-2.921-.367-5.711-1.441-8.133-3.13z" fill="#96cc7f"/><path d="m43.963 54.756c-.853.235-1.753.304-2.653.191-2.922-.368-5.713-1.442-8.134-3.131-5.822-4.06-10.287-9.8-12.807-16.466l-2.806-7.42c-.706-1.868-.749-3.924-.122-5.821.21-.636.503-1.234.865-1.782 1.632-.503 3.399-.428 4.998.236-.48 1.767-.392 3.647.258 5.367l2.806 7.42c2.521 6.665 6.986 12.406 12.807 16.466 1.736 1.21 3.661 2.105 5.689 2.65l.009-.04c-.158.824-.466 1.614-.91 2.33z" fill="#78b75b"/><path d="m46 10h-28c-1.105 0-2-.895-2-2v-4c0-1.105.895-2 2-2h28c1.105 0 2 .895 2 2v4c0 1.105-.895 2-2 2z" fill="#758190"/><path d="m46 5h-28c-1.105 0-2 .895-2 2v1c0 1.105.895 2 2 2h28c1.105 0 2-.895 2-2v-1c0-1.105-.895-2-2-2z" fill="#8892a0"/><g><path d="m19 4.999h2v4.999h-2z" fill="#a8b0bc"/></g><g><path d="m23 4.999h2v4.999h-2z" fill="#a8b0bc"/></g><g><path d="m27 4.999h2v4.999h-2z" fill="#a8b0bc"/></g><g><path d="m31 4.999h2v4.999h-2z" fill="#a8b0bc"/></g><g><path d="m35 4.999h2v4.999h-2z" fill="#a8b0bc"/></g><g><path d="m39 4.999h2v4.999h-2z" fill="#a8b0bc"/></g><g><path d="m43 4.999h2v4.999h-2z" fill="#a8b0bc"/></g><g fill="#ebf7fe"><path d="m17.194 14.477h-.001z"/><path d="m18 10v1.076c0 1.206-.286 2.366-.806 3.402l2.138.855c1.102.44 2.278.667 3.465.667 1.449 0 2.877-.337 4.173-.985l.059-.03c1.296-.648 2.725-.985 4.174-.985h.594c.689 0 1.373.082 2.041.231.263-1.384.446-2.797.549-4.231-7.955 0-16.387 0-16.387 0z"/></g><g><path d="m50.905 17.085c-2.372-1.055-3.905-3.413-3.905-6.01v-.262c1.161-.414 2-1.514 2-2.816v-3.998c0-1.654-1.346-3-3-3h-28c-1.654 0-3 1.346-3 3v3.999c0 1.302.839 2.402 2 2.816v.261c0 2.596-1.534 4.955-3.907 6.011-3.094 1.375-5.094 4.451-5.093 7.838v31.075c0 3.86 3.14 7 7 7h34c3.859 0 7-3.14 7-7v-31.075c0-3.387-2-6.463-5.095-7.839zm-31.905-6.087h26v.077c0 .941.169 1.853.458 2.717l-2.338.78c-.852.283-1.738.428-2.635.428h-.282c-1.286 0-2.575-.305-3.786-.911-1.427-.713-3.025-1.089-4.621-1.089h-.594c-1.596 0-3.193.376-4.68 1.119-2.105 1.053-4.636 1.158-6.821.284l-1.209-.484c.32-.901.508-1.855.508-2.844zm-2-6.999c0-.552.448-1 1-1h28c.552 0 1 .448 1 1v3.999c0 .552-.448 1-1 1h-1v-3.999h-2v3.999h-2v-3.999h-2v3.999h-2v-3.999h-2v3.999h-2v-3.999h-2v3.999h-2v-3.999h-2v3.999h-2v-3.999h-2v3.999h-2v-3.999h-2v3.999h-1c-.552 0-1-.448-1-1zm37 52c0 2.758-2.243 5-5 5h-34c-2.757 0-5-2.242-5-5v-31.076c0-2.596 1.533-4.955 3.906-6.011 1.555-.691 2.832-1.812 3.72-3.186l1.334.534c2.708 1.085 5.798.978 8.517-.381 1.15-.575 2.439-.879 3.726-.879h.594c1.287 0 2.576.304 3.786.909 1.428.713 3.026 1.09 4.621 1.09h.282c1.112 0 2.211-.178 3.268-.53l2.56-.854c.889 1.423 2.185 2.589 3.781 3.298 2.371 1.055 3.905 3.414 3.905 6.011z"/><path d="m47.288 19.895c-2.22-1.117-4.801-1.194-7.086-.21-2.578 1.113-4.617 3.151-5.74 5.738l-.383.882c-.626 1.44-1.337 2.852-2.084 4.239-.742-1.381-1.444-2.787-2.074-4.24l-.383-.88c-1.124-2.588-3.162-4.626-5.74-5.739-2.282-.984-4.865-.907-7.086.21-2.011 1.013-3.509 2.754-4.22 4.9-.698 2.108-.649 4.413.136 6.488l2.806 7.421c1.049 2.773 2.428 5.369 4.078 7.766-.714.99-1.204 2.125-1.405 3.341-.415 2.506.403 5.075 2.188 6.874 1.487 1.499 3.46 2.315 5.528 2.315.329 0 .66-.021.991-.062 1.792-.225 3.531-.711 5.185-1.424 1.653.712 3.401 1.199 5.187 1.424.331.041.662.062.99.062 2.067 0 4.042-.816 5.529-2.314 1.785-1.799 2.602-4.368 2.188-6.874-.201-1.213-.7-2.353-1.412-3.342 1.663-2.414 3.045-5.018 4.084-7.765l2.806-7.421c.785-2.075.833-4.38.136-6.488-.71-2.149-2.208-3.889-4.219-4.901zm-2.255 1.288c.231.394.433.805.576 1.24.554 1.674.516 3.504-.108 5.152l-2.806 7.421c-.834 2.206-1.907 4.315-3.172 6.302-.999-1.115-1.94-2.273-2.843-3.461.707-1.338 1.35-2.719 1.885-4.133l2.806-7.421c.616-1.628.777-3.358.487-5.055 1.043-.282 2.133-.3 3.175-.045zm-9.12 5.919.383-.882c.763-1.757 2.046-3.197 3.662-4.159.123 1.186-.028 2.381-.456 3.514l-2.806 7.421c-.39 1.031-.85 2.04-1.339 3.033-.777-1.114-1.507-2.26-2.201-3.431 1.008-1.78 1.942-3.621 2.757-5.496zm-8.21-.881.383.88c3.261 7.509 7.967 14.111 13.987 19.625.974.892 1.63 2.104 1.847 3.413.055.334.071.669.069 1.003-1.504-.518-2.929-1.231-4.241-2.146-5.681-3.962-9.984-9.494-12.444-15.999l-2.806-7.421c-.429-1.133-.58-2.329-.457-3.514 1.617.961 2.899 2.401 3.662 4.159zm-7.225-5.223c.558 0 1.116.081 1.662.229-.289 1.697-.128 3.427.488 5.056l2.806 7.421c2.603 6.884 7.157 12.738 13.17 16.931 1.55 1.082 3.243 1.907 5.031 2.49-.091.251-.2.495-.324.733-.618.126-1.244.176-1.876.096-2.75-.347-5.408-1.37-7.687-2.959-5.681-3.962-9.984-9.494-12.444-15.999l-2.806-7.421c-.624-1.647-.662-3.478-.108-5.152.144-.435.345-.846.576-1.239.497-.122 1.004-.186 1.512-.186zm1.901 29.132c-.763.399-1.555.739-2.369 1.02-.003-.336.013-.674.069-1.011.113-.684.356-1.33.689-1.927.513.658 1.053 1.296 1.611 1.918zm-1.691 3.727c-.123-.235-.231-.477-.321-.726 1.197-.391 2.35-.9 3.447-1.517.578.573 1.178 1.125 1.795 1.66-.993.315-2.01.55-3.045.68-.628.079-1.257.03-1.876-.097zm5.876 3.097c-1.442.178-2.86-.185-4.029-.999.093-.008.186-.006.279-.018 1.582-.199 3.129-.606 4.614-1.19.391.297.771.605 1.176.887.322.225.652.439.987.644-.986.312-1.996.546-3.027.676zm10.871 0c-2.75-.347-5.408-1.37-7.687-2.959-5.681-3.962-9.984-9.494-12.444-15.999l-2.806-7.421c-.624-1.647-.662-3.478-.108-5.152.365-1.104 1.022-2.049 1.868-2.797-.438 1.872-.314 3.851.369 5.657l2.806 7.421c2.603 6.884 7.157 12.738 13.17 16.931 2.544 1.774 5.511 2.916 8.582 3.303.093.012.186.009.278.018-1.167.813-2.584 1.176-4.028.998zm12.066-26.379-2.806 7.421c-.926 2.448-2.143 4.772-3.594 6.942-.745-.694-1.468-1.406-2.171-2.134 1.462-2.228 2.693-4.606 3.636-7.1l2.806-7.421c.683-1.806.807-3.785.369-5.656.846.747 1.502 1.692 1.868 2.796.554 1.675.516 3.505-.108 5.152z"/></g></g></svg>