<?xml version="1.0" encoding="iso-8859-1"?>
<!-- Generator: Adobe Illustrator 19.0.0, SVG Export Plug-In . SVG Version: 6.00 Build 0)  -->
<svg version="1.1" id="Capa_1" xmlns="http://www.w3.org/2000/svg" xmlns:xlink="http://www.w3.org/1999/xlink" x="0px" y="0px"
	 viewBox="0 0 512 512" style="enable-background:new 0 0 512 512;" xml:space="preserve">
<g>
	<path style="fill:#A0C873;" d="M309.225,111.71l-0.733-8.207c-1.157-12.961-6.955-24.468-15.665-32.954
		c-7.69-7.494-12.661-17.327-12.661-28.064V15.516c0-4.427-3.589-8.016-8.016-8.016h-32.065c-4.427,0-8.016,3.589-8.016,8.016
		v26.968c0,10.737-4.97,20.571-12.661,28.064c-8.709,8.486-14.508,19.993-15.665,32.954l-0.733,8.207L309.225,111.71L309.225,111.71
		z"/>
	<path style="fill:#A0C873;" d="M256.118,504.497c0.021,0,0.04,0.003,0.061,0.003c47.756-0.035,84.271-43.072,80.024-90.638
		l-27.711-310.359c-0.613-6.86-2.596-13.267-5.552-19.081c-13.968,0.533-25.112,9.523-25.112,20.628l-21.71,22.692V504.497z"/>
</g>
<path style="fill:#69A573;" d="M255.877,504.497c-0.021,0-0.04,0.003-0.061,0.003c-47.756-0.035-84.271-43.072-80.024-90.638
	l27.711-310.359c0.613-6.86,2.596-13.267,5.552-19.081c13.968,0.533,25.112,9.523,25.112,20.628l21.71,22.692L255.877,504.497
	L255.877,504.497z"/>
<path style="fill:#87B973;" d="M277.628,103.503c-0.013-0.362-0.063-0.693-0.079-1.052c-1.373-10.023-10.389-17.795-21.431-17.795
	c-11.981,0-21.693,9.118-21.707,20.37l-11.465,311.647c-1.737,47.208,13.594,87.863,33.127,87.828
	c19.677-0.035,34.724-43.072,32.974-90.638L277.628,103.503z"/>
<path style="fill:#D4F582;" d="M256.118,63.613c10.274,0,19.316-4.92,25.184-12.435c-0.718-2.811-1.136-5.712-1.136-8.694V15.516
	c0-4.427-3.589-8.016-8.016-8.016h-32.065c-4.427,0-8.016,3.589-8.016,8.016v26.968c0,2.982-0.418,5.882-1.136,8.694
	C236.802,58.693,245.844,63.613,256.118,63.613z"/>
<path style="fill:#BEE86E;" d="M256.118,7.5h-16.032c-4.427,0-8.016,3.589-8.016,8.016v26.968c0,2.982-0.418,5.882-1.136,8.694
	c5.868,7.516,14.91,12.435,25.184,12.435V7.5z"/>
<path d="M343.673,413.195l-27.711-310.358c-1.274-14.279-7.632-27.654-17.901-37.66c-6.703-6.531-10.395-14.59-10.395-22.693V15.516
	C287.666,6.96,280.706,0,272.15,0h-32.065c-8.556,0-15.516,6.96-15.516,15.516v26.968c0,8.103-3.691,16.162-10.395,22.693
	c-10.269,10.006-16.626,23.38-17.901,37.659l-27.962,313.169c-2.196,24.595,6.106,49.148,22.779,67.362
	C207.75,501.566,231.448,512,256.12,512c0.021,0,0.043,0,0.064,0c24.336-0.018,46.972-10.129,63.736-28.471
	C337.308,464.506,345.965,438.87,343.673,413.195z M224.642,75.92c9.625-9.378,14.927-21.253,14.927-33.436V15.516
	c0-0.285,0.231-0.516,0.516-0.516h32.065c0.285,0,0.516,0.231,0.516,0.516v26.968c0,12.183,5.301,24.058,14.927,33.436
	c0.894,0.871,1.744,1.78,2.558,2.716c-4.782,1.554-9.013,4.258-12.323,7.77c-5.351-5.677-13.102-9.251-21.71-9.251
	c-8.608,0-16.359,3.575-21.71,9.251c-3.311-3.512-7.541-6.216-12.323-7.77C222.898,77.7,223.748,76.791,224.642,75.92z
	 M308.848,473.41c-7.394,8.09-16.162,14.225-25.766,18.218c9.683-17.661,14.974-44.989,13.877-74.287l-9.66-257.817
	c-0.155-4.14-3.655-7.384-7.775-7.214c-4.139,0.155-7.369,3.636-7.214,7.775l9.66,257.817c1.393,37.183-8.298,64.838-17.892,74.798
	c-2.748,2.853-5.426,4.3-7.959,4.3c-0.001,0-0.001,0-0.001,0c-2.533,0-5.21-1.447-7.958-4.3
	c-9.594-9.96-19.285-37.615-17.892-74.798l0.349-9.313c0.155-4.139-3.075-7.62-7.214-7.775c-4.152-0.165-7.621,3.075-7.775,7.214
	l-0.349,9.313c-1.102,29.432,4.241,56.875,14.009,74.525c-10.241-4.042-19.565-10.361-27.13-18.626
	c-13.836-15.115-20.726-35.49-18.904-55.9l27.962-313.169c0.368-4.122,1.306-8.14,2.753-11.956
	c7.242,0.586,12.941,6.115,12.941,12.837l-10.08,270.91c-0.155,4.139,3.075,7.621,7.214,7.775c0.096,0.004,0.191,0.005,0.286,0.005
	c4.012,0,7.338-3.176,7.49-7.219l10.056-268.406c0.034-0.896,0.127-2.596,0.188-3.809c0.069-1.375,0.312-2.748,0.864-4.009
	c2.087-4.764,7.208-8.142,13.193-8.142c6.025,0,11.175,3.424,13.234,8.239c0.539,1.26,0.771,2.628,0.835,3.997
	c0.055,1.192,0.144,2.867,0.176,3.724l0.746,19.909c0.151,4.043,3.477,7.219,7.49,7.219c0.095,0,0.19-0.001,0.286-0.005
	c4.139-0.155,7.369-3.636,7.214-7.775l-0.77-22.414c0-6.721,5.699-12.251,12.941-12.837c1.447,3.815,2.385,7.834,2.753,11.956
	l27.711,310.359C330.651,436.023,323.404,457.484,308.848,473.41z"/>
<g>
</g>
<g>
</g>
<g>
</g>
<g>
</g>
<g>
</g>
<g>
</g>
<g>
</g>
<g>
</g>
<g>
</g>
<g>
</g>
<g>
</g>
<g>
</g>
<g>
</g>
<g>
</g>
<g>
</g>
</svg>
