<?xml version="1.0" encoding="iso-8859-1"?>
<!-- Uploaded to: SVG Repo, www.svgrepo.com, Generator: SVG Repo Mixer Tools -->
<svg version="1.1" id="Layer_1" xmlns="http://www.w3.org/2000/svg" xmlns:xlink="http://www.w3.org/1999/xlink" 
	 viewBox="0 0 512 512" xml:space="preserve">
<rect x="210.462" y="10.199" style="fill:#8C4F39;" width="91.079" height="72.397"/>
<path style="fill:#FF2E48;" d="M171.343,149.74c1.52-46.731,37.902-84.658,84.658-84.658s83.139,37.928,84.658,84.658
	c2.045,62.864,14.303,188.192,16.348,251.055c1.812,55.754-45.222,101.006-101.007,101.006s-102.819-45.252-101.006-101.006
	C157.039,337.931,169.299,212.602,171.343,149.74z"/>
<path d="M367.201,400.464c-1.029-31.652-4.673-79.601-8.198-125.969c-3.508-46.152-7.135-93.876-8.15-125.087
	c-1.025-31.522-16.176-58.98-39.113-76.062V10.199C311.74,4.567,307.173,0,301.54,0H210.46c-5.633,0-10.199,4.567-10.199,10.199
	v63.146c-22.936,17.082-38.087,44.54-39.113,76.062c-1.015,31.212-4.643,78.935-8.15,125.087
	c-3.525,46.369-7.168,94.317-8.198,125.969c-0.934,28.732,9.784,56.16,30.181,77.232c21.105,21.8,50.636,34.304,81.02,34.304
	s59.915-12.504,81.018-34.305C357.417,456.623,368.135,429.196,367.201,400.464z M220.66,20.398h70.683V61.81
	c-10.915-4.471-22.837-6.928-35.341-6.928s-24.426,2.457-35.341,6.928V20.398z M322.363,463.507
	c-17.283,17.855-41.471,28.095-66.362,28.095s-49.08-10.24-66.362-28.095c-16.521-17.065-25.203-39.219-24.451-62.38
	c1.015-31.212,4.643-78.935,8.15-125.087c3.525-46.369,7.168-94.317,8.198-125.969c1.364-41.939,34.072-74.791,74.464-74.791
	s73.101,32.852,74.464,74.791c1.029,31.652,4.673,79.601,8.198,125.969c3.508,46.152,7.135,93.876,8.15,125.087
	C347.566,424.288,338.884,446.442,322.363,463.507z"/>
<path d="M205.615,406.067c-0.255-2.244-0.346-4.54-0.272-6.822c0.184-5.63-4.232-10.343-9.862-10.526
	c-0.113-0.003-0.225-0.005-0.338-0.005c-5.48,0-10.008,4.351-10.188,9.868c-0.106,3.269,0.025,6.562,0.392,9.787
	c0.591,5.206,5.003,9.05,10.122,9.05c0.383,0,0.772-0.021,1.163-0.065C202.228,416.716,206.25,411.664,205.615,406.067z"/>
<path d="M276.475,445.328c-6.504,2.812-13.393,4.237-20.474,4.237c-12.448,0-24.482-4.501-33.885-12.675
	c-4.25-3.696-10.693-3.244-14.389,1.006c-3.695,4.251-3.244,10.693,1.007,14.388c13.114,11.401,29.901,17.678,47.267,17.678
	c9.882,0,19.494-1.989,28.569-5.912c5.17-2.235,7.549-8.238,5.315-13.408C287.649,445.472,281.647,443.091,276.475,445.328z"/>
</svg>