<svg height="512pt" viewBox="0 -127 512 512" width="512pt" xmlns="http://www.w3.org/2000/svg"><path d="m463.304688 161.082031v23.265625h-325.046876v-176.800781h130.824219c23.066407 0 43.945313 9.347656 59.0625 24.464844 15.113281 15.113281 24.464844 35.996093 24.464844 59.058593 0 15.003907 12.164063 27.171876 27.167969 27.171876h40.6875c23.660156 0 42.839844 19.183593 42.839844 42.839843zm0 0" fill="#c97e67"/><path d="m238.890625 73.632812v87.449219h-100.632813v-153.535156h57.925782c8.050781 3.632813 15.316406 8.683594 21.484375 14.855469 13.113281 13.109375 21.222656 31.226562 21.222656 51.230468zm0 0" fill="#c0694e"/><path d="m210.714844 161.085938h-144.910156v-81.082032c0-40.015625 32.4375-72.457031 72.453124-72.457031 40.015626 0 72.457032 32.441406 72.457032 72.457031zm0 0" fill="#7c3f2c"/><path d="m179.519531 80.003906v81.078125h-82.519531v-81.078125c0-22.753906 18.507812-41.261718 41.257812-41.261718 22.753907 0 41.261719 18.507812 41.261719 41.261718zm0 0" fill="#954c35"/><path d="m491.53125 184.34375-47.417969 49.582031-7.699219 8.050781c-5.535156 5.789063-13.183593 9.058594-21.183593 9.058594h-317.554688c-7.921875 0-15.5-3.199218-21.011719-8.886718l-56.195312-57.804688zm0 0" fill="#c42d2d"/><path d="m491.53125 184.34375-47.417969 49.582031h-304.222656c-7.910156 0-15.5-3.199219-21.011719-8.882812l-39.558594-40.699219zm0 0" fill="#d63030"/><path d="m504.453125 182.644531v3.402344c0 11.519531-9.429687 20.941406-20.941406 20.941406h-455.023438c-11.511719 0-20.941406-9.421875-20.941406-20.941406v-3.402344c0-11.523437 9.429687-20.941406 20.941406-20.941406h455.023438c11.511719 0 20.941406 9.417969 20.941406 20.941406zm0 0" fill="#f44545"/><path d="m504.453125 182.644531v1.699219h-444.859375c-11.519531 0-20.941406-9.417969-20.941406-20.941406v-1.699219h444.859375c11.511719 0 20.941406 9.417969 20.941406 20.941406zm0 0" fill="#fb5858"/><path d="m483.511719 153.535156h-13.226563c-3.65625-24.214844-24.601562-42.839844-49.820312-42.839844h-13.371094c-4.167969 0-7.546875 3.378907-7.546875 7.546876 0 4.171874 3.378906 7.550781 7.546875 7.550781h13.371094c16.867187 0 31.003906 11.898437 34.46875 27.742187h-236.671875v-73.53125c0-26.699218-13.15625-50.367187-33.316407-64.910156h84.136719c41.894531 0 75.976563 34.085938 75.976563 75.980469 0 17.824219 13.355468 32.667969 31.0625 34.527343.269531.027344.535156.039063.796875.039063 3.816406 0 7.089843-2.882813 7.5-6.761719.433593-4.144531-2.574219-7.859375-6.71875-8.292968-10-1.046876-17.542969-9.4375-17.542969-19.511719 0-50.21875-40.855469-91.074219-91.074219-91.074219h-130.820312c-44.113281 0-80.003907 35.890625-80.003907 80.003906v73.53125h-29.769531c-15.707031 0-28.488281 12.78125-28.488281 28.488282v3.402343c0 15.707031 12.78125 28.488281 28.488281 28.488281h10.796875l31.964844 32.878907c6.902344 7.09375 16.53125 11.167969 26.425781 11.167969h317.554688c10.015625 0 19.714843-4.144532 26.636719-11.382813l31.238281-32.664063h10.40625c15.707031 0 28.488281-12.78125 28.488281-28.488281v-3.402343c0-15.707032-12.78125-28.488282-28.488281-28.488282zm-410.160157-73.53125c0-35.789062 29.117188-64.90625 64.90625-64.90625 35.792969 0 64.910157 29.117188 64.910157 64.90625v73.53125h-16.101563v-73.53125c0-7.714844-1.855468-15.402344-5.367187-22.238281-1.902344-3.707031-6.457031-5.167969-10.160157-3.261719-3.707031 1.902344-5.167968 6.453125-3.265624 10.160156 2.453124 4.777344 3.695312 9.9375 3.695312 15.339844v44.78125h-3.015625c-2.777344 0-5.035156-2.257812-5.035156-5.03125 0-11.097656-9.027344-20.125-20.125-20.125h-11.070313c-2.773437 0-5.03125-2.257812-5.03125-5.03125v-14.59375c0-4.167968-3.378906-7.546875-7.546875-7.546875s-7.546875 3.378907-7.546875 7.546875v14.59375c0 11.097656 9.027344 20.125 20.125 20.125h11.070313c2.773437 0 5.03125 2.257813 5.03125 5.03125 0 11.097656 9.03125 20.125 20.128906 20.125h3.015625v13.65625h-67.421875v-73.53125c0-23.621094 23.804687-39.933594 45.777344-31.480468 3.886719 1.496093 8.257812-.441407 9.753906-4.335938 1.496094-3.890625-.441406-8.253906-4.332031-9.753906-31.816406-12.242188-66.292969 11.351562-66.292969 45.570312v73.53125h-16.101563zm422.820313 109.789063c-1.269531 3.691406-4.117187 6.652343-7.730469 8.082031-3.65625 1.464844 17.820313.945312-330.035156.945312-4.167969 0-7.546875 3.378907-7.546875 7.546876 0 4.164062 3.378906 7.546874 7.546875 7.546874h293.808594l-21.253906 22.230469c-4.085938 4.277344-9.824219 6.722657-15.730469 6.722657h-317.554688c-5.847656 0-11.535156-2.40625-15.597656-6.59375l-21.738281-22.359376h67.875c4.179687 0 7.550781-3.382812 7.550781-7.546874 0-4.167969-3.371094-7.546876-7.550781-7.546876h-82.546875c-16.261719-.242187-18.09375.582032-21.886719-.855468-10.4375-3.921875-8.511719-15.242188-8.6875-15.941406 0-7.398438 6.027344-13.394532 13.394531-13.394532h455.023438c5.917969 0 10.949219 3.855469 12.710937 9.1875.933594 2.8125 1.042969 8.808594-.050781 11.976563zm0 0"/></svg>