<svg id="Layer_1" enable-background="new 0 0 512.044 512.044" height="512" viewBox="0 0 512.044 512.044" width="512" xmlns="http://www.w3.org/2000/svg"><g><g><g><path d="m126.825 272.561c-10.888 4.974-23.414 8.562-32.465 8.721 8.82-.02 21.357-3.647 32.465-8.721z" fill="none"/></g><g><g><path d="m451.213 10.843s-15.449 49.347-163.83 114.824c0 0-45.831 75.441-106.129 108.861-39.611 21.954-128.391 29.542-128.391 29.542-16.179 29.095-29.645 66.88-40.8 117.182-12.102 54.575-1.511 121.367 51.401 123.151 52.025 1.755 134.242-43.117 172.479-93.739 37.861-50.126 49.47-113.496 78.122-168.429 22.447-43.038 44.473-77.411 81.806-109.454 33.521-28.77 60.672-48.764 79.848-69.044 14.693-15.538 24.301-31.778 28.824-50.042-.001.001-22.689-11.564-53.33-2.852z" fill="#ea9b58"/><path d="m454.141 10.067c6.594 1.692 10.401 3.63 10.401 3.63-4.523 18.265-14.131 34.504-28.824 50.042-19.176 20.28-46.327 40.273-79.848 69.043-37.334 32.043-52.359 66.416-74.806 109.454-28.651 54.933-47.26 118.303-85.122 168.429-32.396 42.889-96.358 81.646-146.785 91.42 4.379 1.343 9.138 2.145 14.306 2.319 52.025 1.755 134.242-43.117 172.479-93.739 37.861-50.126 49.47-113.496 78.122-168.429 22.447-43.038 44.473-77.411 81.806-109.454 33.521-28.77 60.672-48.764 79.848-69.043 14.693-15.538 24.301-31.778 28.824-50.042 0-.001-21.254-10.833-50.401-3.63z" fill="#d88a55"/><path d="m435.639 33.1s-54.603 14.917-51.469 44.179c0 0 6.141 4.457 22.765 1.827 8.773-1.388 16.315-6.966 20.1-14.935 3.579-7.539 7.353-15.97 8.604-31.071z" fill="#c86d36"/><g><path d="m504.542 13.696s-22.688-11.565-53.329-2.853c0 0-1.99 6.639-10.577 16.544 8.228 4.721 23.493 15.393 35.078 36.346 14.69-15.536 24.306-31.773 28.828-50.037z" fill="#685e68"/></g><path d="m454.142 10.067c6.594 1.692 10.401 3.63 10.401 3.63-2.083 8.413-5.261 16.393-9.504 24.075 6.817 6.025 14.302 14.435 20.675 25.962 14.691-15.537 24.307-31.774 28.829-50.038-.001 0-21.255-10.832-50.401-3.629z" fill="#554e56"/></g><path d="m69.761 290.35c13.322 8.781 46.024 22.334 84.361 14.366 147.126-30.58 152.373-175.348 133.255-179.061-14.897 17.789-58.391 56.906-87.828 74.362-65.565 38.881-80.288 39.032-146.679 64.058.001 0-4.084 12.45 16.891 26.275z" fill="#fff"/><path d="m63.068 282.706c17.913 11.696 48.022 11.237 69.498 4.646 138.617-42.544 154.812-161.696 154.812-161.696-14.897 17.789-58.391 56.906-87.828 74.362-65.565 38.881-80.288 39.032-146.679 64.058-2.203 5.456 1.079 12.677 10.197 18.63z" fill="#e41f2d"/></g></g><g><path d="m507.948 7.014c-1.034-.526-25.692-12.796-58.787-3.385-2.497.709-4.377 2.422-5.089 4.911-.227.596-2.332 5.753-9.504 14.4-21.524 3.105-54.216 24.336-57.69 47.473-25.325 16.171-56.295 32.384-92.13 48.216-17.863 17.72-57.632 56.952-89.026 74.935-49.04 29.083-68.819 36.058-104.724 48.72-11.501 4.056-24.533 8.652-40.631 14.718-1.681.572-3.197 1.871-4.06 3.422-16.937 30.463-30.533 69.455-41.566 119.206-12.28 51.788-3.706 132.18 61.758 132.325 20.729 0 45.745-6.38 72.615-18.549 3.773-1.709 5.447-6.153 3.738-9.926-1.709-3.774-6.154-5.447-9.926-3.738-35.072 14.85-79.711 29.869-102.176.652-35.876-44.477-.541-151.478 20.525-196.75 59.962 65.859 180.991 16.825 221.471-44.618 30.852-45.535 34.175-88.759 26.69-110.539 31.681-14.362 59.496-29.039 82.852-43.733 17.785 8.02 43.049.475 51.522-17.365 4.092-8.616 6.9-18.306 8.424-28.857 6.767 4.393 16.172 11.788 24.088 24.1-11.743 11.746-26.452 23.848-43.222 37.638-53.402 41.278-85.411 78.091-115.683 138.498-42.426 84.91-47.369 166.116-137.539 220.804-3.483 2.24-4.492 6.881-2.252 10.365 2.139 3.327 7.019 4.405 10.364 2.254 94.163-57.642 99.317-138.064 142.724-226.489 22.465-43.068 43.69-76.029 80.043-107.229 41.127-37.816 95.561-66.043 111.069-122.974.834-3.385-.771-6.901-3.878-8.485zm-265.364 244.51c-29.209 27.167-82.024 53.066-126.813 47.084 46.321-5.818 89.572-33.303 122.357-65.249 2.966-2.891 3.028-7.639.137-10.606-2.891-2.966-7.639-3.027-10.606-.137-34.261 33.385-72.198 53.906-112.755 60.994-16.86 2.231-30.241 1.092-40.816-3.439-1.335-.593-11.178-5.125-13.58-10.616-.032-.098-.07-.201-.099-.296 13.803-5.147 25.305-9.204 35.579-12.827 35.593-12.552 57.076-20.128 107.388-49.963 21.203-12.574 49.509-36.117 69.722-55.302-5.11 13.723-12.054 26.274-18.738 37.409-2.132 3.552-.98 8.159 2.571 10.291 3.392 2.035 8.257.817 10.291-2.571 6.952-11.583 14.745-25.688 20.446-41.435-1.711 36.023-18.923 72.331-45.084 96.663zm177.675-190.57c-4.977 10.479-17.987 12.856-28.427 11.067 2.497-12.71 20.738-23.695 34.584-29.972-1.701 8.313-4.124 14.625-6.157 18.905zm56.501-9.712c-8.171-11.699-17.42-19.377-25.84-24.921 2.743-3.822 4.538-6.904 5.672-9.131 17.205-4.085 31.38-1.25 38.843 1.056-3.766 11.474-9.932 22.369-18.675 32.996z"/></g></g></svg>