<svg id="Layer_1" enable-background="new 0 0 512 512" height="512" viewBox="0 0 512 512" width="512" xmlns="http://www.w3.org/2000/svg"><g><g><g><g><g><path d="m215.917 60.587h76.855c116.934 0 211.728 95.794 211.728 213.962v21.842c0 51.97-41.69 94.1-93.117 94.1h-84.229z" fill="#e5646e"/><path d="m292.772 60.587h-30c116.934 0 211.728 95.794 211.728 213.962v21.842c0 51.97-41.69 94.099-93.117 94.099h30c51.427 0 93.117-42.13 93.117-94.099v-21.842c0-118.168-94.794-213.962-211.728-213.962z" fill="#da6966"/><path d="m347.154 390.491h-262.474c-42.625 0-77.18-34.555-77.18-77.18v-44.306c0-115.105 93.311-208.417 208.417-208.417 115.105 0 208.417 93.311 208.417 208.417v44.306c0 42.625-34.555 77.18-77.18 77.18z" fill="#ffd8d5"/></g><g><path d="m72.003 176.994 15.161-20.186c-5.52 6.337-10.591 13.081-15.161 20.186z" fill="#ffd8d5"/><path d="m186.073 226.842c-5.788 25.29-.494 40.041 8.634 53.248l.412.362c20.404 18.073 61.264 30.254 95.381-11.457 14.482-17.705 45.804-63.128 89.042-47.054l.57.357c-21.236-71.511-86.268-124.213-163.709-124.431-51.433-.145-97.681 22.713-129.238 58.94 50.558-38.002 111.1 16.762 98.908 70.035z" fill="#f4c3c6"/><path d="" fill="#ffd8d5"/><g><path d="m229.285 330.441c-9.684-23.014-24.478-35.737-34.578-50.351-9.128-13.207-14.422-27.958-8.634-53.248 12.193-53.273-48.35-108.037-98.908-70.035l-15.161 20.186c-17.457 27.14-27.613 59.497-27.613 94.209v4.014c0 20.589-16.516 37.279-36.89 37.279v.814c0 42.625 34.555 77.18 77.18 77.18h127.606c4.77-3.955 30.716-27.446 16.998-60.048z" fill="#f291b9"/><path d="m387.444 275.217v-2.335c0-17.556-2.569-34.542-7.333-50.584l-.57-.357c-43.238-16.074-74.56 29.349-89.042 47.054-34.117 41.711-74.977 29.531-95.381 11.457l-.412-.362c10.1 14.614 24.895 27.338 34.578 50.351 13.718 32.602-12.228 56.093-16.999 60.049h134.868c42.625 0 77.18-34.555 77.18-77.18v-.814c-20.373 0-36.889-16.69-36.889-37.279z" fill="#ffd8d5"/></g><path d="m215.917 60.587c-115.106 0-208.417 93.311-208.417 208.417v43.492c20.374 0 36.89-16.69 36.89-37.279v-4.014c0-34.712 10.156-67.069 27.613-94.209l-.049.065.049-.065c4.57-7.104 9.641-13.849 15.161-20.186 31.557-36.227 77.805-59.085 129.238-58.94 77.441.218 142.474 52.92 163.709 124.431l16.336 10.232-16.336-10.232c4.764 16.043 7.333 33.028 7.333 50.584v2.335c0 20.589 16.516 37.279 36.89 37.279v-43.492c0-115.107-93.311-208.418-208.417-208.418z" fill="#f2f2f2"/></g></g><path d="m499.776 424.957c-2.869-2.773-6.703-4.323-10.693-4.323h-36.943c-.046-.698-.115-55.415-.115-55.415-.022-16.076-13.598-28.083-28.752-29.587-.508-.015-246.429 0-246.429 0-16.152.769-26.225 15.165-26.501 30.468v26.734h-40.025c-16.884 0-30.571 13.687-30.571 30.571 0 15.464 12.536 28.001 28.001 28.001h381.336c13.833 0 20.639-16.835 10.692-26.449z" fill="#e5646e"/><g><g><g><g fill="#ffd8d5"><path d=""/><path d=""/><path d="m480.535 451.413c-15.25-1.251-28.451-15.523-28.475-32.477l-.035-53.71c-.03-21.621-22.467-35.923-42.079-26.822-10.21 4.738-16.851 14.853-17.139 26.105v57.902c0 16.017-12.985 29.002-29.002 29.002-16.013 0-28.995-12.977-29.002-28.99l-.024-57.197c-.03-21.621-22.467-35.923-42.079-26.822-10.21 4.738-16.851 14.853-17.139 26.105v45.701c0 22.756-18.447 41.203-41.203 41.203h249.309"/></g><g fill="#f4c3c6"><path d="m334.803 422.423-.024-57.197c-.03-21.621-22.467-35.923-42.079-26.822-.874.405-1.711.864-2.531 1.345 8.547 5.033 14.594 14.265 14.61 25.476l.024 57.197c.007 16.013 12.989 28.99 29.002 28.99 5.49 0 10.623-1.526 15-4.176-8.389-5.079-13.998-14.29-14.002-24.813z"/><path d="m452.06 418.936-.036-53.71c-.03-21.621-22.467-35.923-42.079-26.822-.874.405-1.711.864-2.531 1.345 8.547 5.033 14.594 14.265 14.61 25.476l.036 53.71c.023 16.954 13.225 31.226 28.475 32.477h3.132 26.868c-15.25-1.25-28.452-15.522-28.475-32.476z"/></g></g><path d="m79.746 423.412c0-16.884 13.687-30.571 30.571-30.571h64.076c16.884 0 30.571 13.687 30.571 30.571 0 15.464 12.536 28.001 28.001 28.001h-125.218c-15.464 0-28.001-12.536-28.001-28.001z" fill="#ffd8d5"/><path d="m204.965 423.412c0-16.884-13.687-30.571-30.571-30.571h-30c16.884 0 30.571 13.687 30.571 30.571 0 15.464 12.536 28 28 28h30c-15.464.001-28-12.535-28-28z" fill="#f4c3c6"/></g></g></g></g><g><path d="m512 296.391v-21.842c0-59.14-22.794-114.744-64.183-156.569-41.409-41.847-96.473-64.893-155.045-64.893h-76.855c-55.406 0-108.082 20.956-148.322 59.006-7.046 6.663 3.261 17.563 10.307 10.899 37.443-35.406 86.458-54.905 138.016-54.905 110.786 0 200.917 90.131 200.917 200.917v35.006c-13.857-3.709-22.602-17.052-21.89-31.127 0-100.362-80.084-182.238-178.521-182.516-.172 0-.339 0-.511 0-47.314 0-91.941 18.525-125.706 52.195-34.383 34.285-53.317 79.971-53.317 128.641 1.009 14.65-7.205 28.876-21.89 32.807v-35.006c0-43.791 13.838-85.406 40.017-120.348 5.816-7.76-6.191-16.756-12.004-8.994-28.14 37.557-43.013 82.283-43.013 129.342v44.307c0 45.814 36.577 83.22 82.058 84.614-20.359 22.557-6.064 60.989 25.689 60.989h381.336c29.482 0 29.254-45.78 0-45.78h-29.477c-.018-6.65-.037-16.998-.053-27.564 31.225-17.267 52.447-50.766 52.447-89.179zm-67.599 66.621c.079.738.121 1.477.124 2.219l.036 53.715c.013 9.269 3.293 18.015 8.684 24.96h-59.964c4.412-6.034 7.025-13.463 7.025-21.495v-7.277c0-9.697-15-9.697-15 0v7.277c0 11.808-9.568 21.416-21.357 21.495h-.289c-11.785-.079-21.353-9.684-21.357-21.486l-.023-57.204c-.011-8.12-2.637-15.808-7.318-22.091h57.63c-4.467 6.007-7.081 13.341-7.283 21.191-.001.064-.002.128-.002.192v15.492c0 9.697 15 9.697 15 0v-15.389c.79-26.743 41.442-27.838 44.094-1.599zm16.946 65.129h27.736c9.713 0 10.503 15.765 0 15.765h-8.269c-8.584-.853-16.149-7.354-19.467-15.765zm-178.285-63.529c.248-8.425 5.145-15.854 12.796-19.405 6.878-3.191 14.802-2.664 21.195 1.412 6.394 4.075 10.216 11.035 10.227 18.61l.023 57.197c.003 8.025 2.617 15.449 7.027 21.479h-64.857c8.406-8.756 13.589-20.628 13.589-33.696zm-125.219 1.568c.289-14.457 9.84-22.509 19.195-23.041h98.298c-4.46 6.004-7.071 13.333-7.272 21.178-.002.064-.003.128-.003.192v45.701c0 18.487-14.964 33.539-33.415 33.696-11.656.359-22.182-8.286-22.182-20.494 0-20.993-17.079-38.071-38.071-38.071h-16.551v-19.161zm-47.526 34.161h64.076c12.722 0 23.071 10.35 23.071 23.071 0 7.628 2.417 14.7 6.527 20.494h-96.245c-28.506 0-24.872-43.565 2.571-43.565zm306.243-81.047c-.256 2.999-.699 5.944-1.325 8.823h-102.29c-.054 0-.107.007-.161.008-21.147 0-46.345.001-76.354.003-.082-.199-.149-.396-.233-.596-4.13-9.815-9.119-17.845-14.239-24.873 5.35 1.297 10.795 1.976 16.183 1.976 1.689 0 3.374-.066 5.047-.201 19.614-1.575 37.981-12.188 53.116-30.692 1.159-1.417 2.424-3.009 3.793-4.73 19.727-24.819 43.25-50.302 73.837-41.051 3.91 14.305 6.009 29.369 6.009 44.92v2.334c.001 22.017 15.836 40.359 36.617 44.079zm-200.645-213.928h.466c68.995.194 128.148 44.219 152.14 106.139-37.982-4.882-65.955 30.297-80.164 48.174-16.237 20.41-37.56 35.05-64.624 27.846-28.509-7.588-36.491-32.174-30.348-59.01 10.133-44.269-26.532-94.143-73.413-91.76 27.791-20.383 61.069-31.389 95.943-31.389zm-200.641 213.928c23.124-4.14 37.487-25.367 36.615-48.091 0-40.42 14.231-78.592 40.32-108.793 42.417-31.208 97.476 15.025 86.553 62.759-8.631 37.705 5.662 55.007 20.794 73.326 7.166 8.675 14.545 17.611 20.438 29.635-13.472.001-27.835.001-43.151.002-.119 0-.238.003-.356.008-18.807.896-33.271 17.156-33.644 37.824-.001.045-.001.09-.001.135v.007 16.884h-58.162c-36.405.001-66.359-28.067-69.406-63.696zm444.254 48.67c-.024-18.174-10.469-34.832-29.177-38.954 3.641-19.333 1.483-40.437 1.483-60.006 0-57.673-22.459-111.895-63.24-152.676-21.238-21.237-46.125-37.492-73.241-48.208 111.425 1.404 201.647 93.458 201.647 206.429v21.842c0 29.708-14.869 55.968-37.472 71.573z" fill="#060606"/></g></g></svg>