<?xml version="1.0" encoding="UTF-8"?>
<svg xmlns="http://www.w3.org/2000/svg" id="Layer_1" data-name="Layer 1" viewBox="0 0 64 64" width="512" height="512"><defs><style>.cls-1{fill:#a0d177;}.cls-2{fill:#89c458;}.cls-3{fill:#d8ebc8;}</style></defs><path class="cls-1" d="M9.5,14.575c2.1-.494,6.729-4.072,8.451-4.839C20.816,8.459,22.88,5.2,26.22,4.611c3.179-.557,6.815,1.673,10.27,1.846,2.909.145,6.48-1.25,9.007-.171C48.275,7.472,52.05,13.854,54.486,15L30.423,31.465H18.664Z"/><path class="cls-1" d="M25.746,32l.836-2a2.584,2.584,0,0,1,1.423-1.4l2.77-1.108a2.581,2.581,0,0,0,1.545-1.77l.284-1.135a2.58,2.58,0,0,1,2-1.905l2.632-.527a2.556,2.556,0,0,0,.717-.26l-1.612-4.341a1.657,1.657,0,0,0-1.554-1.08H32.256a7.4,7.4,0,0,1-4.427,1.395c-2.737,0-6.194-1.605-8.426-1.326s-3.621,4.032-3.621,4.032l-7.928,11.7L21.413,36.72l3.9-.976A29.467,29.467,0,0,1,25.746,32Z"/><path class="cls-2" d="M36.339,17.552a1.657,1.657,0,0,0-1.554-1.08H32.256a7.4,7.4,0,0,1-4.427,1.395c-2.737,0-6.194-1.605-8.426-1.326a3.605,3.605,0,0,0-2.236,1.542l-.006.007a9.184,9.184,0,0,0-.747,1.147h0a11.245,11.245,0,0,0-.588,1.225l-.009.021-.035.09-2.057,3.034h0L17.992,35.6l3.421,1.123,4.173,7.6,1.077.545c-.267-3.59-1.1-11.839-.917-12.862l.836-2a2.584,2.584,0,0,1,1.423-1.4l2.77-1.108a2.581,2.581,0,0,0,1.545-1.77l.284-1.135a2.58,2.58,0,0,1,2-1.905l2.632-.527a2.556,2.556,0,0,0,.717-.26ZM30.78,21.893a28.165,28.165,0,0,0-5.664,5.9.789.789,0,0,1-1.389-.26,40.294,40.294,0,0,0-3.062-6.766A1.156,1.156,0,0,1,21.9,19.072a36.9,36.9,0,0,0,5.926.8,7.783,7.783,0,0,0,3.44-.793,5.929,5.929,0,0,1,2.624-.6h.892a1.656,1.656,0,0,1,1.554,1.08h0A1,1,0,0,1,35.252,20.9,5.924,5.924,0,0,0,30.78,21.893Z"/><path class="cls-2" d="M14.134,23.114c1.64-.381,2.9-1.117,1.648-2.541-1.344-1.528-2.462-4.741-3.23-7.49A12.61,12.61,0,0,1,9.5,14.575Z"/><path class="cls-1" d="M45.5,6.286a4.782,4.782,0,0,0-.881-.27c-2.433-.513-5.54.57-8.126.441-3.455-.173-7.091-2.4-10.27-1.846-3.34.585-5.4,3.848-8.269,5.125l3.761-.169a1.656,1.656,0,0,1,1.711,1.395,1.659,1.659,0,0,0,1.73,1.395l1.389-.079a3.742,3.742,0,0,1,3.486,1.928l.777,1.409a1.66,1.66,0,0,0,1.451.857h2.529a1.657,1.657,0,0,1,1.554,1.08l1.612,4.341a2.562,2.562,0,0,0,.6-.446L40.7,19.3a2.582,2.582,0,0,1,.671-.483l.563-.282a2.583,2.583,0,0,0,1.35-1.683l.424-1.7a2.583,2.583,0,0,1,1.35-1.683l1.511-.756a2.583,2.583,0,0,1,2.7.244l2.036,1.527A2.579,2.579,0,0,0,52.86,15h1.626C52.05,13.854,48.275,7.472,45.5,6.286Z"/><path class="cls-2" d="M26.22,7.089c3.179-.557,6.815,1.673,10.27,1.846,2.586.129,5.693-.954,8.126-.441a4.782,4.782,0,0,1,.881.27c1.7.725,3.772,3.4,5.683,5.621l.132.1A2.579,2.579,0,0,0,52.86,15h1.626C52.05,13.854,48.275,7.472,45.5,6.286a4.782,4.782,0,0,0-.881-.27c-2.433-.513-5.54.57-8.126.441-3.455-.173-7.091-2.4-10.27-1.846-3.34.585-5.4,3.848-8.269,5.125l3.743-.169A10.018,10.018,0,0,1,26.22,7.089Z"/><path class="cls-2" d="M51.172,11.9A11.63,11.63,0,0,0,45,11c-5,1-5,5-6,6-.473.473-1.394-.173-2.233-.985a2.5,2.5,0,0,0-3.642.173l-.244.284h1.9a1.656,1.656,0,0,1,1.554,1.08l1.612,4.341a2.562,2.562,0,0,0,.6-.446L40.7,19.3a2.577,2.577,0,0,1,.67-.483l.564-.282a2.583,2.583,0,0,0,1.35-1.683l.424-1.7a2.583,2.583,0,0,1,1.35-1.683l1.511-.756a2.583,2.583,0,0,1,2.7.244l2.036,1.527A2.579,2.579,0,0,0,52.86,15h1.626A12.894,12.894,0,0,1,51.172,11.9Z"/><path class="cls-1" d="M24.958,37.071a46.932,46.932,0,0,1-4.561-10.1,14.429,14.429,0,0,0-2.232-4.738c-1.383-1.627-3.648-1.841-5.013-3.383C11.626,17.123,10.137,14.54,8.5,14a2.378,2.378,0,0,0-2.839,1.73c-.552,2.1,1.217,3.1.348,5.209A26.058,26.058,0,0,0,4,30.5C4,43.466,14.626,54.172,28.381,55.789L36.218,56Z"/><path class="cls-3" d="M36.218,56,27.5,41.349c-6.408-3.159-13.034-2.838-15.733,1.118a7.167,7.167,0,0,0-1.147,4.492,28.787,28.787,0,0,0,17.759,8.83Z"/><path class="cls-1" d="M23.311,54.748l1.1,1.462A2.965,2.965,0,0,1,25,57.987v.052A2.961,2.961,0,0,0,27.961,61h6.673a3.922,3.922,0,0,0,1.878-.449c1.9-1.039,1.214-2.749,1.926-4.137.611-1.19,1.777-1.49,2.948-1.912a37.446,37.446,0,0,0,4-1.6,28.276,28.276,0,0,0,5.148-3.287,25.868,25.868,0,0,0,7.3-9.253A23.612,23.612,0,0,0,60,30.5,23.158,23.158,0,0,0,58.707,23L58,21l-.868-2.6A2.572,2.572,0,0,1,57,17.644,2.586,2.586,0,0,0,54.486,15H52.86a2.579,2.579,0,0,1-1.548-.516l-2.036-1.527a2.583,2.583,0,0,0-2.7-.244l-1.511.756a2.583,2.583,0,0,0-1.35,1.683l-.424,1.7a2.583,2.583,0,0,1-1.35,1.683l-.563.282a2.582,2.582,0,0,0-.671.483l-2.151,2.151a2.582,2.582,0,0,1-1.319.706L34.6,22.68a2.58,2.58,0,0,0-2,1.905L32.32,25.72a2.581,2.581,0,0,1-1.545,1.77L28.005,28.6A2.584,2.584,0,0,0,26.582,30l-.836,2a29.34,29.34,0,0,0,3.521,20.035A9.562,9.562,0,0,0,33.774,56h0"/><path class="cls-3" d="M46,42c-3.164,5.423-10.207,8.186-16.978,9.592.083.147.16.3.245.443A9.562,9.562,0,0,0,33.774,56L23.311,54.748l1.1,1.462A2.965,2.965,0,0,1,25,57.987v.052A2.961,2.961,0,0,0,27.961,61h6.673a3.922,3.922,0,0,0,1.878-.449c1.905-1.039,1.214-2.749,1.926-4.137.611-1.19,1.777-1.49,2.948-1.912a37.446,37.446,0,0,0,4-1.6A28.287,28.287,0,0,0,48.9,50.821C50.838,42.927,50.352,34.539,46,42Z"/><path d="M56.414,29.59a1,1,0,0,0-1.325.5c-.878,1.935-3.636,3.513-5.6,4.389a33.144,33.144,0,0,0-.507-9.951,1,1,0,1,0-1.958.4,31.094,31.094,0,0,1,.27,10.976c0,.022-.009.043-.011.065-.058.371-.113.742-.185,1.11-3.321-2.494-7.706-6.259-8.177-8.04a1,1,0,1,0-1.933.512c.794,3,7.517,8.115,9.613,9.649a30.781,30.781,0,0,1-2.017,5.4h0c-.1.2-.192.412-.3.614-5.827-4.19-11.72-9.206-12.026-10.817a1,1,0,0,0-1.965.373c.579,3.053,9.78,9.886,13.015,12.206a31.507,31.507,0,0,1-2.985,4.191,1,1,0,0,0,1.529,1.291,33.311,33.311,0,0,0,4.377-6.673c1.567-.633,7.021-2.94,8.788-5.059a1,1,0,1,0-1.536-1.282c-.975,1.17-3.819,2.634-6.059,3.649a32.6,32.6,0,0,0,1.751-6.332c1.643-.625,6.273-2.63,7.736-5.851A1,1,0,0,0,56.414,29.59Z"/><path d="M58.081,18.081A1.573,1.573,0,0,1,58,17.62a3.6,3.6,0,0,0-3.194-3.587,18.922,18.922,0,0,1-3.694-3.751c-1.745-2.065-3.549-4.2-5.223-4.917a5.789,5.789,0,0,0-.932-.293c-.032-.011-.066-.013-.1-.021a14.426,14.426,0,0,0-4.964.13,18.366,18.366,0,0,1-3.354.277,18.932,18.932,0,0,1-4.274-.939c-2.053-.615-4.177-1.248-6.219-.893-2.216.389-3.852,1.746-5.434,3.059a14.134,14.134,0,0,1-3.069,2.138l-.018.009-.011.006a29.042,29.042,0,0,0-3.121,1.887,31.791,31.791,0,0,1-4.73,2.749,3.794,3.794,0,0,0-.851-.423,3.08,3.08,0,0,0-2.41.269,3.48,3.48,0,0,0-1.709,2.155,4.886,4.886,0,0,0,.269,3.051,2.5,2.5,0,0,1,.121,2.032A27.194,27.194,0,0,0,3,30.5c0,11.515,8.156,21.53,19.7,25.1l.9,1.207A2.008,2.008,0,0,1,24,58.039,3.966,3.966,0,0,0,27.961,62h6.673a4.937,4.937,0,0,0,2.357-.57,3.942,3.942,0,0,0,2.033-3.338,3.954,3.954,0,0,1,.3-1.221c.35-.683.972-.929,2.041-1.3l.691-.246A35.1,35.1,0,0,0,45.828,53.8a29.356,29.356,0,0,0,5.33-3.4,26.927,26.927,0,0,0,7.578-9.613A24.729,24.729,0,0,0,61,30.5a24.093,24.093,0,0,0-1.35-7.833ZM26.393,5.6c1.58-.28,3.386.265,5.3.838A20.432,20.432,0,0,0,36.44,7.456a13.628,13.628,0,0,0,2.067-.084,39.617,39.617,0,0,0-4.8,3.415A1,1,0,0,0,35,12.311c.057-.049,5.748-4.846,9.585-5.28a3.553,3.553,0,0,1,.519.174c1.237.528,2.96,2.568,4.48,4.368.29.343.575.679.859,1.009l-.567-.425a3.56,3.56,0,0,0-3.75-.338l-1.511.755a3.581,3.581,0,0,0-1.873,2.335l-.424,1.7a1.577,1.577,0,0,1-.827,1.032l-.564.281a3.564,3.564,0,0,0-.93.671L38.388,20.2l-1.112-3a2.667,2.667,0,0,0-2.491-1.731H32.256a.656.656,0,0,1-.575-.34L30.9,13.724a4.77,4.77,0,0,0-4.417-2.444l-1.389.078a.675.675,0,0,1-.686-.553,2.665,2.665,0,0,0-2.744-2.238l-.208.01.431-.353C23.335,7.025,24.7,5.893,26.393,5.6ZM15.486,12.4c1.09-.71,2.106-1.369,2.726-1.673l3.546-.161a.639.639,0,0,1,.678.554,2.653,2.653,0,0,0,2.773,2.235l1.39-.078a2.742,2.742,0,0,1,2.553,1.413l.778,1.41a2.611,2.611,0,0,0,.256.345,6.774,6.774,0,0,1-2.357.423,17.75,17.75,0,0,1-3.934-.681,13.658,13.658,0,0,0-4.616-.637C17.29,15.8,15.951,17.888,15.3,19.2A4.951,4.951,0,0,1,13.9,18.185c-.417-.471-.832-1.011-1.271-1.583s-.88-1.145-1.339-1.667A45.5,45.5,0,0,0,15.486,12.4ZM56.92,39.945a24.927,24.927,0,0,1-7.015,8.893,27.373,27.373,0,0,1-4.967,3.171,33.213,33.213,0,0,1-3.554,1.431l-.676.241a4.9,4.9,0,0,0-3.16,2.277,5.7,5.7,0,0,0-.5,1.842c-.143.971-.245,1.455-1.012,1.874a2.934,2.934,0,0,1-1.4.326H27.961A1.975,1.975,0,0,1,26,57.987a3.969,3.969,0,0,0-.364-1.628c.642.132,1.3.237,1.954.329.018,0,.034.009.052.012.034.006.067.007.1.01.174.023.347.052.522.072a.934.934,0,0,0,.118.007A1,1,0,0,0,28.5,54.8c-.187-.022-.37-.052-.556-.077a19.234,19.234,0,0,1-12.412-8.507c.523-1.735,2.117-7.435,1.447-10.4a1,1,0,0,0-1.952.439c.4,1.767-.281,5.17-.919,7.633a34.25,34.25,0,0,1-3.612-10.737,1,1,0,0,0-1.986.241A36.129,36.129,0,0,0,13.49,46.742a.994.994,0,0,0,.29.443,25.361,25.361,0,0,0,2.622,3.3C9.47,46.013,5,38.663,5,30.5a25.116,25.116,0,0,1,1.933-9.179,4.419,4.419,0,0,0-.078-3.444,3.007,3.007,0,0,1-.227-1.893,1.469,1.469,0,0,1,.729-.906,1.1,1.1,0,0,1,.83-.129c.872.288,1.927,1.66,2.857,2.871.441.574.9,1.167,1.359,1.691a8.378,8.378,0,0,0,2.749,1.865,6.715,6.715,0,0,1,2.251,1.5C19,24.752,20.135,29.6,20.44,31.307a1,1,0,0,0,1.969-.35c-.049-.272-1.212-6.705-3.482-9.374a6.6,6.6,0,0,0-1.854-1.455c.517-1.037,1.441-2.468,2.453-2.595a12.423,12.423,0,0,1,3.889.594,19.1,19.1,0,0,0,4.414.74,8.591,8.591,0,0,0,4.746-1.395h2.21a.659.659,0,0,1,.616.427l1.245,3.352-2.24.448a3.6,3.6,0,0,0-2.772,2.644l-.284,1.134a1.585,1.585,0,0,1-.947,1.085l-2.77,1.108a3.6,3.6,0,0,0-1.973,1.943l-.837,2a1.08,1.08,0,0,0-.061.206,30.337,30.337,0,0,0-.355,8.252,9.651,9.651,0,0,1-1.192-6.091,1,1,0,1,0-1.982-.265,11.636,11.636,0,0,0,2.944,9.412l.882.967A30.305,30.305,0,0,0,28.4,52.538a10.623,10.623,0,0,0,4.977,4.382,1,1,0,0,0,.786-1.84,8.6,8.6,0,0,1-4.036-3.55,28.345,28.345,0,0,1-3.42-19.245l.794-1.9a1.6,1.6,0,0,1,.871-.859l2.77-1.107a3.6,3.6,0,0,0,2.145-2.457l.283-1.135A1.589,1.589,0,0,1,34.8,23.66l2.632-.526a3.571,3.571,0,0,0,1.83-.98L41.411,20a1.577,1.577,0,0,1,.41-.3l.564-.281a3.581,3.581,0,0,0,1.873-2.335l.424-1.7a1.577,1.577,0,0,1,.827-1.032l1.512-.755a1.572,1.572,0,0,1,1.655.149l2.034,1.525A3.6,3.6,0,0,0,52.86,16h1.626A1.6,1.6,0,0,1,56,17.667a3.56,3.56,0,0,0,.183,1.047l1.577,4.61A22.105,22.105,0,0,1,59,30.5,22.708,22.708,0,0,1,56.92,39.945Z"/></svg>
