<?xml version="1.0" encoding="iso-8859-1"?>
<!-- Generator: Adobe Illustrator 19.0.0, SVG Export Plug-In . SVG Version: 6.00 Build 0)  -->
<svg version="1.1" id="Capa_1" xmlns="http://www.w3.org/2000/svg" xmlns:xlink="http://www.w3.org/1999/xlink" x="0px" y="0px"
	 viewBox="0 0 512 512" style="enable-background:new 0 0 512 512;" xml:space="preserve">
<path style="fill:#E39B78;" d="M202.222,366.66h-62.317c-9.892,0-18.203-7.438-19.295-17.27l-15.1-135.898
	c-1.278-11.5,7.724-21.558,19.295-21.558h92.517c11.571,0,20.573,10.058,19.295,21.558l-15.1,135.898
	C220.425,359.222,212.115,366.66,202.222,366.66z"/>
<path style="fill:#FFBF98;" d="M256.971,250.176H85.156c-42.888,0-77.656-34.768-77.656-77.656v-1.456
	C7.5,80.73,80.73,7.5,171.063,7.5l0,0c90.334,0,163.563,73.23,163.563,163.563v1.456
	C334.627,215.408,299.859,250.176,256.971,250.176z"/>
<path style="fill:#FFD3AD;" d="M171.064,7.5c80.81,0,147.924,58.607,161.178,135.633c-8.529,33.627-38.992,58.507-75.271,58.507
	H85.156c-36.279,0-66.742-24.88-75.271-58.507C23.139,66.107,90.253,7.5,171.064,7.5L171.064,7.5z"/>
<path style="fill:#FFF1BA;" d="M504.5,308.903v1.456c0,42.888-34.768,77.656-77.656,77.656h-24.429l-11.024,99.214
	c-1.092,9.832-9.403,17.27-19.295,17.27h-62.317c-9.892,0-18.203-7.438-19.295-17.27l-11.024-99.214h-24.429
	c-42.888,0-77.656-34.768-77.656-77.656v-1.456c0-90.334,73.23-163.563,163.563-163.563l0,0
	C431.27,145.34,504.5,218.57,504.5,308.903z"/>
<path style="fill:#FFEEB6;" d="M504.5,308.903v1.456c0,42.888-34.768,77.656-77.656,77.656h-24.429l-11.024,99.214
	c-1.092,9.832-9.403,17.27-19.295,17.27H321.28l0,0c-4.215-67.438,11.216-134.588,44.074-193.63
	c13.201-23.72,20.721-51.035,20.721-80.109c0-30.641-8.361-59.325-22.912-83.913C442.981,157.694,504.5,226.109,504.5,308.903z"/>
<path style="fill:#E39B78;" d="M462.597,357.924v7.766c0,5.767-1.625,11.154-4.439,15.732c-9.581,4.228-20.169,6.594-31.315,6.594
	h-24.429v0.006v-30.097c0-16.62,13.473-30.092,30.092-30.092l0,0C449.125,327.832,462.597,341.304,462.597,357.924z
	 M249.367,327.832L249.367,327.832c-16.619,0-30.092,13.472-30.092,30.092v7.766c0,5.767,1.625,11.154,4.438,15.731
	c9.581,4.229,20.17,6.595,31.316,6.595h24.429v-30.092C279.459,341.304,265.986,327.832,249.367,327.832z"/>
<path d="M340.937,137.84c-0.68,0-1.357,0.018-2.035,0.025c-8.579-43.48-34.321-82.637-71.084-107.894
	c-3.414-2.346-8.083-1.479-10.429,1.935s-1.479,8.083,1.935,10.429c32.964,22.647,56.208,57.532,64.43,96.364
	c-63.412,6.354-116.725,47.481-140.536,103.977h-98.06C46.472,242.676,15,211.204,15,172.52v-0.229
	c15.535,22.572,41.467,36.85,70.156,36.85H180c4.143,0,7.5-3.357,7.5-7.5s-3.357-7.5-7.5-7.5H85.156
	c-31.621,0-59.179-21.036-67.585-51.342C30.909,70.191,94.659,15,171.063,15c22.979,0,45.108,4.876,65.771,14.493
	c3.757,1.747,8.217,0.119,9.965-3.635c1.748-3.756,0.12-8.217-3.635-9.965C220.505,5.348,196.246,0,171.063,0
	C86.755,0,16.505,61.309,2.534,141.682c-0.033,0.168-0.063,0.337-0.084,0.508C0.846,151.579,0,161.224,0,171.063v1.456
	c0,46.955,38.201,85.156,85.156,85.156h17.716l10.283,92.542c1.517,13.649,13.017,23.942,26.749,23.942h58.813
	c6.372,5.631,13.589,10.317,21.436,13.855c0.307,0.165,0.624,0.309,0.949,0.43c10.403,4.537,21.873,7.07,33.927,7.07h17.717
	l10.282,92.542C284.545,501.707,296.045,512,309.777,512h62.318c13.732,0,25.232-10.293,26.749-23.942l10.282-92.542h17.717
	c12.046,0,23.507-2.529,33.903-7.06c0.342-0.126,0.674-0.276,0.996-0.451C491.339,374.649,512,344.881,512,310.359v-1.456
	C512,214.578,435.262,137.84,340.937,137.84z M128.063,348.562l-10.099-90.886h59.747c-5.089,16.181-7.838,33.389-7.838,51.228
	v1.456c0,18.146,5.723,34.97,15.433,48.801h-45.402C133.825,359.16,128.735,354.604,128.063,348.562z M229.028,375.5
	c-1.471-3.046-2.253-6.393-2.253-9.811v-7.766c0-12.457,10.135-22.592,22.592-22.592c12.457,0,22.592,10.135,22.592,22.592v22.592
	h-16.93C245.844,380.516,237.075,378.724,229.028,375.5z M409.914,380.516v-22.592c0-12.457,10.135-22.592,22.592-22.592
	s22.592,10.135,22.592,22.592v7.766c0,3.417-0.782,6.764-2.253,9.811c-8.047,3.224-16.816,5.016-26.001,5.016L409.914,380.516
	L409.914,380.516z M497,310.359c0,22.374-10.541,42.319-26.902,55.175v-7.61c0-20.729-16.863-37.592-37.592-37.592
	s-37.592,16.863-37.592,37.592v29.677l-10.978,98.801c-0.672,6.042-5.762,10.599-11.841,10.599h-62.318
	c-6.079,0-11.169-4.557-11.841-10.599l-10.978-98.801v-29.677c0-20.729-16.863-37.592-37.592-37.592s-37.592,16.863-37.592,37.592
	v7.61c-16.362-12.855-26.902-32.801-26.902-55.175v-1.456c0-86.054,70.01-156.063,156.063-156.063S497,222.85,497,308.903V310.359z"
	/>
<g>
</g>
<g>
</g>
<g>
</g>
<g>
</g>
<g>
</g>
<g>
</g>
<g>
</g>
<g>
</g>
<g>
</g>
<g>
</g>
<g>
</g>
<g>
</g>
<g>
</g>
<g>
</g>
<g>
</g>
</svg>
