<?xml version="1.0"?>
<svg xmlns="http://www.w3.org/2000/svg" viewBox="0 0 512 512" width="512" height="512"><g id="Filled_outline" data-name="Filled outline"><path d="M352,238.29c0,64.05-44.18,114.14-102.58,135.07a182.6,182.6,0,0,1-122.84,0c-45.03-16.14-81.6-49.61-95.99-93.45A133.051,133.051,0,0,1,24,238.29c0-61.65,42.56-114.85,97.11-139.56A73.573,73.573,0,0,0,154.8,68.2a70.465,70.465,0,0,0,7.11-17.7l.2-.79h51.78l.2.79a70.465,70.465,0,0,0,7.11,17.7,73.573,73.573,0,0,0,33.69,30.53A176.546,176.546,0,0,1,274.25,109C319.19,136.54,352,184.16,352,238.29Z" style="fill:#bf382e"/><path d="M352,238.29c0,64.05-44.18,114.14-102.58,135.07a182.6,182.6,0,0,1-122.84,0c-45.03-16.14-81.6-49.61-95.99-93.45A166.112,166.112,0,0,0,276.13,134.07,167.175,167.175,0,0,0,274.25,109C319.19,136.54,352,184.16,352,238.29Z" style="fill:#7eb457"/><path d="M352,238.29c0,64.05-44.18,114.14-102.58,135.07a182.6,182.6,0,0,1-122.84,0c-45.03-16.14-81.6-49.61-95.99-93.45A166.112,166.112,0,0,0,276.13,134.07,167.175,167.175,0,0,0,274.25,109C319.19,136.54,352,184.16,352,238.29Z" style="fill:#b53026"/><circle cx="188" cy="52" r="28" style="fill:#b53026"/><circle cx="188" cy="52" r="12" style="fill:#bf382e"/><path d="M488,328v25.26c-21.08,5.27-30.72,20.24-39.74,40C423.99,446.48,371.72,488,311.16,488c-41.61,0-77.22-18.84-102.52-48.08C183.04,410.34,168,370.11,168,328Z" style="fill:#e065a2"/><path d="M488,328v25.26c-21.08,5.27-30.72,20.24-39.74,40C423.99,446.48,371.72,488,311.16,488c-41.61,0-77.22-18.84-102.52-48.08C277.21,417.09,336.73,380.96,382.39,328Z" style="fill:#d95d9a"/><path d="M170.11,238.29c0-36.92,2.456-73.027,6.915-101.67.01-.068.02-.138.029-.207,2.281-14.578,5.026-26.694,7.942-35.053A84.476,84.476,0,0,0,188,89.5a84.611,84.611,0,0,0,3.006,11.866c10.281,29.473,14.884,90.007,14.884,136.925,0,23.95-.969,46.513-2.881,67.06l15.931,1.482c1.957-21.038,2.95-44.1,2.95-68.542,0-58.907-6.193-114.722-15.775-142.189-.337-.968-.667-2.074-.99-3.292a53.749,53.749,0,0,0,9.036,11.7c12.046,11.518,22.93,30.249,30.647,52.741,8.421,24.542,12.872,52.563,12.872,81.036,0,23.6-2.871,45.79-8.534,65.94l15.4,4.33c6.059-21.56,9.132-45.2,9.132-70.27,0-49.96-13.135-97.769-34.455-128.667,16.486,11.731,31.182,28.8,41.858,48.8A170.089,170.089,0,0,1,300.84,238.29a167.175,167.175,0,0,1-6.338,46.2,151.26,151.26,0,0,1-6.456,18.078l14.691,6.338a167.287,167.287,0,0,0,7.142-20,183.135,183.135,0,0,0,6.961-50.621,186.128,186.128,0,0,0-21.643-87.4,167.26,167.26,0,0,0-24.346-34.557,166.26,166.26,0,0,1,46.572,43.018C334.81,183.347,344,210.644,344,238.29A123.908,123.908,0,0,1,328.381,299l14,7.75A139.739,139.739,0,0,0,360,238.29c0-31.04-10.242-61.583-29.62-88.326a181.6,181.6,0,0,0-72.189-58.521,64.389,64.389,0,0,1-36.325-42.831,33.89,33.89,0,0,0-67.732,0A64.389,64.389,0,0,1,117.81,91.443a181.593,181.593,0,0,0-72.19,58.521C26.242,176.707,16,207.25,16,238.29c0,35.953,13.093,69.362,37.862,96.616,23.022,25.331,55.3,43.844,90.883,52.129l3.43-14.729,1.906-4.37C104.568,348.084,75.16,297.2,75.16,238.29a170.089,170.089,0,0,1,19.757-79.865c10.676-20,25.371-37.071,41.858-48.8-21.32,30.9-34.455,78.708-34.455,128.667,0,41.794,8.821,80.543,24.835,109.107l13.957-7.824c-14.7-26.214-22.792-62.183-22.792-101.283,0-28.473,4.451-56.494,12.872-81.036,7.717-22.492,18.6-41.223,30.646-52.741a53.543,53.543,0,0,0,8.907-11.489c.046-.077.091-.16.136-.238-.324,1.226-.656,2.338-.994,3.31-3.286,9.418-6.2,22.216-8.671,38.042-.011.07-.022.141-.03.213-4.563,29.4-7.076,66.3-7.076,103.939,0,23.474.917,45.706,2.725,66.08l15.937-1.414C171.006,283.05,170.11,261.293,170.11,238.29ZM188,32a17.715,17.715,0,1,1-17.9,17.714A17.825,17.825,0,0,1,188,32ZM80.8,150.891a186.128,186.128,0,0,0-21.643,87.4c0,45.39,16.058,86.594,43.1,115.025A151.742,151.742,0,0,1,65.7,324.145C43.654,299.886,32,270.2,32,238.29c0-27.646,9.19-54.943,26.577-78.938a166.26,166.26,0,0,1,46.572-43.018A167.26,167.26,0,0,0,80.8,150.891Z"/><path d="M488,320H269.053a8,8,0,0,0-8,8,41.732,41.732,0,0,0,41.684,41.685c16.867,0,29-9.068,40.731-17.837,1.974-1.476,4.016-3,6.026-4.44,6.666-4.765,12.129-9.063,15.041-11.408H389.2c-6.322,6.927-11.471,14.737-16.517,22.414-7.571,11.519-14.72,22.4-25.279,29.487a67.965,67.965,0,0,1-37.871,11.963,62.66,62.66,0,0,1-46.542-20.71A76.311,76.311,0,0,1,243.368,328H243v-8H168a8,8,0,0,0-8,8c0,42.889,15.35,85.388,42.113,116.6,28.42,33.145,67.147,51.4,109.045,51.4,30.515,0,60.541-10,86.834-28.917a177.58,177.58,0,0,0,57.55-70.5c9-19.734,17.151-31.246,34.4-35.56a8,8,0,0,0,6.06-7.76V328A8,8,0,0,0,488,320ZM333.888,339.032c-10.518,7.863-19.6,14.653-31.151,14.653A25.73,25.73,0,0,1,278.328,336h59.643C336.586,337.016,335.223,338.035,333.888,339.032ZM251.2,389.979a78.49,78.49,0,0,0,58.325,25.885,83.906,83.906,0,0,0,46.791-14.679c13.238-8.889,21.621-21.646,29.73-33.983,8.22-12.507,16.016-24.335,28.21-31.2H437.84c-12.159,11.426-21.322,25.361-30.28,38.991-11.391,17.332-22.151,33.7-38.373,44.6-17.833,11.975-37.9,18.306-58.029,18.306-27.272,0-52.669-11.295-71.51-31.8C222.366,387.28,211.775,362.1,209.964,336h17.767A92.254,92.254,0,0,0,251.2,389.979ZM480,347.352c-21.554,7.854-31.429,25.96-39.015,42.59A163.825,163.825,0,0,1,388.647,454.1C365.094,471.042,338.3,480,311.158,480c-37.154,0-71.566-16.271-96.9-45.814C191.6,407.764,177.951,372.359,176.193,336h17.745c1.842,30.073,13.971,59.193,33.927,80.915,21.907,23.847,51.489,36.98,83.293,36.98,23.319,0,46.469-7.27,66.948-21.023,18.9-12.694,31.064-31.2,42.825-49.094,12.6-19.164,24.533-37.272,43.851-47.778H480Z"/></g></svg>
