<?xml version="1.0" encoding="iso-8859-1"?>
<!-- Generator: Adobe Illustrator 19.0.0, SVG Export Plug-In . SVG Version: 6.00 Build 0)  -->
<svg version="1.1" id="Capa_1" xmlns="http://www.w3.org/2000/svg" xmlns:xlink="http://www.w3.org/1999/xlink" x="0px" y="0px"
	 viewBox="0 0 512 512" style="enable-background:new 0 0 512 512;" xml:space="preserve">
<g>
	<path style="fill:#FFD07D;" d="M349.904,70.799C288.91,78.862,142.13,96.341,153.58,182.958
		c21.974,166.211,377.016,233.467,346.543,2.978C490.438,112.671,423.169,61.112,349.904,70.799z"/>
	<path style="fill:#FFD07D;" d="M215.583,187.602c53.387,30.58,182.592,102.388,139.166,178.202
		C271.419,511.284-82.623,438.957,32.932,237.214C69.664,173.088,151.456,150.87,215.583,187.602z"/>
</g>
<path d="M510.034,184.626C505,146.545,485.433,112.7,454.938,89.327c-30.495-23.375-68.262-33.47-106.343-28.439l-3.822,0.504
	c-60.988,8.023-186.609,24.56-200.559,98.641c-48.11,1.702-94.319,27.457-119.956,72.213
	c-36.539,63.793-25.099,110.011-9.068,137.55c15.016,25.796,40.861,47.203,74.738,61.905
	c31.182,13.533,67.101,20.675,103.946,20.674c0.352,0,0.708,0,1.06-0.002c76.428-0.283,139.416-30.79,168.493-81.605
	c4.949-8.649,8.088-17.473,9.436-26.45c46.252-0.79,84.851-16.154,109.144-43.586C507.051,272.451,516.481,233.387,510.034,184.626z
	 M467.039,287.477c-20.456,23.099-53.744,36.036-94.113,36.835c-1.965-13.947-8.073-28.2-18.322-42.677
	c-14.758-20.847-37.591-41.596-69.8-63.432c-4.571-3.098-10.787-1.905-13.885,2.665c-3.098,4.57-1.904,10.786,2.665,13.885
	c69.149,46.879,93.538,89.3,72.489,126.085c-25.487,44.541-82.015,71.285-151.213,71.541c-0.328,0.002-0.645,0.002-0.973,0.002
	c-71.295-0.003-136.086-29.129-161.418-72.644c-19.19-32.966-16.03-73.615,9.138-117.554
	c33.939-59.252,109.755-79.847,169.009-45.907c4.79,2.742,10.899,1.085,13.643-3.706c2.744-4.791,1.085-10.9-3.706-13.644
	c-17.777-10.181-36.838-16.127-56.012-18.174c6.024-23.273,29.46-42.178,69.82-56.249c38.784-13.522,83.459-19.4,113.021-23.29
	l3.834-0.505c32.788-4.342,65.303,4.36,91.561,24.485c26.257,20.126,43.104,49.264,47.439,82.051
	C495.867,230.005,488.069,263.729,467.039,287.477z"/>
<path d="M247.11,194.305L247.11,194.305L247.11,194.305z"/>
<path d="M247.113,194.309l-5.2,8.535l5.197-8.537c-0.013-0.008-0.024-0.017-0.037-0.024c-4.711-2.841-10.837-1.341-13.7,3.364
	c-2.871,4.717-1.375,10.867,3.341,13.737c0.138,0.084,0.277,0.166,0.415,0.244c1.555,0.878,3.243,1.296,4.909,1.296
	c3.487,0,6.874-1.827,8.712-5.079C253.44,203.087,251.807,197.065,247.113,194.309z"/>
<rect x="247.111" y="194.307" width="0.004" height="0.002"/>
<path d="M454.335,146.572c-10.565-16.108-25.385-28.957-42.86-37.154c-17.959-8.425-37.89-11.498-57.641-8.888
	c-5.473,0.725-9.324,5.748-8.6,11.221c0.724,5.474,5.753,9.323,11.221,8.601c31.729-4.196,63.593,10.399,81.159,37.184
	c6.928,10.565,11.286,22.324,12.957,34.951c0.665,5.029,4.958,8.688,9.898,8.687c0.437,0,0.879-0.028,1.323-0.087
	c5.474-0.725,9.324-5.748,8.6-11.221C468.325,174.236,462.923,159.669,454.335,146.572z"/>
<path d="M404.621,216.203l-0.471,0.063c-5.473,0.728-9.32,5.753-8.594,11.226c0.668,5.026,4.961,8.682,9.897,8.682
	c0.438,0,0.882-0.028,1.329-0.088l0.471-0.063c5.473-0.728,9.32-5.753,8.594-11.226C415.12,219.324,410.096,215.473,404.621,216.203
	z"/>
<path d="M310.715,165.588l-0.471,0.063c-5.473,0.727-9.32,5.753-8.594,11.225c0.668,5.026,4.961,8.682,9.897,8.682
	c0.439,0,0.882-0.028,1.329-0.088l0.471-0.063c5.473-0.727,9.32-5.753,8.594-11.225C321.214,168.709,316.19,164.86,310.715,165.588z
	"/>
<path d="M204.383,227.268c2.744-4.791,1.086-10.9-3.706-13.644c-17.286-9.901-36.895-14.602-56.709-13.621
	c-19.277,0.965-37.861,7.236-53.745,18.139c-12.913,8.866-23.432,20.299-31.267,33.977c-2.744,4.791-1.086,10.9,3.706,13.644
	c1.567,0.897,3.274,1.324,4.959,1.324c3.467,0,6.837-1.806,8.684-5.029c6.33-11.051,14.82-20.282,25.235-27.432
	c26.409-18.128,61.423-19.561,89.2-3.651C195.532,233.716,201.64,232.059,204.383,227.268z"/>
<path d="M110.251,301.656l-0.412-0.236c-4.788-2.746-10.898-1.092-13.645,3.699c-2.747,4.789-1.091,10.899,3.699,13.645l0.412,0.236
	c1.568,0.899,3.277,1.327,4.963,1.327c3.465,0,6.834-1.804,8.681-5.025C116.696,310.512,115.04,304.402,110.251,301.656z"/>
<path d="M170.201,369.488l-0.412-0.236c-4.789-2.747-10.898-1.091-13.646,3.699c-2.746,4.789-1.091,10.899,3.699,13.645l0.412,0.236
	c1.567,0.899,3.277,1.327,4.963,1.327c3.465,0,6.834-1.804,8.681-5.025C176.647,378.343,174.99,372.234,170.201,369.488z"/>
<path d="M216.333,290.409l-0.412-0.236c-4.79-2.747-10.899-1.091-13.645,3.699c-2.746,4.789-1.091,10.899,3.699,13.645l0.412,0.236
	c1.568,0.899,3.277,1.327,4.963,1.327c3.465,0,6.834-1.804,8.681-5.025C222.779,299.265,221.123,293.155,216.333,290.409z"/>
<path d="M265.385,357.651c-2.746,4.789-1.091,10.899,3.699,13.645l0.412,0.236c1.567,0.899,3.277,1.327,4.963,1.327
	c3.465,0,6.834-1.804,8.681-5.025c2.746-4.789,1.091-10.899-3.699-13.645l-0.412-0.236
	C274.242,351.206,268.131,352.861,265.385,357.651z"/>
<g>
</g>
<g>
</g>
<g>
</g>
<g>
</g>
<g>
</g>
<g>
</g>
<g>
</g>
<g>
</g>
<g>
</g>
<g>
</g>
<g>
</g>
<g>
</g>
<g>
</g>
<g>
</g>
<g>
</g>
</svg>
