<?xml version="1.0" encoding="iso-8859-1"?>
<!-- Generator: Adobe Illustrator 19.0.0, SVG Export Plug-In . SVG Version: 6.00 Build 0)  -->
<svg xmlns="http://www.w3.org/2000/svg" xmlns:xlink="http://www.w3.org/1999/xlink" version="1.1" id="Layer_1" x="0px" y="0px" viewBox="0 0 511.921 511.921" style="enable-background:new 0 0 511.921 511.921;" xml:space="preserve" width="512" height="512">
<g id="XMLID_1921_">
	<path id="XMLID_2062_" style="fill:#FE8F8D;" d="M225.588,464.931l239.372-239.372c49.327-49.327,49.327-129.301,0-178.627l0,0   c-49.327-49.327-129.301-49.327-178.627,0L46.961,286.304"/>
	<circle id="XMLID_2061_" style="fill:#FFDFE0;" cx="136.274" cy="375.617" r="126.309"/>
	<circle id="XMLID_2049_" style="fill:#FE8F8D;" cx="136.274" cy="375.617" r="88.081"/>
	<g id="XMLID_1088_">
		<path id="XMLID_1089_" d="M136.275,491.931c-2.63,0-5.21,1.06-7.07,2.92c-1.86,1.87-2.93,4.439-2.93,7.08    c0,2.63,1.07,5.2,2.93,7.069c1.86,1.86,4.44,2.921,7.07,2.921c2.63,0,5.21-1.061,7.07-2.921c1.86-1.869,2.93-4.439,2.93-7.069    c0-2.641-1.07-5.21-2.93-7.08C141.485,492.991,138.905,491.931,136.275,491.931z"/>
		<path id="XMLID_1242_" d="M234.355,375.618c0-54.082-43.999-98.081-98.081-98.081s-98.081,43.999-98.081,98.081    s43.999,98.081,98.081,98.081S234.355,429.7,234.355,375.618z M58.193,375.618c0-15.595,4.614-30.125,12.522-42.33l13.603,13.603    c12.657,12.657,29.852,19.736,47.661,19.736c1.225,0,2.455-0.033,3.684-0.101c5.515-0.304,9.739-5.02,9.437-10.533    c-0.302-5.515-5.014-9.736-10.533-9.438c-13.427,0.753-26.593-4.295-36.105-13.808l-14.784-14.784    c13.888-12.681,32.354-20.427,52.597-20.427c43.054,0,78.081,35.027,78.081,78.081s-35.027,78.081-78.081,78.081    S58.193,418.671,58.193,375.618z"/>
		<path id="XMLID_1435_" d="M472.032,39.86c-53.147-53.146-139.623-53.146-192.77,0L39.89,279.232    c-53.146,53.147-53.146,139.623,0,192.771c15.238,15.237,33.273,26.362,53.604,33.064c1.04,0.343,2.095,0.506,3.132,0.506    c4.199,0,8.109-2.666,9.496-6.872c1.729-5.245-1.121-10.898-6.366-12.628c-17.333-5.714-32.717-15.206-45.723-28.213    C8.685,412.512,8.684,338.727,54.028,293.378c0.001-0.001,0.003-0.002,0.004-0.004l0.019-0.019    c45.35-45.328,119.123-45.324,164.466,0.019c45.349,45.349,45.349,119.137,0,164.485c-12.923,12.923-28.198,22.379-45.4,28.105    c-5.24,1.745-8.074,7.407-6.329,12.647c1.745,5.239,7.408,8.072,12.646,6.329c20.177-6.718,38.084-17.8,53.225-32.939    L472.032,232.63C525.178,179.483,525.178,93.007,472.032,39.86z M460.316,171.657c7.189,21.03,6.305,38.1-2.427,46.831    c-0.002,0.002-0.003,0.003-0.005,0.005l-21.914,21.914c-0.619-8.137-2.506-16.936-5.692-26.257    c-2.408-7.043-5.512-14.213-9.211-21.41l34.024-34.024C457.104,163.072,458.859,167.396,460.316,171.657z M332.354,312.075    c-2.408-7.043-5.512-14.212-9.211-21.409l34.024-34.024c2.013,4.356,3.768,8.68,5.225,12.941c7.189,21.03,6.304,38.1-2.427,46.831    c-0.002,0.002-0.003,0.003-0.005,0.005l-21.913,21.913C337.427,330.194,335.54,321.395,332.354,312.075z M195.479,151.927    c8.731-8.731,25.802-9.616,46.831-2.427c4.261,1.457,8.584,3.211,12.94,5.225l-34.024,34.023    c-7.197-3.699-14.367-6.803-21.41-9.211c-9.321-3.185-18.12-5.072-26.257-5.691L195.479,151.927z M244.432,102.975    c0.003-0.003,0.007-0.006,0.01-0.009c8.73-8.732,25.8-9.614,46.831-2.428c4.261,1.457,8.585,3.211,12.94,5.225l-34.024,34.024    c-7.197-3.699-14.366-6.803-21.409-9.211c-9.32-3.186-18.119-5.073-26.256-5.692L244.432,102.975z M293.404,54.002    c8.731-8.731,25.802-9.616,46.831-2.427c4.261,1.457,8.584,3.211,12.94,5.225l-34.024,34.023    c-7.197-3.699-14.367-6.803-21.41-9.211c-9.321-3.185-18.12-5.072-26.257-5.691L293.404,54.002z M412.384,99.507    c12.995,12.995,24.105,26.909,32.766,40.865l-34.493,34.493c-9.077-13.948-20.254-27.699-33.093-40.538    c-12.839-12.839-26.591-24.016-40.538-33.093l34.493-34.493C385.476,75.403,399.389,86.512,412.384,99.507z M396.188,189.335    l-34.493,34.493c-9.078-13.948-20.254-27.7-33.093-40.539c-12.839-12.838-26.591-24.015-40.538-33.092l34.493-34.493    c13.957,8.661,27.87,19.771,40.866,32.766C376.417,161.465,387.527,175.378,396.188,189.335z M273.594,164.667    c13.957,8.661,27.87,19.77,40.865,32.766c12.995,12.996,24.105,26.909,32.766,40.865l-34.493,34.493    c-9.077-13.948-20.254-27.699-33.093-40.538c-12.839-12.839-26.591-24.016-40.538-33.093L273.594,164.667z M381.316,263.112    c-2.407-7.043-5.512-14.212-9.211-21.409l34.024-34.024c2.013,4.356,3.768,8.679,5.224,12.94    c7.189,21.031,6.305,38.101-2.426,46.831c-0.002,0.002-0.003,0.003-0.005,0.005l-21.914,21.914    C386.389,281.231,384.502,272.432,381.316,263.112z M426.526,85.365c-12.823-12.823-26.557-23.988-40.487-33.059    c9.605-8.757,21.95-13.553,35.034-13.553c13.907,0,26.982,5.416,36.815,15.25c9.834,9.834,15.25,22.908,15.25,36.815    c0,13.084-4.796,25.43-13.553,35.034C450.515,111.922,439.349,98.188,426.526,85.365z M398.722,22.29    c-10.666,3.467-20.446,9.409-28.606,17.57l-2.002,2.002c-7.197-3.699-14.366-6.803-21.409-9.211    c-5.162-1.765-10.162-3.125-14.982-4.1C353.035,19.891,376.412,17.808,398.722,22.29z M104.243,243.164l42.264-42.264    c0.003-0.003,0.007-0.006,0.01-0.009c8.73-8.732,25.8-9.615,46.831-2.428c4.261,1.457,8.585,3.211,12.94,5.225l-38.935,38.935    c-0.086,0.085-0.159,0.178-0.241,0.266C146.445,238.121,124.876,238.21,104.243,243.164z M188.53,249.73l36.102-36.102    c13.957,8.661,27.87,19.771,40.866,32.766c12.995,12.995,24.105,26.908,32.766,40.865l-36.102,36.103    c-6.641-16.058-16.469-31.098-29.502-44.13C219.627,266.199,204.588,256.371,188.53,249.73z M269.003,344.78    c0.088-0.082,0.181-0.155,0.267-0.241l38.935-38.935c2.013,4.356,3.768,8.679,5.224,12.94c7.189,21.031,6.305,38.101-2.426,46.831    l-42.275,42.275C273.681,387.017,273.77,365.448,269.003,344.78z M483.341,180.167c-0.975-4.819-2.336-9.819-4.1-14.98    c-2.408-7.043-5.512-14.212-9.211-21.41l2.001-2.001c8.16-8.16,14.103-17.939,17.57-28.605    C494.082,135.479,492,158.856,483.341,180.167z"/>
		<path id="XMLID_1658_" d="M164.501,417.986c1.953,1.952,4.512,2.929,7.071,2.929s5.119-0.977,7.071-2.929    c11.316-11.317,17.549-26.364,17.549-42.368c0-16.005-6.232-31.052-17.549-42.368c-3.905-3.904-10.237-3.904-14.142,0    c-3.905,3.905-3.905,10.237,0,14.143c7.539,7.539,11.691,17.563,11.691,28.226c0,10.662-4.152,20.687-11.691,28.226    C160.595,407.749,160.596,414.081,164.501,417.986z"/>
		<path id="XMLID_1659_" d="M129.6,414.982c-13.236-2.225-24.395-10.906-29.849-23.225c-2.236-5.051-8.143-7.333-13.192-5.096    c-5.05,2.235-7.332,8.142-5.096,13.191c8.183,18.482,24.939,31.512,44.823,34.852c0.561,0.095,1.118,0.141,1.669,0.141    c4.794,0,9.029-3.459,9.85-8.345C138.721,421.053,135.047,415.897,129.6,414.982z"/>
	</g>
</g>















</svg>
