<svg id="Layer_1" height="512" viewBox="0 0 75 75" width="512" xmlns="http://www.w3.org/2000/svg" data-name="Layer 1"><path d="m20.726 21.369-4.858-.482.741-1.917v-1.494l1.799-.718 1.6-3.258 2.752 5.27" fill="#c5a56b"/><path d="m20.727 22.119a.656.656 0 0 1 -.076 0l-4.858-.482a.75.75 0 0 1 -.625-1.017l.691-1.786v-1.358a.75.75 0 0 1 .472-.7l1.531-.611 1.473-3a.749.749 0 0 1 .665-.415.73.73 0 0 1 .674.4l2.752 5.269a.75.75 0 1 1 -1.33.7l-2.067-3.959-.947 1.929a.753.753 0 0 1 -.4.366l-1.327.529v.986a.756.756 0 0 1 -.05.27l-.386 1 3.877.385a.75.75 0 0 1 -.073 1.5z" fill="#556065"/><path d="m44.542 48.787-22.185-16.751a9.117 9.117 0 0 1 11.391-14.105l22 16.485" fill="#ddc188"/><path d="m55.743 34.417-11.2 14.37-.93-.7 9.52-12.21-22-16.48v-.01a9.06 9.06 0 0 0 -4.94-1.45 9.166 9.166 0 0 0 -3.07.53 9.119 9.119 0 0 1 10.62-.54v.01z" fill="#c5a56b"/><path d="m40.718 28.319a.748.748 0 0 1 -.449-.15l-7.352-5.508a.75.75 0 0 1 .9-1.2l7.351 5.509a.75.75 0 0 1 -.45 1.35z" fill="#556065"/><ellipse cx="24.631" cy="50.207" fill="#ddc188" rx="9.116" ry="6.284"/><path d="m33.743 50.207a5.587 5.587 0 0 1 -2.91 4.59 4.666 4.666 0 0 0 .9-2.72c0-3.47-4.08-6.28-9.12-6.28a11.433 11.433 0 0 0 -6.2 1.69c1.47-2.11 4.6-3.56 8.22-3.56 5.03 0 9.11 2.81 9.11 6.28z" fill="#c5a56b"/><path d="m15.515 55.216c0 3.47 4.082 6.284 9.116 6.284s9.116-2.814 9.116-6.284v-5.009c0 3.471-4.081 6.284-9.116 6.284s-9.116-2.813-9.116-6.284z" fill="#ddc188"/><g fill="#556065"><path d="m24.631 62.25c-5.44 0-9.865-3.156-9.865-7.034v-5.009a.75.75 0 1 1 1.5 0c0 3.052 3.753 5.535 8.365 5.535s8.369-2.483 8.369-5.535a.75.75 0 0 1 1.5 0v5.009c0 3.878-4.428 7.034-9.869 7.034zm-8.365-8.317v1.283c0 3.052 3.753 5.534 8.365 5.534s8.369-2.482 8.369-5.534v-1.283a11.207 11.207 0 0 1 -8.367 3.309 11.2 11.2 0 0 1 -8.367-3.309z"/><path d="m24.605 47.189a.745.745 0 0 1 -.661-.417.767.767 0 0 1 .348-1.017 1.8 1.8 0 0 1 1.4-.037.75.75 0 1 1 -.507 1.412.4.4 0 0 0 -.247-.021.715.715 0 0 1 -.333.08z"/><path d="m20.3 49.926a.746.746 0 0 1 -.661-.417.767.767 0 0 1 .347-1.017 1.812 1.812 0 0 1 1.4-.037.75.75 0 0 1 -.507 1.412.386.386 0 0 0 -.248-.021.721.721 0 0 1 -.331.08z"/><path d="m21.106 54.217a.745.745 0 0 1 -.661-.417.767.767 0 0 1 .347-1.017 1.8 1.8 0 0 1 1.4-.037.75.75 0 1 1 -.506 1.412.4.4 0 0 0 -.248-.021.715.715 0 0 1 -.332.08z"/><path d="m26.968 53.778a.746.746 0 0 1 -.661-.418.767.767 0 0 1 .348-1.016 1.8 1.8 0 0 1 1.4-.038.75.75 0 1 1 -.507 1.412.4.4 0 0 0 -.247-.02.728.728 0 0 1 -.333.08z"/><path d="m25.007 51.01a.746.746 0 0 1 -.661-.417.767.767 0 0 1 .347-1.017 1.808 1.808 0 0 1 1.4-.037.75.75 0 0 1 -.507 1.412.4.4 0 0 0 -.248-.021.721.721 0 0 1 -.331.08z"/><path d="m29.026 50a.745.745 0 0 1 -.661-.417.768.768 0 0 1 .348-1.017 1.8 1.8 0 0 1 1.4-.037.75.75 0 1 1 -.505 1.412.4.4 0 0 0 -.249-.021.713.713 0 0 1 -.333.08z"/><path d="m52.526 39.529a.744.744 0 0 1 -.341-.082.75.75 0 0 1 -.787-1.271 1.4 1.4 0 0 1 1.475-.062.75.75 0 0 1 -.347 1.415z"/></g><circle cx="50.369" cy="41.778" fill="#ddc188" r="9.116"/><path d="m59.483 41.777a9.149 9.149 0 0 1 -5.97 8.57 9.117 9.117 0 0 0 -5.84-16.12 9.038 9.038 0 0 0 -3.13.55 9.11 9.11 0 0 1 14.94 7z" fill="#c5a56b"/><path d="m50.407 37.091a.8.8 0 0 1 -.636-.325.785.785 0 0 1 .153-1.079 1.515 1.515 0 0 1 1.594-.062.75.75 0 1 1 -.692 1.33.7.7 0 0 1 -.419.136z" fill="#556065"/><path d="m46.105 41.061a.8.8 0 0 1 -.636-.326.785.785 0 0 1 .153-1.079 1.517 1.517 0 0 1 1.594-.061.75.75 0 1 1 -.693 1.33.7.7 0 0 1 -.418.136z" fill="#556065"/><path d="m46.908 47.285a.8.8 0 0 1 -.636-.326.785.785 0 0 1 .153-1.079 1.517 1.517 0 0 1 1.594-.061.75.75 0 0 1 -.692 1.33.7.7 0 0 1 -.419.136z" fill="#556065"/><path d="m52.771 46.648a.8.8 0 0 1 -.637-.325.786.786 0 0 1 .153-1.08 1.523 1.523 0 0 1 1.594-.062.75.75 0 1 1 -.692 1.331.7.7 0 0 1 -.418.136z" fill="#556065"/><path d="m50.81 42.634a.8.8 0 0 1 -.637-.325.787.787 0 0 1 .152-1.08 1.525 1.525 0 0 1 1.595-.062.75.75 0 0 1 -.692 1.331.7.7 0 0 1 -.418.136z" fill="#556065"/><path d="m44.541 49.538a.75.75 0 0 1 -.452-.152l-22.184-16.751a.731.731 0 0 1 -.078-.068 9.867 9.867 0 0 1 12.328-15.267.77.77 0 0 1 .1.081l21.945 16.438a.75.75 0 0 1 -.9 1.2l-22-16.485-.02-.016a8.366 8.366 0 0 0 -10.428 12.952l22.142 16.719a.75.75 0 0 1 -.453 1.349z" fill="#556065"/><path d="m50.369 51.644a9.866 9.866 0 1 1 9.865-9.866 9.878 9.878 0 0 1 -9.865 9.866zm0-18.232a8.366 8.366 0 1 0 8.365 8.366 8.376 8.376 0 0 0 -8.365-8.366z" fill="#556065"/><path d="m24.631 57.242c-5.44 0-9.865-3.156-9.865-7.035s4.425-7.034 9.865-7.034 9.869 3.156 9.869 7.034-4.428 7.035-9.869 7.035zm0-12.569c-4.612 0-8.365 2.482-8.365 5.534s3.753 5.535 8.365 5.535 8.369-2.483 8.369-5.535-3.755-5.534-8.369-5.534z" fill="#556065"/></svg>