<?xml version="1.0" encoding="iso-8859-1"?>
<!-- Generator: Adobe Illustrator 19.0.0, SVG Export Plug-In . SVG Version: 6.00 Build 0)  -->
<svg version="1.1" id="Layer_1" xmlns="http://www.w3.org/2000/svg" xmlns:xlink="http://www.w3.org/1999/xlink" x="0px" y="0px"
	 viewBox="0 0 512 512" style="enable-background:new 0 0 512 512;" xml:space="preserve">
<path style="fill:#9E25AF;" d="M457.897,83.713c-36.309-36.309-95.175-36.309-131.484,0
	c-113.375,90.796-202.772,68.285-273.507,150.054c-56.706,56.706-56.706,148.645,0,205.351
	c51.625,51.625,132.447,56.242,189.305,13.87l0,0l0,0c5.596-4.17,10.965-8.789,16.046-13.87c1.089-1.089,2.154-2.191,3.199-3.305
	c1.295-1.382,2.643-2.704,4.024-4.001c40.553-38.079,113.778-117.179,192.417-216.615
	C492.479,166.153,494.204,120.021,457.897,83.713z"/>
<g>
	<path style="fill:#3E9C06;" d="M476.181,107.425c-1.99-18.345,4.175-35.937,18.239-50c0.817-0.817,1.651-1.607,2.5-2.369
		l-0.02-0.025c0.158-0.144,0.323-0.277,0.475-0.429c5.559-5.559,5.577-14.55,0.044-20.084c-4.977-4.977-12.743-5.447-18.3-1.451
		c0,0-6.814,5.457-9.814,8.457c-9.96,9.96-16.295,20.901-19.612,33.612L476.181,107.425z"/>
	<path style="fill:#3E9C06;" d="M457.897,83.713c-36.309-36.309-95.175-36.309-131.484,0c-4.762,3.814-9.478,7.411-14.156,10.841
		v0.01c0,0,24.571,24.057,77.325,17.789c-37.085,30.295-29.772,84.616-29.772,84.616s55.366-8.357,77.303-36.562
		c-7.835,27.16,13.586,63.845,13.588,63.849c2.393-3.001,4.791-6.02,7.195-9.06C492.479,166.153,494.205,120.021,457.897,83.713z"/>
</g>
<path d="M155.557,492.089c-3.553,0-7.109-0.121-10.674-0.366c-37.481-2.565-72.769-18.624-99.364-45.219
	c-60.599-60.6-60.689-159.144-0.268-219.855c38.104-43.896,82.12-59.345,128.718-75.701c43.09-15.124,91.912-32.26,145.48-75.041
	c19.484-19.266,45.282-29.871,72.707-29.871c27.623,0,53.595,10.758,73.128,30.291c39.075,39.074,39.482,90.531,1.149,144.892
	c-0.114,0.153-0.23,0.307-0.344,0.461C384.334,325.056,311.79,402.587,273.016,439.066c-1.438,1.353-2.842,2.73-4.196,4.167
	c-1.062,1.127-2.125,2.223-3.176,3.274c-5.335,5.335-11.119,10.335-17.19,14.858C221.626,481.356,188.989,492.087,155.557,492.089z
	 M392.155,66.929c-22.028,0-42.74,8.572-58.323,24.141c-0.282,0.281-0.58,0.552-0.891,0.8
	c-56.516,45.259-107.272,63.074-152.052,78.793c-45.91,16.114-85.558,30.03-120.081,69.938c-0.175,0.189-0.353,0.379-0.529,0.567
	C7.751,293.71,7.755,379.193,60.293,431.73c46.973,46.974,122.498,52.51,175.676,12.881c5.264-3.924,10.278-8.257,14.902-12.881
	c1.478-1.477,4.892-5.138,5.107-5.338c37.435-34.758,110.572-112.553,193.545-217.448c32.556-46.298,32.886-85.944,0.986-117.844
	l0,0C434.922,75.512,414.198,66.929,392.155,66.929z M457.896,215.196h0.01H457.896z"/>
<path d="M473.786,24.054c-0.319,0.189-0.63,0.396-0.933,0.623c-3.869,2.889-7.549,6.072-10.936,9.459
	c-7.857,7.857-13.786,16.368-17.948,25.774c-15.576-9.047-33.323-13.874-51.815-13.874c-27.425,0-53.222,10.604-72.707,29.871
	c-53.567,42.781-102.389,59.916-145.48,75.041c-46.597,16.356-90.614,31.805-128.718,75.701
	c-60.421,60.711-60.33,159.255,0.268,219.855c26.595,26.595,61.883,42.655,99.364,45.219c3.565,0.244,7.12,0.366,10.674,0.366
	c33.432-0.001,66.069-10.732,92.897-30.725c6.071-4.524,11.855-9.523,17.19-14.858c1.051-1.051,2.113-2.146,3.176-3.274
	c1.354-1.437,2.758-2.814,4.196-4.167c38.775-36.479,111.318-114.01,193.072-217.386c0.114-0.153,0.23-0.307,0.344-0.46
	c29.228-41.448,35.906-81.202,20.122-115.071c-1.63-15.431,3.641-29.722,15.253-41.335c0.963-0.964,1.997-1.854,2.954-2.825
	c5.454-5.453,8.048-13.006,7.022-20.825c-0.564-4.295-2.298-8.391-4.983-11.79C498.646,19.049,484.377,17.014,473.786,24.054z
	 M255.977,426.392c-0.215,0.201-3.629,3.861-5.107,5.338c-4.624,4.624-9.638,8.958-14.902,12.881
	c-53.178,39.629-128.703,34.094-175.676-12.881C7.755,379.193,7.751,293.71,60.28,241.168c0.175-0.189,0.353-0.379,0.529-0.567
	c34.523-39.907,74.172-53.824,120.081-69.938c39.204-13.761,82.988-29.131,131.209-63.115c9.032,5.973,26.671,14.795,53.466,16.123
	c-21.393,32.767-16.379,72.666-16.105,74.692c0.373,2.775,1.845,5.283,4.083,6.964c2.241,1.68,5.058,2.39,7.828,1.973
	c1.9-0.287,37.409-5.839,64.374-23.154c2.183,15.941,8.529,30.779,12.534,38.927C359.977,320.818,291.711,393.214,255.977,426.392z
	 M452.743,204.215c-4.857-12.312-9.141-28.616-5.593-40.913c1.387-4.812-0.835-9.932-5.297-12.205s-9.91-1.058-12.986,2.896
	c-13.482,17.335-42.906,26.431-59.198,30.306c0.186-15.996,3.895-45.374,26.521-63.856c3.597-2.939,4.822-7.9,3.006-12.174
	c-1.817-4.276-6.242-6.834-10.848-6.29c-28.339,3.367-47.361-2.607-58.112-7.98c0.902-0.71,1.801-1.408,2.706-2.133
	c0.3-0.24,0.586-0.496,0.857-0.767c15.587-15.587,36.312-24.172,58.355-24.172s42.767,8.584,58.354,24.171l0,0
	C481.317,121.908,482.055,159.942,452.743,204.215z M487.033,50.039c-8.73,8.731-14.922,18.869-18.393,29.786
	c-1.087-1.176-2.202-2.343-3.356-3.497c-1.273-1.273-2.575-2.506-3.901-3.704c3.108-8.813,8.049-16.453,15.309-23.712
	c2.525-2.526,5.259-4.91,8.133-7.093c1.723-1.12,3.784-1.467,5.327,0.217c1.306,1.425,1.241,3.658-0.055,5.069
	C490.008,47.18,487.762,49.31,487.033,50.039z"/>
<path d="M55.298,342.444c-5.769,0-10.446-4.677-10.446-10.446s4.678-10.457,10.446-10.457s10.446,4.666,10.446,10.436v0.021
	C65.744,337.767,61.066,342.444,55.298,342.444z"/>
<path d="M61.321,307.357c-1.162,0-2.342-0.195-3.501-0.607c-5.435-1.933-8.276-7.907-6.342-13.342
	c16.286-45.799,59.903-76.571,108.534-76.571c5.769,0,10.446,4.677,10.446,10.446c0,5.77-4.678,10.446-10.446,10.446
	c-39.812,0-75.518,25.188-88.85,62.678C69.643,304.685,65.618,307.357,61.321,307.357z"/>
<g>
</g>
<g>
</g>
<g>
</g>
<g>
</g>
<g>
</g>
<g>
</g>
<g>
</g>
<g>
</g>
<g>
</g>
<g>
</g>
<g>
</g>
<g>
</g>
<g>
</g>
<g>
</g>
<g>
</g>
</svg>
