<svg id="Layer_1" enable-background="new 0 0 511.983 511.983" height="512" viewBox="0 0 511.983 511.983" width="512" xmlns="http://www.w3.org/2000/svg"><g clip-rule="evenodd" fill-rule="evenodd"><path d="m114.144 70.331c8.468 8.468 10.753 15.544 13.038 22.62 3.075 9.523 6.151 19.047 18.216 31.113 12.065 12.065 21.589 15.14 31.113 18.216 7.075 2.285 14.152 4.57 22.62 13.038s10.753 15.545 13.038 22.62c3.075 9.523 6.151 19.047 18.216 31.113 12.065 12.065 21.59 15.14 31.113 18.216 7.076 2.285 14.152 4.57 22.62 13.038s10.753 15.545 13.038 22.621c3.076 9.523 6.151 19.047 18.216 31.112s21.589 15.14 31.112 18.216c7.076 2.285 14.152 4.57 22.62 13.038l6.683-6.683 25.775-25.775c-12.065-12.065-21.59-15.141-31.113-18.216-7.076-2.285-14.152-4.57-22.62-13.038s-10.753-15.544-13.038-22.62c-3.075-9.523-6.151-19.047-18.216-31.113-12.065-12.065-21.589-15.14-31.112-18.216-7.076-2.285-14.152-4.57-22.621-13.038-8.468-8.468-10.753-15.545-13.038-22.621-3.076-9.522-6.151-19.047-18.216-31.112s-21.589-15.14-31.112-18.216c-7.076-2.285-14.153-4.57-22.62-13.038-8.468-8.468-10.753-15.545-13.038-22.621-3.076-9.523-6.151-19.047-18.216-31.112z" fill="#ffbe90"/><path d="m176.511 142.279c-9.523-3.075-19.047-6.15-31.113-18.216-12.065-12.066-15.141-21.59-18.216-31.113-2.285-7.075-4.57-14.152-13.038-22.62l-25.047 25.048c-3.779 3.779-3.779 9.907 0 13.686 8.013 8.013 10.047 14.838 12.081 21.662 1.922 6.452 3.845 12.903 8.775 20.129 2.089 3.062 4.719 6.262 8.117 9.66 11.417 11.417 20.603 14.155 29.788 16.892 6.824 2.034 13.649 4.068 21.663 12.081 8.013 8.014 10.047 14.839 12.081 21.663 2.737 9.186 5.474 18.371 16.892 29.789s20.604 14.155 29.789 16.892c6.824 2.034 13.649 4.067 21.663 12.081 8.014 8.013 10.048 14.839 12.081 21.664 2.738 9.185 5.475 18.371 16.892 29.788 11.418 11.417 20.603 14.155 29.789 16.892 6.824 2.033 13.649 4.067 21.662 12.081 3.78 3.779 9.906 3.78 13.685 0l4.351-4.351 20.697-20.697c-8.468-8.468-15.544-10.753-22.62-13.038-9.523-3.076-19.047-6.151-31.112-18.216s-15.14-21.59-18.216-31.112c-2.285-7.076-4.57-14.153-13.038-22.621s-15.544-10.753-22.62-13.038c-9.523-3.075-19.047-6.15-31.113-18.216-12.065-12.066-15.141-21.59-18.216-31.113-2.285-7.076-4.57-14.153-13.038-22.62-8.467-8.467-15.544-10.752-22.619-13.037z" fill="#ff5a58"/><path d="m249.805 153.971c2.285 7.076 4.57 14.153 13.038 22.621s15.544 10.753 22.621 13.038c9.523 3.076 19.047 6.151 31.112 18.216s15.141 21.59 18.216 31.113c2.285 7.076 4.57 14.152 13.038 22.62s15.544 10.753 22.62 13.038c9.523 3.076 19.048 6.151 31.113 18.216l25.047-25.047c3.78-3.779 3.779-9.906 0-13.685-11.417-11.417-20.604-14.154-29.789-16.892-6.824-2.034-13.649-4.068-21.662-12.081-8.014-8.013-10.047-14.839-12.082-21.663-2.737-9.185-5.475-18.371-16.892-29.789-11.418-11.418-20.603-14.154-29.789-16.892-6.825-2.034-13.649-4.067-21.663-12.081-8.013-8.014-10.047-14.839-12.081-21.664-2.737-9.184-5.475-18.371-16.893-29.788-11.417-11.418-20.603-14.155-29.788-16.892-6.824-2.034-13.65-4.068-21.663-12.081-8.014-8.014-10.048-14.839-12.081-21.663-2.738-9.186-5.474-18.371-16.892-29.789-3.778-3.779-9.905-3.779-13.685 0l-25.047 25.047c12.065 12.065 15.14 21.589 18.216 31.112 2.285 7.076 4.57 14.153 13.038 22.621s15.545 10.753 22.62 13.038c9.523 3.076 19.047 6.151 31.112 18.216 12.065 12.064 15.14 21.589 18.216 31.111z" fill="#ff5a58"/><path d="m369.103 325.29-20.697 20.697c2.398 5.04 3.948 9.841 5.498 14.641 2.664 8.247 5.327 16.495 15.197 26.365 9.869 9.87 18.118 12.533 26.365 15.197 11.1 3.584 22.202 7.169 36.264 21.232l20.953-20.953c4.404-4.405 4.404-11.546-.001-15.95-13.308-13.308-24.016-16.499-34.721-19.689-7.954-2.371-15.909-4.742-25.249-14.081-9.341-9.34-11.711-17.295-14.082-25.249-.878-2.945-1.756-5.891-2.845-8.891z" fill="#ff5a58"/><path d="m369.102 386.992c-9.87-9.87-12.533-18.118-15.197-26.365-1.55-4.8-3.1-9.601-5.498-14.641l-4.351 4.351c-3.779 3.78-9.906 3.779-13.685 0-8.013-8.014-14.838-10.047-21.662-12.081-9.186-2.737-18.372-5.475-29.789-16.892-11.417-11.418-14.154-20.603-16.892-29.788-2.033-6.825-4.067-13.65-12.081-21.664s-14.838-10.047-21.663-12.081c-9.185-2.737-18.37-5.474-29.789-16.892-11.418-11.418-14.155-20.603-16.892-29.789-2.034-6.824-4.068-13.649-12.081-21.663-8.014-8.013-14.839-10.047-21.663-12.081-9.185-2.737-18.371-5.474-29.788-16.892-3.398-3.398-6.028-6.599-8.117-9.661l-29.711 29.711c9.87 9.87 12.533 18.118 15.196 26.365 3.585 11.1 7.169 22.201 21.233 36.264 14.062 14.063 25.164 17.647 36.263 21.232 8.247 2.663 16.495 5.327 26.365 15.196 9.87 9.87 12.533 18.118 15.197 26.366 3.584 11.1 7.169 22.201 21.232 36.264s25.163 17.647 36.263 21.232c8.247 2.664 16.495 5.327 26.365 15.197s12.533 18.118 15.197 26.366c3.585 11.1 7.169 22.201 21.232 36.263 14.063 14.063 25.164 17.647 36.263 21.232 8.247 2.663 16.495 5.327 26.366 15.197l54.316-54.316c-14.063-14.063-25.165-17.647-36.264-21.232-8.248-2.665-16.496-5.327-26.365-15.198z" fill="#ffbe90"/><path d="m314.786 441.308c-14.063-14.062-17.647-25.164-21.232-36.263-2.664-8.248-5.327-16.496-15.197-26.366s-18.118-12.533-26.365-15.197c-11.1-3.584-22.2-7.169-36.263-21.232s-17.648-25.164-21.232-36.264c-2.664-8.247-5.327-16.496-15.197-26.366s-18.118-12.533-26.365-15.196c-11.1-3.585-22.201-7.169-36.263-21.232-14.063-14.063-17.648-25.164-21.233-36.264-2.663-8.247-5.326-16.495-15.196-26.365l-20.953 20.954c-4.404 4.404-4.404 11.546-.001 15.951 9.341 9.339 11.711 17.295 14.081 25.249 3.191 10.706 6.381 21.413 19.69 34.721 13.308 13.308 24.015 16.499 34.72 19.689 7.954 2.37 15.909 4.741 25.25 14.081 9.34 9.34 11.71 17.295 14.081 25.25 3.19 10.705 6.381 21.412 19.689 34.72s24.015 16.499 34.72 19.689c7.955 2.371 15.909 4.741 25.25 14.081 9.34 9.34 11.711 17.295 14.081 25.25 3.191 10.706 6.381 21.412 19.689 34.72s24.014 16.499 34.72 19.689c7.955 2.37 15.91 4.741 25.25 14.081 4.405 4.404 11.547 4.404 15.951 0l20.953-20.953c-9.87-9.87-18.118-12.534-26.366-15.197-11.099-3.583-22.2-7.167-36.262-21.23z" fill="#ff5a58"/></g><path d="m459.754 379.447c-15.098-15.097-27.762-18.872-38.937-22.202-7.533-2.245-13.483-4.019-21.034-11.569s-9.324-13.5-11.569-21.035c-.325-1.09-.659-2.199-1.002-3.318l46.468-46.468c7.672-7.672 7.672-20.155 0-27.828-13.207-13.206-24.255-16.499-34.004-19.404-6.271-1.869-11.224-3.345-17.448-9.569-6.224-6.223-7.7-11.176-9.568-17.449-2.905-9.748-6.198-20.796-19.405-34.002-13.206-13.207-24.254-16.5-34.004-19.405-6.271-1.869-11.224-3.345-17.448-9.567-6.223-6.224-7.699-11.177-9.568-17.45-2.905-9.748-6.198-20.796-19.405-34.003-13.206-13.205-24.252-16.498-34.004-19.404-6.271-1.868-11.224-3.344-17.448-9.568-6.223-6.223-7.699-11.176-9.57-17.453-2.905-9.747-6.198-20.794-19.403-33.999-7.673-7.672-20.155-7.672-27.828 0l-82.553 82.554c-7.67 7.671-7.67 20.154.001 27.827 6.223 6.223 7.699 11.176 9.569 17.448 1.449 4.863 2.995 10.05 5.821 15.667l-45.196 45.195c-8.296 8.296-8.296 21.795 0 30.094 7.55 7.549 9.323 13.5 11.568 21.034 3.33 11.173 7.104 23.837 22.202 38.937 15.099 15.099 27.763 18.872 38.937 22.201 7.533 2.245 13.483 4.018 21.033 11.568 7.55 7.551 9.324 13.502 11.569 21.035 3.329 11.173 7.103 23.837 22.201 38.936 15.098 15.097 27.761 18.871 38.937 22.202 7.533 2.245 13.483 4.018 21.034 11.568 7.552 7.551 9.324 13.501 11.57 21.038 3.33 11.173 7.104 23.836 22.2 38.931 15.097 15.098 27.762 18.872 38.938 22.203 7.533 2.245 13.482 4.018 21.033 11.569 4.148 4.148 9.597 6.222 15.046 6.222s10.898-2.074 15.046-6.222l96.222-96.222c4.019-4.019 6.232-9.363 6.232-15.047-.001-5.683-2.214-11.026-6.233-15.045zm-281.263-359.321c9.434 9.515 11.621 16.854 14.152 25.346 2.134 7.162 4.791 16.075 14.593 25.876 9.803 9.803 18.716 12.459 25.882 14.595 8.555 2.55 15.943 4.752 25.57 14.378 9.627 9.628 11.83 17.017 14.38 25.575 2.134 7.162 4.79 16.075 14.593 25.878s18.716 12.458 25.879 14.593c8.556 2.55 15.945 4.752 25.572 14.379s11.83 17.017 14.38 25.574c2.134 7.162 4.791 16.075 14.593 25.878 9.803 9.803 18.716 12.459 25.879 14.594 8.488 2.53 15.828 4.717 25.343 14.151l-18.12 18.12c-10.5-8.415-19.53-11.336-27.67-13.964-6.624-2.14-11.856-3.83-18.618-10.592-6.763-6.763-8.453-11.996-10.593-18.622-3.23-10.003-6.892-21.341-20.661-35.111-13.77-13.769-25.107-17.43-35.115-20.662-6.624-2.14-11.856-3.83-18.618-10.592-6.763-6.762-8.453-11.994-10.594-18.623-2.569-7.955-5.48-16.971-13.681-27.319-3.43-4.328-9.719-5.057-14.048-1.626-4.329 3.43-5.057 9.72-1.626 14.048 5.955 7.514 7.979 13.783 10.326 21.049 2.489 7.707 5.312 16.443 15.481 26.613 10.17 10.169 18.906 12.992 26.619 15.483 8.99 2.903 16.753 5.41 27.113 15.77 10.361 10.361 12.868 18.125 15.771 27.117 2.489 7.708 5.311 16.445 15.482 26.617 10.171 10.17 18.906 12.992 26.618 15.482 6.678 2.157 12.673 4.093 19.558 9.186l-18.369 18.369c-7.016-5.073-13.302-7.108-19.011-8.952-8.989-2.903-16.752-5.41-27.112-15.77s-12.867-18.123-15.771-27.115c-2.49-7.709-5.311-16.446-15.483-26.618-10.171-10.171-18.908-12.992-26.619-15.483-8.989-2.903-16.753-5.41-27.114-15.771s-12.868-18.125-15.772-27.118c-2.489-7.708-5.311-16.444-15.482-26.615-10.172-10.171-18.909-12.993-26.618-15.483-8.989-2.903-16.753-5.41-27.114-15.771-10.361-10.36-12.868-18.124-15.771-27.115-1.844-5.709-3.876-11.993-8.95-19.009l18.367-18.367c5.091 6.883 7.029 12.877 9.185 19.556.65 2.014 1.323 4.096 2.167 6.306 1.522 3.985 5.317 6.434 9.343 6.434 1.187 0 2.394-.213 3.567-.662 5.159-1.971 7.743-7.751 5.772-12.911-.656-1.717-1.22-3.463-1.817-5.314-2.627-8.135-5.548-17.164-13.963-27.663zm-65.188 65.188c2.02 3.479 3.118 6.855 4.363 10.709 3.23 10.003 6.891 21.341 20.661 35.111s25.108 17.431 35.111 20.661c6.625 2.14 11.858 3.83 18.622 10.593 6.763 6.762 8.453 11.995 10.593 18.622 3.23 10.003 6.891 21.341 20.661 35.11 13.769 13.77 25.107 17.431 35.113 20.662 6.625 2.139 11.857 3.829 18.62 10.592 6.764 6.763 8.454 11.997 10.594 18.624 3.23 10.003 6.891 21.34 20.66 35.109 13.768 13.768 25.105 17.429 35.11 20.661 3.856 1.245 7.232 2.343 10.71 4.363l-16.907 16.907c-9.713-9.617-18.543-12.248-25.653-14.367-8.555-2.55-15.943-4.751-25.57-14.379-9.627-9.627-11.829-17.016-14.38-25.576-2.134-7.161-4.791-16.074-14.593-25.876-9.803-9.802-18.715-12.458-25.878-14.593-8.556-2.55-15.946-4.752-25.574-14.379-9.628-9.629-11.83-17.018-14.38-25.577-2.134-7.161-4.791-16.074-14.593-25.875-9.803-9.802-18.715-12.458-25.88-14.594-8.556-2.549-15.944-4.751-25.571-14.379-9.628-9.628-11.83-17.017-14.381-25.575-2.118-7.106-4.749-15.936-14.365-25.647zm-2.304 82.272c13.206 13.207 24.254 16.499 34.005 19.405 6.271 1.869 11.223 3.345 17.447 9.568 6.223 6.223 7.699 11.175 9.569 17.448 2.904 9.748 6.196 20.796 19.404 34.004 13.208 13.207 24.256 16.5 34.005 19.405 6.271 1.869 11.223 3.345 17.446 9.568 6.224 6.223 7.7 11.176 9.57 17.449 2.905 9.748 6.197 20.796 19.403 34.002 13.206 13.207 24.253 16.499 34.004 19.405 6.271 1.869 11.224 3.345 17.448 9.569 3.836 3.836 8.875 5.754 13.914 5.754 2.245 0 4.485-.403 6.624-1.165.184.566.368 1.136.553 1.71 2.844 8.805 6.068 18.785 17.64 30.355 11.574 11.574 21.555 14.797 30.366 17.643 8.42 2.72 15.935 5.163 24.789 12.117l-40.246 40.246c-8.442-6.385-15.987-8.839-22.824-11.047-10.68-3.45-19.903-6.429-32.259-18.785-12.356-12.355-15.335-21.58-18.788-32.268-2.844-8.806-6.067-18.788-17.641-30.361-11.573-11.573-21.554-14.796-30.366-17.643-10.681-3.449-19.906-6.428-32.263-18.786-12.359-12.358-15.337-21.583-18.787-32.268-2.844-8.807-6.068-18.788-17.642-30.362-11.575-11.574-21.556-14.797-30.366-17.642-10.681-3.449-19.906-6.428-32.263-18.785-12.359-12.359-15.338-21.584-18.789-32.271-2.206-6.831-4.659-14.373-11.043-22.812l15.299-15.299c.579.612 1.17 1.226 1.791 1.846zm236.583 324.033c-11.129-11.13-20.869-14.033-29.466-16.594-10.188-3.036-18.987-5.658-30.505-17.177-11.517-11.517-14.139-20.314-17.176-30.503-2.561-8.594-5.463-18.335-16.594-29.466-11.13-11.129-20.87-14.032-29.466-16.594-10.188-3.036-18.986-5.658-30.504-17.176-11.519-11.519-14.141-20.317-17.177-30.505-2.561-8.594-5.463-18.334-16.594-29.466-11.129-11.129-20.87-14.032-29.465-16.593-10.188-3.036-18.986-5.657-30.505-17.176-11.519-11.52-14.141-20.318-17.177-30.507-2.561-8.594-5.464-18.335-16.593-29.462-.499-.499-.499-1.311 0-1.81l13.214-13.214c3.173 4.834 4.647 9.365 6.347 14.629 3.708 11.481 7.91 24.494 23.677 40.262 15.766 15.767 28.778 19.969 40.262 23.677 7.934 2.562 14.201 4.586 22.366 12.751 8.166 8.165 10.189 14.432 12.752 22.367 3.707 11.481 7.909 24.495 23.677 40.262 15.766 15.767 28.778 19.969 40.264 23.678 7.933 2.562 14.2 4.586 22.364 12.751 8.165 8.165 10.189 14.432 12.754 22.374 3.708 11.48 7.91 24.492 23.675 40.255 15.764 15.765 28.775 19.967 40.263 23.677 5.263 1.7 9.793 3.172 14.628 6.347l-13.215 13.215c-.496.495-1.308.496-1.806-.002zm98.03-96.222-14.202 14.202c-12.515-10.353-23.234-13.814-32.871-16.927-7.934-2.562-14.201-4.585-22.366-12.751-8.164-8.163-10.188-14.428-12.751-22.366-.97-3.005-1.964-6.073-3.178-9.262l11.009-11.01c2.421 6.816 6.148 14.294 14.389 22.535 11.129 11.128 20.869 14.032 29.464 16.593 10.188 3.037 18.988 5.659 30.506 17.177.248.249.374.552.374.904s-.126.657-.374.905z"/><path d="m200.484 114.643c5.523 0 10-4.477 10-10s-4.477-10-10-10h-.007c-5.523 0-9.996 4.477-9.996 10s4.48 10 10.003 10z"/></svg>