<?xml version="1.0" encoding="UTF-8"?>
<svg version="1.1" xmlns="http://www.w3.org/2000/svg" width="64" height="64">
<path d="M0 0 C3.16622706 2.00312324 4.57626493 3.39651333 5.54296875 7.0546875 C5.85516317 10.45937379 5.66484647 13.02863548 3.70161438 15.89698792 C3.1391954 16.50533981 2.57677643 17.11369171 1.99731445 17.74047852 C1.3616153 18.43199005 0.72591614 19.12350159 0.07095337 19.83596802 C-3.48030763 23.54683978 -7.07026105 27.21267246 -10.70703125 30.83984375 C-11.91693977 32.05118736 -11.91693977 32.05118736 -13.15129089 33.28700256 C-14.84173886 34.97812645 -16.53343195 36.66800656 -18.22631836 38.35668945 C-20.8258748 40.95084702 -23.41999675 43.55035425 -26.01367188 46.15039062 C-27.66113742 47.79719611 -29.30891274 49.44369176 -30.95703125 51.08984375 C-31.73407913 51.86891586 -32.51112701 52.64798798 -33.3117218 53.45066833 C-34.02974472 54.16553909 -34.74776764 54.88040985 -35.48754883 55.61694336 C-36.1192952 56.24789413 -36.75104156 56.87884491 -37.40193176 57.52891541 C-40.58921546 60.46293526 -43.56059783 60.40608214 -47.734375 60.33203125 C-50 60 -50 60 -53.0625 58.0625 C-55.25694232 54.59386536 -55.89014289 52.49648247 -55.5756073 48.43641663 C-54.90395134 45.59344756 -53.9687487 44.39196334 -51.99731445 42.25952148 C-51.04376572 41.22225418 -51.04376572 41.22225418 -50.07095337 40.16403198 C-46.51969237 36.45316022 -42.92973895 32.78732754 -39.29296875 29.16015625 C-38.08306023 27.94881264 -38.08306023 27.94881264 -36.84870911 26.71299744 C-35.15826114 25.02187355 -33.46656805 23.33199344 -31.77368164 21.64331055 C-29.1741252 19.04915298 -26.58000325 16.44964575 -23.98632812 13.84960938 C-22.33886258 12.20280389 -20.69108726 10.55630824 -19.04296875 8.91015625 C-18.26592087 8.13108414 -17.48887299 7.35201202 -16.6882782 6.54933167 C-15.61124382 5.47702553 -15.61124382 5.47702553 -14.51245117 4.38305664 C-13.8807048 3.75210587 -13.24895844 3.12115509 -12.59806824 2.47108459 C-8.96121177 -0.87678467 -4.69764162 -0.68844748 0 0 Z " fill="#070401" transform="translate(57,2)"/>
<path d="M0 0 C6.34507042 0.59859155 6.34507042 0.59859155 8.9375 2.1875 C10.66525127 5.1348404 10.6386616 6.61509354 10 10 C8.7076416 11.76271057 8.7076416 11.76271057 6.99414062 13.65454102 C6.35726318 14.35845978 5.72038574 15.06237854 5.06420898 15.78762817 C-0.82081733 22.09506434 -6.88127809 28.22822041 -12.95166016 34.35668945 C-14.65683038 36.0835868 -16.35569961 37.81672766 -18.04833984 39.5559082 C-20.50745952 42.0818182 -22.98560121 44.58757953 -25.46875 47.08984375 C-26.21999146 47.86891586 -26.97123291 48.64798798 -27.74523926 49.45066833 C-33.67490304 55.3574073 -33.67490304 55.3574073 -37.84960938 56.12719727 C-41 56 -41 56 -43.9375 53.875 C-46 51 -46 51 -46.75 48.5 C-45.56469639 44.54898798 -42.42265689 43.05184788 -39 41 C-38.81824219 41.55429687 -38.63648438 42.10859375 -38.44921875 42.6796875 C-38.19785156 43.40414062 -37.94648437 44.12859375 -37.6875 44.875 C-37.44386719 45.59429687 -37.20023438 46.31359375 -36.94921875 47.0546875 C-36.03664453 49.33994905 -36.03664453 49.33994905 -33 51 C-32.67046578 45.9049053 -32.67046578 45.9049053 -34.625 41.3125 C-35.07875 40.549375 -35.5325 39.78625 -36 39 C-34.83888549 35.72117096 -33.0355494 33.91785506 -30.375 31.75 C-29.42753906 30.96882813 -29.42753906 30.96882813 -28.4609375 30.171875 C-27.73777344 29.59179688 -27.73777344 29.59179688 -27 29 C-26.81824219 29.55429687 -26.63648437 30.10859375 -26.44921875 30.6796875 C-26.19785156 31.40414062 -25.94648438 32.12859375 -25.6875 32.875 C-25.44386719 33.59429687 -25.20023438 34.31359375 -24.94921875 35.0546875 C-24.03664453 37.33994905 -24.03664453 37.33994905 -21 39 C-20.67046578 33.9049053 -20.67046578 33.9049053 -22.625 29.3125 C-23.07875 28.549375 -23.5325 27.78625 -24 27 C-22.83888549 23.72117096 -21.0355494 21.91785506 -18.375 19.75 C-17.42753906 18.96882813 -17.42753906 18.96882813 -16.4609375 18.171875 C-15.73777344 17.59179688 -15.73777344 17.59179688 -15 17 C-14.81824219 17.55429687 -14.63648437 18.10859375 -14.44921875 18.6796875 C-14.19785156 19.40414063 -13.94648437 20.12859375 -13.6875 20.875 C-13.44386719 21.59429688 -13.20023438 22.31359375 -12.94921875 23.0546875 C-12.03664453 25.33994905 -12.03664453 25.33994905 -9 27 C-8.67046578 21.9049053 -8.67046578 21.9049053 -10.625 17.3125 C-12 15 -12 15 -11.5 12.9375 C-9.62138672 10.51095785 -7.46283163 8.81471805 -5 7 C-4.81824219 7.55429688 -4.63648438 8.10859375 -4.44921875 8.6796875 C-4.19785156 9.40414063 -3.94648437 10.12859375 -3.6875 10.875 C-3.44386719 11.59429687 -3.20023438 12.31359375 -2.94921875 13.0546875 C-2.03664453 15.33994905 -2.03664453 15.33994905 1 17 C1.27590552 11.48188956 1.34037578 9.40322262 -2 5 C-1.1875 2.25 -1.1875 2.25 0 0 Z " fill="#BD6C2C" transform="translate(50,4)"/>
<path d="M0 0 C0.66 0.33 1.32 0.66 2 1 C2 2.32 2 3.64 2 5 C2.66 5.99 3.32 6.98 4 8 C4.32727273 13.34545455 4.32727273 13.34545455 3 16 C0.60510457 15.25675659 -0.70777616 14.52942646 -1.93359375 12.30859375 C-2.67219923 10.55926499 -3.34049685 8.78065851 -4 7 C-5.65 8.65 -7.3 10.3 -9 12 C-8.690625 12.680625 -8.38125 13.36125 -8.0625 14.0625 C-6.8573559 17.39436899 -6.33236849 20.47689403 -6 24 C-6.33 24.66 -6.66 25.32 -7 26 C-9.39489543 25.25675659 -10.70777616 24.52942646 -11.93359375 22.30859375 C-12.67219923 20.55926499 -13.34049685 18.78065851 -14 17 C-16.31 19.31 -18.62 21.62 -21 24 C-20.5359375 25.0209375 -20.5359375 25.0209375 -20.0625 26.0625 C-18.8573559 29.39436899 -18.33236849 32.47689403 -18 36 C-18.33 36.66 -18.66 37.32 -19 38 C-21.39489543 37.25675659 -22.70777616 36.52942646 -23.93359375 34.30859375 C-24.67219923 32.55926499 -25.34049685 30.78065851 -26 29 C-29.465 32.465 -29.465 32.465 -33 36 C-32.690625 36.680625 -32.38125 37.36125 -32.0625 38.0625 C-30.8573559 41.39436899 -30.33236849 44.47689403 -30 48 C-30.33 48.66 -30.66 49.32 -31 50 C-33.39489543 49.25675659 -34.70777616 48.52942646 -35.93359375 46.30859375 C-36.67219923 44.55926499 -37.34049685 42.78065851 -38 41 C-39.65 42.32 -41.3 43.64 -43 45 C-41.52877384 41.59646978 -39.63057487 39.38744251 -37.00927734 36.78222656 C-35.77822769 35.5514035 -35.77822769 35.5514035 -34.52230835 34.29571533 C-33.63580597 33.41953552 -32.74930359 32.54335571 -31.8359375 31.640625 C-30.92872955 30.73624695 -30.02152161 29.8318689 -29.08682251 28.90008545 C-26.68115581 26.50203542 -24.26954264 24.11005382 -21.85662842 21.71929932 C-19.39297656 19.27614829 -16.93501423 16.82728794 -14.4765625 14.37890625 C-9.65626427 9.58066212 -4.83030157 4.78817268 0 0 Z " fill="#B5672A" transform="translate(48,5)"/>
<path d="M0 0 C4.90196078 4.16666667 4.90196078 4.16666667 5.375 8.1875 C5 11 5 11 4 13 C1.59071265 12.03628506 0.23992991 11.34789837 -1.25 9.1875 C-2.13068336 6.61884019 -2.28398813 4.69788724 -2 2 C-1.34 1.34 -0.68 0.68 0 0 Z " fill="#4F3A18" transform="translate(47,8)"/>
<path d="M0 0 C3.04577607 2.45627102 3.9400232 3.7324112 4.8125 7.625 C5 11 5 11 4 13 C1.59071265 12.03628506 0.23992991 11.34789837 -1.25 9.1875 C-2.13068336 6.61884019 -2.28398813 4.69788724 -2 2 C-1.34 1.34 -0.68 0.68 0 0 Z " fill="#543F1A" transform="translate(13,42)"/>
<path d="M0 0 C3.04577607 2.45627102 3.9400232 3.7324112 4.8125 7.625 C5 11 5 11 4 13 C1.59071265 12.03628506 0.23992991 11.34789837 -1.25 9.1875 C-2.13068336 6.61884019 -2.28398813 4.69788724 -2 2 C-1.34 1.34 -0.68 0.68 0 0 Z " fill="#543E19" transform="translate(25,30)"/>
<path d="M0 0 C3.04577607 2.45627102 3.9400232 3.7324112 4.8125 7.625 C5 11 5 11 4 13 C1.59071265 12.03628506 0.23992991 11.34789837 -1.25 9.1875 C-2.13068336 6.61884019 -2.28398813 4.69788724 -2 2 C-1.34 1.34 -0.68 0.68 0 0 Z " fill="#543F1A" transform="translate(37,18)"/>
<path d="M0 0 C1.32 1.32 2.64 2.64 4 4 C3.34 4.66 2.68 5.32 2 6 C1.67 5.34 1.34 4.68 1 4 C0.34 5.32 -0.32 6.64 -1 8 C-2 7 -2 7 -2.1875 4.5625 C-2 2 -2 2 0 0 Z " fill="#120B04" transform="translate(13,42)"/>
<path d="M0 0 C1.32 1.32 2.64 2.64 4 4 C3.34 4.66 2.68 5.32 2 6 C1.67 5.34 1.34 4.68 1 4 C0.34 5.32 -0.32 6.64 -1 8 C-2 7 -2 7 -2.1875 4.5625 C-2 2 -2 2 0 0 Z " fill="#120B04" transform="translate(25,30)"/>
<path d="M0 0 C1.32 1.32 2.64 2.64 4 4 C3.34 4.66 2.68 5.32 2 6 C1.67 5.34 1.34 4.68 1 4 C0.34 5.32 -0.32 6.64 -1 8 C-2 7 -2 7 -2.1875 4.5625 C-2 2 -2 2 0 0 Z " fill="#120B04" transform="translate(37,18)"/>
<path d="M0 0 C0.66 0.33 1.32 0.66 2 1 C1.67 2.98 1.34 4.96 1 7 C-0.32 6.34 -1.64 5.68 -3 5 C-3 4.34 -3 3.68 -3 3 C-2.34 3 -1.68 3 -1 3 C-0.67 2.01 -0.34 1.02 0 0 Z " fill="#130B04" transform="translate(50,14)"/>
</svg>
