<svg id="Capa_1" enable-background="new 0 0 512.002 512.002" height="512" viewBox="0 0 512.002 512.002" width="512" xmlns="http://www.w3.org/2000/svg"><g><g><path d="m454.744 45.397c-43.305-17.119-110.631-37.24-194.616-37.88-88.089-.671-158.529 20.363-202.845 37.878-7.686 3.038-11.267 11.894-7.882 19.44l44.596 99.414c1.463 3.262 4.911 5.151 8.448 4.635 4.266-.622 8.705-.713 13.252-.184 24.005 2.789 42.898 22.574 44.569 46.683 1.179 17.01-6.054 32.375-17.951 42.374-2.737 2.301-3.622 6.132-2.159 9.395l102.628 228.78c5.125 11.424 21.325 11.424 26.45 0l28.543-63.629c1.536-3.425.494-7.472-2.533-9.691-8.359-6.127-13.711-16.114-13.419-27.338.465-17.936 14.888-31.951 32.83-31.93 2.352.003 4.646.254 6.857.728 3.669.787 7.38-1.13 8.916-4.553l132.192-294.684c3.384-7.544-.193-16.401-7.876-19.438z" fill="#ffe179"/><g><path d="m454.744 45.397c-6.913-2.733-14.445-5.542-22.552-8.336 2.026 3.817 2.344 8.505.428 12.774l-132.192 294.685c-1.536 3.423-5.247 5.339-8.916 4.553-2.211-.474-4.505-.725-6.857-.728-17.942-.021-32.364 13.994-32.83 31.93-.291 11.224 5.06 21.211 13.419 27.338 3.028 2.219 4.07 6.266 2.533 9.691l-28.543 63.629c-.504 1.124-1.119 2.133-1.817 3.036l5.367 11.964c5.125 11.424 21.325 11.424 26.45 0l28.543-63.629c1.536-3.425.494-7.472-2.533-9.691-8.359-6.126-13.711-16.114-13.419-27.338.465-17.936 14.888-31.951 32.83-31.93 2.352.003 4.646.254 6.857.728 3.669.787 7.38-1.129 8.916-4.553l132.192-294.685c3.384-7.544-.193-16.401-7.876-19.438z" fill="#fbd268"/></g><circle cx="335.103" cy="103.708" fill="#fff5c6" r="47.323"/><path d="m335.103 56.385c-5.245 0-10.285.866-15 2.441 18.78 6.274 32.323 23.991 32.323 44.881 0 20.891-13.542 38.607-32.323 44.881 4.715 1.575 9.755 2.441 15 2.441 26.136 0 47.323-21.187 47.323-47.323-.001-26.134-21.188-47.321-47.323-47.321z" fill="#fef0ae"/><circle cx="169.011" cy="90.001" fill="#fff5c6" r="22.548"/><path d="m169.011 67.453c-4.676 0-9.019 1.423-12.62 3.86 5.99 4.053 9.927 10.911 9.927 18.688s-3.938 14.634-9.927 18.688c3.601 2.437 7.945 3.86 12.62 3.86 12.453 0 22.548-10.095 22.548-22.548s-10.096-22.548-22.548-22.548z" fill="#fef0ae"/><circle cx="237.371" cy="336.194" fill="#fff5c6" r="22.548"/><path d="m237.371 313.646c-4.108 0-7.957 1.104-11.274 3.024 6.738 3.899 11.274 11.179 11.274 19.524 0 8.344-4.536 15.625-11.274 19.524 3.317 1.919 7.166 3.024 11.274 3.024 12.453 0 22.548-10.095 22.548-22.548s-10.096-22.548-22.548-22.548z" fill="#fef0ae"/><circle cx="256.011" cy="216.157" fill="#fff5c6" r="32.801"/><path d="m256.011 183.355c-5.407 0-10.503 1.316-15 3.634 10.569 5.447 17.801 16.459 17.801 29.167 0 12.709-7.232 23.721-17.801 29.167 4.497 2.317 9.593 3.634 15 3.634 18.116 0 32.801-14.686 32.801-32.801s-14.686-32.801-32.801-32.801z" fill="#fef0ae"/></g><path d="m296.312 216.157c0-22.223-18.079-40.302-40.301-40.302s-40.301 18.079-40.301 40.302c0 22.222 18.079 40.301 40.301 40.301s40.301-18.079 40.301-40.301zm-40.301 25.301c-13.951 0-25.301-11.35-25.301-25.301s11.35-25.302 25.301-25.302 25.301 11.351 25.301 25.302-11.35 25.301-25.301 25.301zm201.491-203.035c-63.158-24.968-129.545-37.889-197.317-38.406-70.616-.545-139.821 12.383-205.66 38.404-11.515 4.551-17.102 18.19-11.968 29.484l44.596 99.414c2.819 6.287 9.554 9.983 16.375 8.987 3.717-.542 7.52-.595 11.303-.155 20.561 2.389 36.522 19.106 37.953 39.751.968 13.968-4.606 27.131-15.294 36.114-5.277 4.436-6.995 11.922-4.176 18.205l102.628 228.781c3.597 8.018 11.286 12.999 20.068 12.999s16.471-4.981 20.068-12.999l28.543-63.629c2.972-6.623.893-14.534-4.942-18.81-6.699-4.911-10.571-12.797-10.355-21.096.358-13.813 11.464-24.623 25.294-24.623 1.787.007 3.583.188 5.321.561 7.07 1.521 14.36-2.189 17.333-8.816l41.634-92.812c1.696-3.779.006-8.217-3.773-9.912-3.78-1.695-8.217-.005-9.913 3.773l-41.634 92.812c-.934.962-7.197-.69-8.921-.604h-.05c-22.022 0-39.714 17.225-40.286 39.234-.342 13.212 5.819 25.767 16.484 33.583.163.119.216.364.123.571l-28.543 63.63c-1.722 3.839-5.32 4.138-6.382 4.138s-4.66-.299-6.382-4.138c.044-.74-103.312-228.672-102.487-229.365 14.4-12.103 21.911-29.829 20.607-48.634-1.93-27.845-23.457-50.393-51.186-53.614-1.929-.224-14.63.085-15.723-.07l-44.596-99.415c-1.628-3.577.137-7.95 3.795-9.396 64.039-25.309 131.322-37.888 200.032-37.354 65.915.503 130.484 13.071 191.916 37.355 3.648 1.442 5.421 5.819 3.79 9.394l-76.188 169.84c-1.695 3.779-.006 8.217 3.773 9.912 3.782 1.697 8.218.006 9.913-3.773l76.188-169.839c5.112-11.263-.52-24.959-11.961-29.482zm-318.539 51.578c0 16.568 13.479 30.048 30.048 30.048s30.048-13.479 30.048-30.048-13.479-30.048-30.048-30.048-30.048 13.48-30.048 30.048zm45.095 0c0 8.298-6.75 15.048-15.048 15.048s-15.048-6.75-15.048-15.048 6.75-15.048 15.048-15.048 15.048 6.75 15.048 15.048zm151.045 68.529c30.229 0 54.823-24.593 54.823-54.822s-24.593-54.823-54.823-54.823c-20.088 0-38.544 10.967-48.166 28.62-1.982 3.637-.641 8.192 2.996 10.174 3.638 1.985 8.192.641 10.175-2.996 6.992-12.828 20.401-20.798 34.995-20.798 21.958 0 39.823 17.864 39.823 39.823 0 21.958-17.864 39.822-39.823 39.822-18.251 0-34.125-12.336-38.604-29.999-1.018-4.016-5.096-6.446-9.113-5.427-4.015 1.018-6.445 5.098-5.427 9.112 6.167 24.326 28.021 41.314 53.144 41.314zm-127.78 177.664c0 16.568 13.479 30.048 30.048 30.048s30.048-13.479 30.048-30.048-13.479-30.048-30.048-30.048-30.048 13.48-30.048 30.048zm45.095 0c0 8.298-6.75 15.048-15.048 15.048-8.297 0-15.048-6.75-15.048-15.048s6.75-15.048 15.048-15.048 15.048 6.75 15.048 15.048z"/></g></svg>