<svg xmlns="http://www.w3.org/2000/svg" xmlns:xlink="http://www.w3.org/1999/xlink" viewBox="0 0 275.43 280.65"><defs><style>.cls-1{fill:url(#Dégradé_sans_nom_28);}.cls-2{fill:#9db130;}.cls-3{fill:#1d1d1b;}.cls-4{fill:#d9d91c;}.cls-5{fill:#dad82e;stroke:#1d1d1b;stroke-linecap:round;stroke-linejoin:round;stroke-width:4px;}.cls-6{fill:#72b865;}.cls-7{fill:#707c2d;}.cls-8{fill:none;stroke:#fef4e8;stroke-miterlimit:10;stroke-width:0.99px;}.cls-9{fill:url(#Dégradé_sans_nom_12);}.cls-10{fill:#ef8d2c;}.cls-11{fill:#e86527;}</style><radialGradient id="Dégradé_sans_nom_28" cx="138.22" cy="140.38" fx="153.72100346039588" fy="175.5917023315829" r="134.02" gradientUnits="userSpaceOnUse"><stop offset="0" stop-color="#1f5aa2"/><stop offset="0.2" stop-color="#215ea5"/><stop offset="0.4" stop-color="#266aac"/><stop offset="0.59" stop-color="#307eb9"/><stop offset="0.79" stop-color="#3d9acb"/><stop offset="0.98" stop-color="#4ebde1"/><stop offset="0.99" stop-color="#4fc0e3"/></radialGradient><linearGradient id="Dégradé_sans_nom_12" x1="1726.32" y1="166.41" x2="1726.32" y2="80.41" gradientTransform="matrix(-1, -0.06, -0.06, 1, 1923.12, 58.04)" gradientUnits="userSpaceOnUse"><stop offset="0" stop-color="#f7af30"/><stop offset="1" stop-color="#fbdd32"/></linearGradient></defs><g id="Calque_2" data-name="Calque 2"><g id="Calque_1-2" data-name="Calque 1"><g id="terre"><path class="cls-1" d="M270.33,140.38c0,75.06-59.15,135.91-132.11,135.91S6.11,215.44,6.11,140.38,65.25,4.26,138.22,4.48C203.41,4.67,270.33,65.32,270.33,140.38Z"/><path class="cls-2" d="M229,227.81s-10.55-.27-17.21,2.82-9.75-1.09-15.39.86S180.14,254,174.3,253.39s-24.75-8.61-33,0S129.23,276,129.23,276s13,1.2,23.23-.07c9.55-1.19,9.15-1.11,18.95-3.77A179.24,179.24,0,0,0,204,259.36a90.71,90.71,0,0,0,16.46-10.46c5-3.79,7.43-6.08,9.4-7.6.56-.42,4.13-4.19,4.92-5l4-4.24Z"/><path class="cls-3" d="M229,228a61.38,61.38,0,0,0-7.73.54,35.68,35.68,0,0,0-7.53,1.75c-.61.2-1.18.49-1.77.73a15.89,15.89,0,0,1-1.88.73,11.36,11.36,0,0,1-4,.52c-2.72-.11-5.23-1.06-7.66-.64-.3.06-.6.1-.9.18l-.88.26a5.91,5.91,0,0,0-1.49.91,22.53,22.53,0,0,0-2.67,2.68c-1.68,2-3.23,4-4.8,6.12s-3.12,4.18-4.79,6.23c-.84,1-1.71,2-2.65,3a15.3,15.3,0,0,1-3.22,2.64,5.22,5.22,0,0,1-2.26.76,4.63,4.63,0,0,1-.65,0l-.53-.07c-.34-.05-.68-.1-1-.17-1.32-.26-2.6-.58-3.86-.89-2.54-.63-5-1.25-7.57-1.72a45.51,45.51,0,0,0-7.57-.87,19.74,19.74,0,0,0-7.24,1,11,11,0,0,0-3,1.71,5,5,0,0,0-.65.57,6.37,6.37,0,0,0-.62.64L140.78,256a43.48,43.48,0,0,0-4.21,6.3,67.26,67.26,0,0,0-5.83,14.08l-1.36-2a140.27,140.27,0,0,0,15.07.3c2.5-.1,5-.27,7.44-.59s5.06-.66,7.49-1.07a69.35,69.35,0,0,0,7.24-1.69c2.44-.68,4.9-1.35,7.29-2.07,4.79-1.49,9.55-3.13,14.23-5s9.32-3.85,13.85-6a95.37,95.37,0,0,0,13.06-7.37c2.06-1.42,4.14-2.92,6.18-4.38s4-3,6-4.63l1.53-1.19.4-.3a2.08,2.08,0,0,0,.27-.23l.67-.63,2.71-2.67c1.77-1.82,3.64-3.55,5.49-5.31l.22,1.1C235.37,231.14,232.19,229.61,229,228Zm.09-.39c3.31,1.22,6.64,2.51,10,3.8a.67.67,0,0,1,.38.86.86.86,0,0,1-.11.19l0,0c-1.65,1.94-3.26,3.92-5,5.78l-2.61,2.82-.68.7c-.12.12-.26.26-.44.41l-.35.29-1.42,1.24c-1.88,1.7-3.82,3.41-5.81,5s-4,3.2-6.06,4.75a73.08,73.08,0,0,1-6.47,4.35c-2.23,1.35-4.49,2.55-6.78,3.75q-6.85,3.56-14,6.44a142.92,142.92,0,0,1-14.57,5.13c-2.5.73-5,1.36-7.44,2a67.05,67.05,0,0,1-7.66,1.62c-2.6.36-5.1.63-7.66.91s-5.2.39-7.78.43a153.27,153.27,0,0,1-15.45-.65H129a1.54,1.54,0,0,1-1.38-1.66,1.7,1.7,0,0,1,.06-.31,70.06,70.06,0,0,1,6.38-14.66,47.44,47.44,0,0,1,4.61-6.61l1.36-1.51a9,9,0,0,1,.76-.75,7,7,0,0,1,.83-.7,13.55,13.55,0,0,1,3.79-2.05,22.55,22.55,0,0,1,8.18-1,49.88,49.88,0,0,1,7.94,1.06c2.59.54,5.13,1.22,7.65,1.89,1.26.34,2.51.68,3.74.94l.92.18.43.06a1.92,1.92,0,0,0,.33,0,3.31,3.31,0,0,0,1.42-.46,14.14,14.14,0,0,0,2.86-2.25c.9-.88,1.77-1.83,2.61-2.81,1.68-2,3.28-4,4.9-6.05s3.23-4.11,5-6.07a24,24,0,0,1,2.92-2.77,6.69,6.69,0,0,1,1.87-1.06l1-.28c.34-.08.68-.12,1-.18,2.82-.38,5.39.69,7.87.83a10.58,10.58,0,0,0,3.71-.39,14.55,14.55,0,0,0,1.78-.64c.62-.24,1.22-.53,1.86-.71a36.05,36.05,0,0,1,7.72-1.6A59,59,0,0,1,229.08,227.61Z"/><path class="cls-2" d="M175.51,10s1.44,1.42-1.13,6.23-2.56,8-5.77,9-12,2.09-15.71,3.69-11.22,4-13.63,4.81-1,3.21-5.93,8.5-9.29,17.31-5.29,20.67,5.61,4.33,8.34,1,6.73-7.06,5.61-.81-4.17,8.5-9.14,9.3-10.52,10.42-6.38,17.8,8.31,16.35,13.6,13.46,7.64-5,10.39-6.57,7.72-7.86,7.72-11.7A56.25,56.25,0,0,1,159,77s4.81,6.57,8.82,5.77,4.49-4,4.49-5.77a40.84,40.84,0,0,0-.8-5.61,16.38,16.38,0,0,0,7.05,8.18c5.13,2.72,9.62,2.24,11.06-.32a60.48,60.48,0,0,0,3.2-8s5.94,3.53,1.29,9.3-7.06,7.85-12,7.85-5.93.8-11.86,5.45A45.44,45.44,0,0,1,159,100.35s-3.2-.33-8.33,3.76-4.49.57-9.14,7.79,2.88,26.13,8.82,30.45,7.69,5.45,19.07,3.37,10.58-3.53,16.67,2.56,6.41,7.38,4.65,16,1.05,10.2.73,21.1,5.36,27.16,12.26,27.64,8.33-1.93,15.38-15.07,14-18.76,16.35-24,8.34-21.32,7.86-34.94-3.21-32.06-9-36.23-13.3-6.09-19.87-7.21-3.69-6.9,3.52-6.74,11.86,1.61,16.67.16,5.93-7.85,4.81-11.7-2.56-8-2.56-8,9.13,8.33,13.3,8.65,5.83.57,5.83.57S244.91,50.66,223,33.67,175.51,10,175.51,10Z"/><path class="cls-3" d="M175.68,10.07c.07-.21-.05-.24,0-.19l0,0,.06.09.1.19c.05.13.09.26.13.4a3.55,3.55,0,0,1,.09.79,6.15,6.15,0,0,1-.19,1.55,13.21,13.21,0,0,1-1.1,2.86,57.78,57.78,0,0,0-2.46,5.51,9.72,9.72,0,0,1-1.5,2.7,4.81,4.81,0,0,1-2.71,1.56c-2,.51-4,.86-5.93,1.25s-3.95.78-5.9,1.28a26,26,0,0,0-2.84.88c-.92.37-1.87.79-2.81,1.14-3.77,1.44-7.65,2.69-11.42,4-.84.28-1.15,1.16-1.53,2.12A18.75,18.75,0,0,1,136.35,39a21.17,21.17,0,0,1-1.82,2.49c-.67.79-1.37,1.49-2,2.28a30.21,30.21,0,0,0-5.06,10.68,13.61,13.61,0,0,0-.34,5.76,4,4,0,0,0,1.29,2.3c.77.64,1.54,1.27,2.34,1.83a4.59,4.59,0,0,0,2.44,1,3.3,3.3,0,0,0,2.17-1.27c.62-.69,1.27-1.55,2-2.29a14.3,14.3,0,0,1,2.32-2.12,5.43,5.43,0,0,1,.75-.43,2.12,2.12,0,0,1,1-.21,1.36,1.36,0,0,1,1,.76,2.83,2.83,0,0,1,.24.94,10.9,10.9,0,0,1-.34,3.18,12.44,12.44,0,0,1-2.62,5.73,10.31,10.31,0,0,1-5.55,3.06c-.49.13-1.07.2-1.49.3a4.46,4.46,0,0,0-1.24.47,8.4,8.4,0,0,0-2.19,1.73,13.76,13.76,0,0,0-3.5,10.58,10.84,10.84,0,0,0,.71,2.74,11.43,11.43,0,0,0,.62,1.27l.74,1.32c1,1.77,1.94,3.53,3,5.24a30.3,30.3,0,0,0,3.41,4.78c1.28,1.4,2.91,2.5,4.47,2.06a4.58,4.58,0,0,0,1.19-.51l1.3-.74c.86-.5,1.71-1,2.54-1.56,1.68-1.07,3.29-2.25,5-3.39.42-.28.89-.56,1.3-.81a8.18,8.18,0,0,0,1.09-.82,19.71,19.71,0,0,0,2-2.07,22.72,22.72,0,0,0,3.18-4.84,9.13,9.13,0,0,0,.83-2.6,4.35,4.35,0,0,0,0-.63v-.78c0-.52,0-1,.07-1.55.13-2.06.37-4.07.7-6.11a1,1,0,0,1,1.72-.44l0,0a20.41,20.41,0,0,0,4.14,4.11,7.13,7.13,0,0,0,2.41,1.19,3,3,0,0,0,1.15.07,6.66,6.66,0,0,0,1.24-.36,3.78,3.78,0,0,0,1.84-1.54,5.19,5.19,0,0,0,.69-2.46,15.23,15.23,0,0,0-.24-2.85c-.16-1-.34-2-.55-3a1.07,1.07,0,0,1,.82-1.25,1.05,1.05,0,0,1,1.19.64l0,0a15.9,15.9,0,0,0,4.24,6,12.7,12.7,0,0,0,3.09,2,14.31,14.31,0,0,0,3.49,1.16,7.55,7.55,0,0,0,3.42-.08,3.41,3.41,0,0,0,1.34-.69,3.3,3.3,0,0,0,.86-1.25,60.29,60.29,0,0,0,2.79-7.24l0,0a1.11,1.11,0,0,1,1.41-.71,1,1,0,0,1,.25.12,8.43,8.43,0,0,1,2.68,2.7,6.19,6.19,0,0,1,.94,3.82,7.86,7.86,0,0,1-1.33,3.57c-.71,1-1.39,1.81-2.11,2.69a24.58,24.58,0,0,1-4.94,4.75,10.77,10.77,0,0,1-3.36,1.48,15.48,15.48,0,0,1-3.52.36,15.15,15.15,0,0,0-3,.27,8.31,8.31,0,0,0-2.62,1.11A62.87,62.87,0,0,0,171,94.76a48.42,48.42,0,0,1-11.58,6.82l-.16,0-.42,0a3,3,0,0,0-.44,0,3.91,3.91,0,0,0-.58.1,7.83,7.83,0,0,0-1.21.34,13.64,13.64,0,0,0-2.36,1.11,21.73,21.73,0,0,0-2.23,1.5l-1.14.87c-.39.31-.82.6-1.25.89a15.92,15.92,0,0,1-2.74,1.37,4,4,0,0,0-.95.53,7,7,0,0,0-.84.81,25.07,25.07,0,0,0-1.61,2.15l-.76,1.17a6.21,6.21,0,0,0-.55,1,12.15,12.15,0,0,0-.72,5,27.78,27.78,0,0,0,.76,5.38,44.4,44.4,0,0,0,3.85,10.34,30.37,30.37,0,0,0,2.91,4.6,13.69,13.69,0,0,0,1.74,1.88l.47.37.57.42,1.15.81a15.55,15.55,0,0,0,4.59,2.42,14.57,14.57,0,0,0,5.15.33c1.81-.14,3.66-.43,5.51-.76s3.69-.71,5.55-1.11c.93-.2,1.86-.41,2.83-.59a12.85,12.85,0,0,1,3.22-.31,6.63,6.63,0,0,1,3.43,1.22,19.72,19.72,0,0,1,2.39,2c1.41,1.36,2.75,2.68,4.1,4.16a20.77,20.77,0,0,1,1.92,2.43,10.07,10.07,0,0,1,1.38,3.09,11.06,11.06,0,0,1,.26,3.3,28.4,28.4,0,0,1-.35,3c-.16,1-.34,1.93-.53,2.87s-.33,1.79-.42,2.68a20,20,0,0,0,.07,5.3c.24,1.78.62,3.71.85,5.67a48.61,48.61,0,0,1,.32,5.9v1.47q0,.67,0,1.35c0,.9.08,1.81.16,2.72a47.35,47.35,0,0,0,2.37,10.72,36.55,36.55,0,0,0,2.15,5,18.22,18.22,0,0,0,2.95,4.23,6.75,6.75,0,0,0,1.79,1.34,3.22,3.22,0,0,0,.89.3l.47.06.65,0a10.13,10.13,0,0,0,2.4-.17,4.82,4.82,0,0,0,1.91-.83,13.6,13.6,0,0,0,3.21-3.78c1-1.53,1.9-3.17,2.8-4.82l2.7-5c.93-1.71,1.89-3.4,2.92-5.05a104.69,104.69,0,0,1,6.68-9.52l3.5-4.48a25.4,25.4,0,0,0,2.85-4.43,93.21,93.21,0,0,0,3.85-10.47,79.22,79.22,0,0,0,3.81-21.84c0-1.79-.08-3.7-.19-5.57s-.27-3.75-.46-5.61a110.31,110.31,0,0,0-1.63-11.1,46.91,46.91,0,0,0-3.16-10.44,9.89,9.89,0,0,0-2.73-3.77,29.65,29.65,0,0,0-4.61-2.68,50.71,50.71,0,0,0-10.42-3.43q-1.35-.3-2.73-.57l-1.42-.26a9.7,9.7,0,0,1-1.7-.48,6.45,6.45,0,0,1-1.77-1A4.18,4.18,0,0,1,209,93.79a4,4,0,0,1,.2-2.65,5.4,5.4,0,0,1,1.28-1.78,8.44,8.44,0,0,1,3.17-1.81A12.79,12.79,0,0,1,217,87c1.14,0,2.06,0,3.05.08s1.95.14,2.91.22c3.85.34,7.55,1,10.76.13a5.29,5.29,0,0,0,1.06-.34,4.68,4.68,0,0,0,.88-.53A5.46,5.46,0,0,0,237,84.89a9.6,9.6,0,0,0,1.14-4.64,9.37,9.37,0,0,0-.28-2.39c-.24-.85-.52-1.79-.79-2.68-.56-1.8-1.14-3.61-1.74-5.39h0a1.63,1.63,0,0,1,1-2.07,1.61,1.61,0,0,1,1.62.34c1.3,1.18,2.69,2.35,4.08,3.46a52.27,52.27,0,0,0,4.3,3.09,9.9,9.9,0,0,0,4.32,1.8c1.85.16,3.64.32,5.55.6l-1.61,2a115,115,0,0,0-5.89-12.15,131.47,131.47,0,0,0-7.15-11.52,98.66,98.66,0,0,0-18.11-20c-.86-.72-1.76-1.4-2.67-2.08l-2.71-2.05c-1.87-1.28-3.7-2.63-5.63-3.82-3.8-2.49-7.77-4.71-11.8-6.82s-8.17-4-12.38-5.74c-2.1-.88-4.23-1.7-6.36-2.49-1.08-.38-2.15-.78-3.23-1.13l-1.62-.53-.82-.26-.4-.12c-.07,0-.16,0-.14-.06A.25.25,0,0,0,175.68,10.07Zm-.35-.2a1,1,0,0,1,.37,0,1.57,1.57,0,0,1,.28.06l.41.11.83.23,1.65.48c1.1.32,2.18.68,3.27,1,2.17.73,4.33,1.48,6.47,2.3,4.28,1.63,8.5,3.43,12.61,5.45s8.19,4.15,12.1,6.56c2,1.15,3.87,2.47,5.8,3.72s3.77,2.63,5.58,4.08A100.71,100.71,0,0,1,243.6,54a133.62,133.62,0,0,1,7.52,11.6,118.84,118.84,0,0,1,6.3,12.38,1.48,1.48,0,0,1-.77,1.93,1.51,1.51,0,0,1-.75.11h-.09c-1.71-.2-3.56-.34-5.35-.47l-.34,0-.45,0a6.82,6.82,0,0,1-.86-.19,12,12,0,0,1-1.5-.55,24.47,24.47,0,0,1-2.59-1.39A52.91,52.91,0,0,1,240.1,74c-1.48-1.15-2.89-2.32-4.31-3.57l2.66-1.75c.63,1.82,1.24,3.63,1.82,5.47.3.93.57,1.81.86,2.79a12.65,12.65,0,0,1,.43,3.26A13,13,0,0,1,240,86.59a8.79,8.79,0,0,1-2.26,2.7,8.52,8.52,0,0,1-1.55,1,10.15,10.15,0,0,1-1.65.57,20.29,20.29,0,0,1-6.2.54c-2-.08-3.89-.3-5.77-.45-.93-.07-1.86-.14-2.79-.18s-1.9-.09-2.66,0a6.68,6.68,0,0,0-4.06,1.42,1.59,1.59,0,0,0-.38.52c-.06.13,0,.14,0,.14s0,.07.18.2a3,3,0,0,0,.71.38,5.73,5.73,0,0,0,1,.27l1.39.25c1,.17,1.91.35,2.87.56A52.88,52.88,0,0,1,230.17,98a33.37,33.37,0,0,1,5.26,3,10.58,10.58,0,0,1,2.44,2.53,20.4,20.4,0,0,1,1.59,2.76A51,51,0,0,1,243,117.73c.78,3.82,1.33,7.66,1.73,11.5.2,1.92.36,3.85.48,5.77s.23,3.84.22,5.85a64.25,64.25,0,0,1-1.2,11.72,103.41,103.41,0,0,1-2.86,11.31,96.55,96.55,0,0,1-4.08,11,29.4,29.4,0,0,1-3.32,5.17l-3.55,4.51a104.6,104.6,0,0,0-6.5,9.14c-1,1.57-1.94,3.18-2.84,4.82l-2.75,5c-.94,1.68-1.89,3.36-3,5a17.15,17.15,0,0,1-4.24,4.8,8.77,8.77,0,0,1-3.3,1.4,13.31,13.31,0,0,1-3.28.22l-.77,0a6.88,6.88,0,0,1-2.76-.75,10.24,10.24,0,0,1-2.75-2.07,21.56,21.56,0,0,1-3.56-5.12,40,40,0,0,1-2.32-5.51,50.76,50.76,0,0,1-2.46-11.57c-.09-1-.14-2-.16-3,0-.5,0-1,0-1.51l0-1.38a47.89,47.89,0,0,0-.26-5.5c-.2-1.83-.55-3.65-.8-5.64a23.94,23.94,0,0,1,0-6.1c.12-1,.31-2,.49-3s.37-1.84.53-2.75a13.29,13.29,0,0,0,.18-5,10,10,0,0,0-2.54-4.16c-1.21-1.34-2.57-2.71-3.9-4a17,17,0,0,0-2-1.68,3.53,3.53,0,0,0-1.86-.71,10.25,10.25,0,0,0-2.46.25c-.9.16-1.82.36-2.76.56-1.87.39-3.76.77-5.67,1.09a57.23,57.23,0,0,1-5.81.77,17.54,17.54,0,0,1-6.19-.47,18.29,18.29,0,0,1-5.46-2.87l-1.18-.85-.58-.43-.66-.52a16.85,16.85,0,0,1-2.12-2.3,33.73,33.73,0,0,1-3.17-5.07,48.07,48.07,0,0,1-4-11,31.47,31.47,0,0,1-.79-5.93,14.8,14.8,0,0,1,1-6.18,9.36,9.36,0,0,1,.78-1.47l.81-1.21a24.71,24.71,0,0,1,1.83-2.41,9.21,9.21,0,0,1,1.23-1.17,7,7,0,0,1,1.53-.86,12.73,12.73,0,0,0,2.37-1.15c.36-.25.73-.48,1.08-.76l1.14-.86a20.76,20.76,0,0,1,2.52-1.67,15.88,15.88,0,0,1,2.8-1.3,11.44,11.44,0,0,1,1.55-.43c.27,0,.54-.1.83-.13a5.13,5.13,0,0,1,1,0l-.58.07a46.14,46.14,0,0,0,10.91-6.36c1.74-1.33,3.4-2.72,5.39-4a10.59,10.59,0,0,1,3.39-1.39,17.11,17.11,0,0,1,3.5-.31,9.38,9.38,0,0,0,5.58-1.41,22.06,22.06,0,0,0,4.45-4.27A30.15,30.15,0,0,0,193.72,79a5.41,5.41,0,0,0,1-2.48,3.84,3.84,0,0,0-.59-2.42,6.23,6.23,0,0,0-1.87-1.92l1.68-.64a63.17,63.17,0,0,1-3,7.55,9.79,9.79,0,0,1-.56,1,4.92,4.92,0,0,1-.86,1,5.77,5.77,0,0,1-2.17,1.12,9.69,9.69,0,0,1-4.44.1,16.55,16.55,0,0,1-4-1.35,15.16,15.16,0,0,1-3.57-2.31,16.84,16.84,0,0,1-2.81-3.16,17.84,17.84,0,0,1-2-3.74l2-.56c.2,1,.38,2.05.54,3.09a16.49,16.49,0,0,1,.24,3.29,7.1,7.1,0,0,1-1,3.42,5.93,5.93,0,0,1-2.81,2.34,8.35,8.35,0,0,1-1.73.48,5.28,5.28,0,0,1-1.91-.11,9.16,9.16,0,0,1-3.1-1.52,22.28,22.28,0,0,1-4.55-4.6l1.74-.4a58.31,58.31,0,0,0-.73,5.9c0,.49-.06,1-.08,1.47v.73a6.51,6.51,0,0,1-.06.88,11,11,0,0,1-1,3.14,24,24,0,0,1-3.48,5.22,21.32,21.32,0,0,1-2.22,2.24,11.49,11.49,0,0,1-1.33,1c-.45.27-.85.5-1.27.77-1.66,1.07-3.31,2.27-5,3.35-.86.55-1.74,1.08-2.62,1.58l-1.34.75a6.23,6.23,0,0,1-1.59.66,4.85,4.85,0,0,1-3.5-.5,9.68,9.68,0,0,1-2.55-2.08,32.08,32.08,0,0,1-3.57-5.07c-1-1.76-2-3.54-2.95-5.31l-.73-1.32a13.8,13.8,0,0,1-.69-1.45,12,12,0,0,1-.78-3.11,14.51,14.51,0,0,1,.74-6.28,15.21,15.21,0,0,1,3.22-5.41,10,10,0,0,1,2.55-2,6,6,0,0,1,1.59-.58c.56-.12,1-.16,1.47-.29a8.85,8.85,0,0,0,4.9-2.62,11.09,11.09,0,0,0,2.38-5.14,10.37,10.37,0,0,0,.34-2.81,1.6,1.6,0,0,0-.12-.52c-.07-.11-.05-.1-.11-.11a2,2,0,0,0-1,.43,13.78,13.78,0,0,0-2.14,1.93c-.7.72-1.26,1.47-2,2.28A6.59,6.59,0,0,1,135,65.92a3.35,3.35,0,0,1-1.71.53,5.59,5.59,0,0,1-3.07-1.24c-.85-.6-1.63-1.26-2.41-1.91a4.93,4.93,0,0,1-1.61-2.88,14.55,14.55,0,0,1,.39-6.21,31,31,0,0,1,5.32-11c.62-.82,1.37-1.55,2-2.29a20.19,20.19,0,0,0,1.76-2.37A16.73,16.73,0,0,0,137,35.91a10,10,0,0,1,.66-1.43A2.59,2.59,0,0,1,139,33.37c3.87-1.28,7.69-2.48,11.46-3.89,1-.34,1.85-.73,2.81-1.11a26,26,0,0,1,2.94-.88c2-.49,4-.87,5.94-1.24s4-.72,5.91-1.2a4.26,4.26,0,0,0,2.45-1.37,9.79,9.79,0,0,0,1.44-2.55,57,57,0,0,1,2.51-5.52,13.54,13.54,0,0,0,1.09-2.76,5.93,5.93,0,0,0,.19-1.44,3.36,3.36,0,0,0-.08-.71,3,3,0,0,0-.1-.32c0-.06-.05-.1-.07-.15l0-.07,0,0C175.43,10.17,175.29,10.11,175.33,9.87Z"/><path class="cls-4" d="M131.26,274.45s4.66,1.64,26.06-13.19c5-3.46,21.69.39,30.17-3.32,12.65-5.51,14-18.15,20.08-18.15s12.6,3.66,18.68.82c5.86-2.73,11.35-8.44,11.35-8.44-20,20.94-39.61,31-56,36.61C164.63,274.63,138.61,278.4,131.26,274.45Z"/><path class="cls-5" d="M248.69,163.83s-9,21.1-4.9,26,9.74,4.9,14.11-10.93,3.92-21.1,0-21.1S248.69,163.83,248.69,163.83Z"/><path class="cls-6" d="M32,59.52a24.4,24.4,0,0,1,9,2.55c4.14,2.26,6,1.5,13.94,4.14S87.76,77.52,87.76,88.83s-8.67,13.56-6,24.49-2.64,13.2-1.13,15.83,13.57,13.95,9.05,23-17.42,11.69-28.31,10.93-13.53,1.13-20.69-2.26-20.73-.88-17.34,2.39S35,177,41.78,177.4s7.54,7.16,13.19,7.16S61.38,180,69.67,180s4.52-7.67,15.83-4.78,13.57,13.83,12.81,21S93,207.17,93.42,209.81s3.39,5.28,2.63,17,3.77,3.39,8.67,19.22,7.51,27.67,7.51,27.67S52.56,261.85,24.74,210-2.7,109.69,32,59.52Z"/><path class="cls-3" d="M31.94,59.34a1,1,0,0,1,.29,0l.19,0,.39,0,.76.1c.5.07,1,.16,1.51.26a25.28,25.28,0,0,1,3,.78,19.43,19.43,0,0,1,2.83,1.18,19.65,19.65,0,0,0,2.74,1.23c1.88.65,3.9.92,5.88,1.4s3.94,1,5.87,1.67c3.86,1.27,7.68,2.65,11.43,4.23A81.22,81.22,0,0,1,77.7,75.72a41.26,41.26,0,0,1,5,3.57A19.12,19.12,0,0,1,86.8,84,10.47,10.47,0,0,1,88,86.87a10,10,0,0,1,.2,3.17A19.32,19.32,0,0,1,87,96.13c-1.49,3.89-4.22,7.11-4.87,11a13.89,13.89,0,0,0,.22,5.77,29.21,29.21,0,0,1,.84,6.15A16.32,16.32,0,0,1,82,125.2a15,15,0,0,0-1,2.7,1.36,1.36,0,0,0,.21,1c.23.36.55.76.86,1.15a56.73,56.73,0,0,1,7.15,10,19.21,19.21,0,0,1,2,6,11,11,0,0,1-.88,6.42,17.47,17.47,0,0,1-3.88,5.06,21.12,21.12,0,0,1-5.3,3.43,29.9,29.9,0,0,1-5.9,2,41.24,41.24,0,0,1-6.13,1,49.24,49.24,0,0,1-6.19.19c-2.1-.08-4-.22-6.06-.24s-4,0-6,.06a23.7,23.7,0,0,1-6.29-.56,20.8,20.8,0,0,1-3-1l-1.44-.63c-.42-.19-.86-.36-1.3-.51a21,21,0,0,0-5.67-.94,24.75,24.75,0,0,0-5.78.43,11.32,11.32,0,0,0-2.62.82,2.56,2.56,0,0,0-.84.57s0,0,0,.07,0,0,0,0,0-.06,0,0,.57.59.9.93l1.06,1.12L28,166.45c1.39,1.46,2.79,2.88,4.26,4.21a32.66,32.66,0,0,0,4.61,3.61,11.29,11.29,0,0,0,5.06,1.9,10.42,10.42,0,0,1,3.37.79,11.37,11.37,0,0,1,2.86,1.83c1.66,1.42,2.91,3,4.37,3.83a4.75,4.75,0,0,0,2.3.63,7.79,7.79,0,0,0,2.54-.38c1.62-.52,3.22-1.84,5.26-2.76a16.35,16.35,0,0,1,6.41-1.41c.58,0,1,0,1.44-.07a7.06,7.06,0,0,0,1.26-.2,5.14,5.14,0,0,0,2.09-1.13c.63-.56,1.23-1.36,2.11-2.17a7.12,7.12,0,0,1,3.29-1.73,16.06,16.06,0,0,1,6.66.5,20.14,20.14,0,0,1,6,2.66,17.08,17.08,0,0,1,4.6,4.72A23,23,0,0,1,100,193.64a22.44,22.44,0,0,1-.86,6.43,28.16,28.16,0,0,1-2.55,5.87,28.29,28.29,0,0,0-1.31,2.54,3.26,3.26,0,0,0-.27,1,3.93,3.93,0,0,0,.2.9c.29.82.74,1.81,1.1,2.82a24.19,24.19,0,0,1,.87,3.13,33.46,33.46,0,0,1,.66,6.34c0,2.08-.12,4.24-.17,6.11l0,1.4a11.44,11.44,0,0,0,.17,1.25,2.64,2.64,0,0,0,1,1.7,23.8,23.8,0,0,1,2.36,2.14,11.22,11.22,0,0,1,1.09,1.32,13.48,13.48,0,0,1,.92,1.4,31.39,31.39,0,0,1,2.63,5.86c.71,2,1.26,3.9,1.86,5.86,2.36,7.8,4.52,15.62,6.39,23.6a1.87,1.87,0,0,1-1.39,2.23,1.8,1.8,0,0,1-.8,0c-2.91-.6-5.63-1.35-8.39-2.17s-5.46-1.73-8.14-2.72a150.19,150.19,0,0,1-15.77-6.76,140.83,140.83,0,0,1-28.75-18.72,122.64,122.64,0,0,1-12.33-12A121,121,0,0,1,28,219.41a124,124,0,0,1-8.27-15c-.62-1.28-1.3-2.54-1.87-3.84l-1.69-3.94c-1.12-2.62-2.32-5.21-3.23-7.92l-1.46-4c-.47-1.35-1-2.66-1.39-4L7.7,172.36c-.65-2.79-1.24-5.58-1.87-8.37-.35-1.39-.51-2.81-.72-4.23l-.63-4.24A121,121,0,0,1,5,121.36,127.52,127.52,0,0,1,8.75,104.7l2.7-8.11,3.31-7.85c.52-1.33,1.19-2.58,1.82-3.85l1.92-3.8c.66-1.26,1.24-2.56,2-3.77l2.16-3.67C25.34,68.72,28.79,64,31.94,59.34Zm.17.36c-2.95,4.85-6,9.41-8.58,14.46l-2,3.71c-.68,1.23-1.21,2.54-1.82,3.8L17.9,85.5a41.3,41.3,0,0,0-1.68,3.86,126.85,126.85,0,0,0-8.83,32.35,122.74,122.74,0,0,0,.22,33.38l.66,4.14c.23,1.37.41,2.76.77,4.11L11,171.49l2.46,8c.37,1.34.94,2.63,1.41,3.94l1.49,3.92c.92,2.64,2.14,5.17,3.26,7.73l1.71,3.83c.57,1.27,1.26,2.5,1.89,3.75,1.29,2.47,2.5,5,3.87,7.43l2.08,3.61,2.24,3.5a117.79,117.79,0,0,0,10.15,13.18A120,120,0,0,0,53.5,242a141.31,141.31,0,0,0,27.86,18.29A158,158,0,0,0,96.69,267c2.61,1,5.25,1.89,7.91,2.71s5.37,1.59,8,2.16l-2.19,2.24c-1.75-7.82-3.84-15.66-6.1-23.39-1.17-3.88-2.18-7.77-4-11a10.28,10.28,0,0,0-.74-1.15,9.22,9.22,0,0,0-.83-1,20.41,20.41,0,0,0-2.13-2c-.23-.23-.46-.45-.68-.7s-.43-.58-.61-.88-.3-.64-.44-1l-.24-.94a13.78,13.78,0,0,1-.23-1.75l0-1.65c.08-2.17.23-4.05.22-6a29.4,29.4,0,0,0-.54-5.74,19.51,19.51,0,0,0-.74-2.72c-.3-.91-.7-1.76-1.08-2.86a5.6,5.6,0,0,1-.35-2.07,5.84,5.84,0,0,1,.51-2,28,28,0,0,1,1.48-2.86,25.75,25.75,0,0,0,2.34-5.23A21.07,21.07,0,0,0,94,182.88a14.15,14.15,0,0,0-3.79-4,17.36,17.36,0,0,0-5-2.28,13.54,13.54,0,0,0-5.37-.51,4.25,4.25,0,0,0-2,1.05c-.63.55-1.26,1.38-2.14,2.17a7.9,7.9,0,0,1-3.22,1.71,9.69,9.69,0,0,1-1.73.27l-1.6.07a13.54,13.54,0,0,0-5.38,1.13,25.75,25.75,0,0,0-2.55,1.38,14.73,14.73,0,0,1-3,1.44,10.35,10.35,0,0,1-3.44.49,7.36,7.36,0,0,1-3.49-1,12.84,12.84,0,0,1-2.63-2.1c-.74-.73-1.42-1.44-2.12-2.06a7.86,7.86,0,0,0-4.74-2.06,13.42,13.42,0,0,1-6.21-2.32,35.62,35.62,0,0,1-4.93-3.89c-1.52-1.41-2.95-2.88-4.35-4.37l-2.07-2.23-1-1.1A11.87,11.87,0,0,1,22,163.45a2.3,2.3,0,0,1-.4-1.42,2.49,2.49,0,0,1,.19-.77,3.2,3.2,0,0,1,.37-.56,4.63,4.63,0,0,1,1.62-1.18,13.73,13.73,0,0,1,3.17-1,26.82,26.82,0,0,1,6.31-.43,23.07,23.07,0,0,1,6.28,1.09c.51.18,1,.39,1.52.62l1.34.6a19.42,19.42,0,0,0,2.73.91,21.88,21.88,0,0,0,5.77.55c2,0,4.05-.07,6.1,0s4.13.2,6.09.29a49.25,49.25,0,0,0,5.95-.12,39.69,39.69,0,0,0,5.86-.91,29,29,0,0,0,5.58-1.87,19.46,19.46,0,0,0,4.9-3.1,15.56,15.56,0,0,0,3.51-4.49,9.39,9.39,0,0,0,.79-5.45,17.82,17.82,0,0,0-1.84-5.48,55.41,55.41,0,0,0-6.88-9.8,14.12,14.12,0,0,1-1-1.3,2.88,2.88,0,0,1-.4-1.92,6.65,6.65,0,0,1,.48-1.63l.58-1.39A15,15,0,0,0,81.8,119a27,27,0,0,0-.76-5.87,15.27,15.27,0,0,1-.16-6.28,19.43,19.43,0,0,1,2.3-5.8,46.46,46.46,0,0,0,2.74-5.34A18.23,18.23,0,0,0,87.18,90,8.83,8.83,0,0,0,87,87.11,9.33,9.33,0,0,0,86,84.45,18,18,0,0,0,82.08,80a38.5,38.5,0,0,0-4.84-3.54c-6.86-4.24-14.44-7.23-22.08-9.85-1.91-.65-3.84-1.24-5.8-1.71s-4-.78-5.92-1.47a20.76,20.76,0,0,1-2.79-1.28A18.18,18.18,0,0,0,37.89,61a24.42,24.42,0,0,0-2.9-.8c-.49-.1-1-.2-1.48-.27l-.75-.1-.37,0H32.2S32,59.75,32.11,59.7Z"/><path class="cls-6" d="M50.6,38.68s6.26,8.12,17.94,5.48S82.86,35.5,82.86,35.5l4.9,3s1.51,18.85,7.54,18.85,18.47-7.54,18.47-19.23a86.53,86.53,0,0,0-.43-9.28,3.63,3.63,0,0,1,3.94-4,17,17,0,0,0,11.19-2.89c8.66-5.65,7.21-16.66,7.21-16.66S91.08.4,50.6,38.68Z"/><path class="cls-3" d="M50.8,38.69s0-.13,0-.11l0,0,.05,0,.09.11.19.2.4.41c.27.26.55.52.84.76a17.38,17.38,0,0,0,5.92,3.3,18.2,18.2,0,0,0,8.94.53A32.44,32.44,0,0,0,75.78,41a19.61,19.61,0,0,0,3.71-2.5A15.32,15.32,0,0,0,81.05,37a8.7,8.7,0,0,0,1.19-1.74h0a.7.7,0,0,1,.93-.33l0,0,4.94,3a.74.74,0,0,1,.35.55v0a61.34,61.34,0,0,0,2.3,11.7,15.46,15.46,0,0,0,2.5,5.06,2.76,2.76,0,0,0,1.85,1.11,9.62,9.62,0,0,0,2.65-.41,22.49,22.49,0,0,0,9.66-6,17.23,17.23,0,0,0,4.88-10,47.83,47.83,0,0,0,0-5.86c0-1-.11-2-.19-3L112,29.57l0-.37,0-.18,0-.26a4.53,4.53,0,0,1,0-1,5,5,0,0,1,2.15-3.49,4.78,4.78,0,0,1,2-.81,4.73,4.73,0,0,1,1.06-.07l.45,0,.34,0a14.91,14.91,0,0,0,5.43-.71,17.08,17.08,0,0,0,4.9-2.55,13.6,13.6,0,0,0,3.56-4A16.12,16.12,0,0,0,133.65,11,21.19,21.19,0,0,0,134,8.2a16.74,16.74,0,0,0-.09-2.69l1.62,1.58a77.71,77.71,0,0,0-11.39.22,110.12,110.12,0,0,0-11.41,1.56,127.16,127.16,0,0,0-22.19,6.2c-3.59,1.39-7.15,2.89-10.61,4.61S73,23.23,69.7,25.23,63.14,29.37,60,31.64c-1.62,1.1-3.12,2.33-4.69,3.5Zm-.4,0,2-2.15c.69-.72,1.47-1.52,2.18-2.16,1.45-1.32,2.85-2.71,4.37-4l2.24-1.93c.76-.62,1.55-1.22,2.33-1.83,1.54-1.23,3.15-2.38,4.76-3.52a112.43,112.43,0,0,1,10.09-6.27,103.66,103.66,0,0,1,10.71-5.2A107.87,107.87,0,0,1,112,4.77a112.25,112.25,0,0,1,11.86-1.44,77.36,77.36,0,0,1,12.07.12h0A1.73,1.73,0,0,1,137.49,5a20.06,20.06,0,0,1,0,3.37,24,24,0,0,1-.45,3.25,19.67,19.67,0,0,1-2.39,6.16,16.82,16.82,0,0,1-4.54,4.89,20.25,20.25,0,0,1-5.87,2.91,18.11,18.11,0,0,1-6.54.73l-.42,0-.19,0H117a1.68,1.68,0,0,0-.45,0,2,2,0,0,0-.83.32,2.2,2.2,0,0,0-1,1.5,2.42,2.42,0,0,0,0,.47v.12l0,.19,0,.39.12,1.55c.07,1,.11,2.05.14,3.08s0,2,0,3.07a25.16,25.16,0,0,1-.15,3.19,19.8,19.8,0,0,1-5.77,11.32,26.09,26.09,0,0,1-5,3.92A22.66,22.66,0,0,1,98.37,58a11.17,11.17,0,0,1-3.34.41,4,4,0,0,1-1.89-.65,6.14,6.14,0,0,1-1.35-1.22,17.26,17.26,0,0,1-2.72-5.81A62.72,62.72,0,0,1,87,38.57l.36.59L82.5,36.08l1-.31a9.3,9.3,0,0,1-1.45,2,15.09,15.09,0,0,1-1.74,1.66,21,21,0,0,1-4,2.55,33.21,33.21,0,0,1-8.92,2.82,19,19,0,0,1-9.3-.79,18,18,0,0,1-4.17-2.12,18.22,18.22,0,0,1-1.84-1.44c-.29-.26-.57-.53-.85-.81l-.4-.43L50.63,39l-.09-.11,0-.06,0,0A.27.27,0,0,1,50.4,38.66Z"/></g><path class="cls-4" d="M142.66,260.22s1.05.86,1.1-.23-2.28-1.67-3.24-.62a2.74,2.74,0,0,0-.09,3.65c.9.9,2.37.91,2.15,0a3,3,0,0,0-.89-1.49Z"/><circle class="cls-7" cx="142.21" cy="261.54" r="1.41"/><path class="cls-4" d="M185.3,251.75s1.1-.08.62-1.08a1.9,1.9,0,0,0-3.16-.45c-1.13,1.26-.93,3.05.11,3.29s1.33,0,1.21-.73S185.3,251.75,185.3,251.75Z"/><path class="cls-7" d="M185.3,251.75a1.13,1.13,0,1,1-1-1.23A1.12,1.12,0,0,1,185.3,251.75Z"/><path class="cls-4" d="M199.56,184.45s-1-2.45-1.56-.41,1.15,4.59,1.88,3.13A2.61,2.61,0,0,0,199.56,184.45Z"/><ellipse class="cls-7" cx="199.72" cy="185.81" rx="0.9" ry="1.37" transform="translate(-20.74 25.15) rotate(-6.85)"/><path class="cls-4" d="M197,193.2s-.35-1.86-1.72-.41c-.72.76-.42,3.22,1,3.72s2.89-.28,2.63-.95c-.38-1-1.8-.51-2-.87S197,193.2,197,193.2Z"/><path class="cls-4" d="M203.13,199.56s-.09-.65-1-.62-1.17,2.55.37,3,3.73.06,3.63-.77-1.63-.57-1.63-.57Z"/><circle class="cls-7" cx="197.37" cy="193.98" r="1.09"/><circle class="cls-7" cx="204.07" cy="200.01" r="1.05"/><path class="cls-8" d="M274.93,140.33c-.17,87.59-61.75,139.83-137.92,139.83S.5,210.27.5,140.33C.5,65,57.74.5,137,.5,237.6.5,275.05,75.64,274.93,140.33Z"/><path class="cls-4" d="M205.85,186.33s4.17,5.44,10.93-6.24,17.79-24.54,17.08-41.24-3.56-30.22-20.64-33.42-17.79-10.32-32.73-1.78-24.2,13.17-19.22,22.78,13.41,9.6,23.43,5.33,13,7.48,14.55,17.8S197.41,168.67,205.85,186.33Z"/><path class="cls-4" d="M194.39,17.5s-4.73,13.7-13.75,18-28.42.7-30.28,10c-2,10,.28,23.66-4.28,26.29s-9.93,8.86-3.27,12.61,8.49-4.72,12.25-14.11S168,56.36,175.52,61.57s16.8-8.3,23.3-7.22,2.63,15.9,16.54,15.14,11.11-6.36,13.74-14.67,9-4.25,9-4.25S227.83,32.71,194.39,17.5Z"/><path class="cls-9" d="M270.33,149.43c.27-1.61-.48-11.45-.71-15.64-.2-3.68-.09-8.6-3.54-26.32C262.26,87.86,252,63.73,245,55.11c-1.77-2.18-4.26-5.56-4.33-5.64-15.3-18.26-43.14-33-63.16-38.71C141.82.68,122.93,3.64,115,5.57c-1.35.33.09,2.7,1,3.75,3.38,3.86,9.85,12.42,10.3,21.68.34,6.88-.91,8.48-2.71,17.18C122.38,53.93,122,74,130.8,76.07s7.06-9.91,7.36-7-.71,11.76-4.28,24.7c-3.25,11.77-4.88,18.7-5.15,19.86a2,2,0,0,0,0,.35l-.28,8.29a1.87,1.87,0,0,0,.46,1.28c2,2.35,3.63,4.41,4.15,5.1a1.88,1.88,0,0,1,.29.54l1.47,4.46a1.81,1.81,0,0,0,.5.77c.93.86,3.34,3,4.05,3.49a2,2,0,0,1,.37.3l7.42,7.78a1.81,1.81,0,0,0,1.17.57c2.2.19,9,.73,12.13.9a1.85,1.85,0,0,0,1.92-1.54l1.36-7.93c.34-.17-.69-5.16-.49-5.48l-1.32-13a2.11,2.11,0,0,1,.69-.67l3.24-4.22c1.21-.71,4.59-.9,5.79-.19L174.9,117c1.12.66,0,2.57,0,3.86l.5,9.71c0,.07,0,.14,0,.21l-.09,17.75a1.85,1.85,0,0,0,.9,1.59c.66.39,1.56.83,2.23,1.16a1.83,1.83,0,0,1,1,1.36l.12.69a1.86,1.86,0,0,0,.52,1c.83.83,2.44,2.61,2.87,2.52l7.73-1.23c.91-.19,2.24-2.94,2.64-2.11l3.11,6.6a2,2,0,0,0,1.7,1.15l4.12,1.74a1.4,1.4,0,0,0,.29.09,53.82,53.82,0,0,1,6.26,1.18c1.13.34,2.74.59,2.84-.58l.73-8.88a1.84,1.84,0,0,1,3.05-1.25,2.08,2.08,0,0,1,.49.8l2.82,8.77a21.94,21.94,0,0,0,3.48,4.84,1.85,1.85,0,0,0,3.2-1.17l.23-4.22c.64-.57-.75-.42,0,0l2.23-1.85c1,.59,3.5,4.63,3.67,5.8l-.08,13.68,4.34,34.67a3.84,3.84,0,0,0,3.59,3.36l7.61,3c1,.07,2.7-5.17,2.85-6.21L257,200.82a1.64,1.64,0,0,0,.22-.51l9.33-28.75Z"/><path class="cls-10" d="M241,223.92l-2.91-.73-8-16.78.92-41.76-5.29-6.79-.33,9.31-5.82-.46-4.63-17.61-.94-3,2.8-1.54,2.55,4.6a9,9,0,0,0,7.24,4.59c1.2.08,2.55.21,4,.42,4.73.68,9,11.86,12.86,36.91,1.37,9,8.39,6.62,10.56,1.91,2.57-5.54,3-7.62,5.11-12.12a10.54,10.54,0,0,0,.75-2.24l8.79-25.93s4.07,27.86-24,70.43"/><path class="cls-10" d="M129.14,127.67l11.74,16.47L162.07,146l1.63-9.51-3.1-16.89,5.22-5,5.79-.19L174.9,117l.71,19.26.2,14.42,5.41,2.53,8.16,2.43,3.21-2.29,6,7.93,13,3,5.25-19.7s-12.36,6.84-14.56,7.48a15.73,15.73,0,0,1-3,.46,7,7,0,0,1-5.76-2.37h0l-.26-1.11a9.14,9.14,0,0,1-6.38-9.17c.15-7.39-3.46-24.1-4.88-26s-7.11-7.22-12.69-4.17-8.62,9.95-8.62,9.95.1,7.8-12.29,7.6c-7-.12-15.45-5.38-20.16-8"/><path class="cls-11" d="M232.05,185.81s-1.5,25.52,5.55,31.81S257,200.82,257,200.82s-15.21,35.25-24.55,29.25C223.93,224.61,232.05,185.81,232.05,185.81Z"/><path class="cls-11" d="M192.78,150.29s-7.14,3.08-12.17-4.93c-1.57-2.5-6.14-10.61-6.14-10.61S177.88,172.13,192.78,150.29Z"/><path class="cls-11" d="M163.64,133.94s-1.29,5.65-9.87,5.7c-7,.05-19.72-4.89-19.72-4.89C136.31,142.91,165.13,159.3,163.64,133.94Z"/><path class="cls-11" d="M213.48,154.49s-4.45,7.38-11.79,2.88c-2.51-1.54-7.6-4.28-7.6-4.28S207.68,178.41,213.48,154.49Z"/><path class="cls-3" d="M214.56,147.62a11.22,11.22,0,0,1,1.74,2.23c.23.42.45.85.65,1.31s.33.91.46,1.38a14.22,14.22,0,0,0,.5,1.34,1.65,1.65,0,0,1,.06,1.17,4.2,4.2,0,0,1-.6,1.11,11.81,11.81,0,0,1-1.15,1.45h0a.46.46,0,0,1-.45.14,3.6,3.6,0,0,1-1.74-1,3.77,3.77,0,0,1-.88-1.41,2,2,0,0,1,0-1.37,10.45,10.45,0,0,0,.43-1.21c.08-.38.16-.76.21-1.15s.14-.78.19-1.19c.1-.82.12-1.68.17-2.61h0a.25.25,0,0,1,.27-.24A.24.24,0,0,1,214.56,147.62Z"/><path class="cls-3" d="M197,18.26a99,99,0,0,0-9.71-4.33c-1.66-.63-3.33-1.23-5-1.78a48.47,48.47,0,0,0-5.1-1.46c-6.94-1.49-13.86-3.14-20.86-4.27-3.49-.59-7-1-10.54-1.26s-7.07-.36-10.6-.29a155.84,155.84,0,0,0-21.12,1.84L114.67,5A54.53,54.53,0,0,1,122,14.33a39.53,39.53,0,0,1,4.85,11,24.12,24.12,0,0,1,.15,12.2c-.28,1.06-.56,1.87-.78,2.79s-.42,1.83-.59,2.75a55.63,55.63,0,0,0-.69,5.62,61,61,0,0,0,.2,11.31,36.44,36.44,0,0,0,1,5.47,17.9,17.9,0,0,0,2,4.88,7.91,7.91,0,0,0,1.53,1.78,4.09,4.09,0,0,0,1.84.88,2.26,2.26,0,0,0,2.87-1.32,12.39,12.39,0,0,0,1.06-4.87,32.84,32.84,0,0,0-.2-5.44h0a1.92,1.92,0,0,1,3.78-.66,56.71,56.71,0,0,1,1.6,13.42,47.65,47.65,0,0,1-2.11,13.45,127.81,127.81,0,0,1-4.7,12.44l-1.25,3a29.53,29.53,0,0,0-1.05,2.89,35.16,35.16,0,0,0-1.23,6,37.54,37.54,0,0,0,.65,12.33,27.33,27.33,0,0,0,5,11,36.36,36.36,0,0,0,4.13,4.62,17.21,17.21,0,0,0,4.91,3.17,25.92,25.92,0,0,0,11.94,1.48c1-.07,2.09-.19,3.13-.32a1.5,1.5,0,0,0,1.25-.76,5.76,5.76,0,0,0,.67-2.3,18,18,0,0,0,.09-3,124.33,124.33,0,0,0-1.71-12.75c-.17-1.1-.33-2.2-.44-3.35a16.33,16.33,0,0,1,0-3.71,5.8,5.8,0,0,1,.27-1.16,4.79,4.79,0,0,1,.3-.67,3.17,3.17,0,0,1,.23-.36l.16-.21a9.11,9.11,0,0,1,1.44-1.47,10.71,10.71,0,0,1,3.49-1.86,9.83,9.83,0,0,1,7.81.67,8.34,8.34,0,0,1,1.68,1.27,7.47,7.47,0,0,1,.7.78c.11.13.2.28.3.42l.16.21.17.3a6.56,6.56,0,0,1,.67,2.16,12.52,12.52,0,0,1,.13,1.89,51.67,51.67,0,0,1-.64,6.77c-.3,2.17-.62,4.31-.86,6.44a52.13,52.13,0,0,0-.38,6.32,20.17,20.17,0,0,0,.84,5.94,10.1,10.1,0,0,0,1.2,2.52c.57.8,1.24,1.67,1.89,2.45a15.82,15.82,0,0,0,4.41,3.85,3.74,3.74,0,0,0,4.38-.21,10.4,10.4,0,0,0,3-4.62v0a1.61,1.61,0,0,1,2.05-1,1.64,1.64,0,0,1,1.08,1.36,16.4,16.4,0,0,0,.58,2.74,16.9,16.9,0,0,0,1,2.66,13.16,13.16,0,0,0,3.41,4.38,11.92,11.92,0,0,0,5,2.37,14.89,14.89,0,0,0,2.77.35,5.1,5.1,0,0,0,2.34-.47c1.33-.64,2.16-2.2,2.57-4a31.13,31.13,0,0,0,.57-5.95c0-.53,0-1.06.1-1.65,0-.29.06-.59.13-.95.05-.18.09-.36.18-.61a2.34,2.34,0,0,1,.63-.91,1.82,1.82,0,0,1,1.83-.34,2.12,2.12,0,0,1,1,.77,4.23,4.23,0,0,1,.54,1.06,15.24,15.24,0,0,1,.48,1.69c.47,2.13.79,4.18,1.2,6.2a39.2,39.2,0,0,0,1.54,5.83,10.17,10.17,0,0,0,1.24,2.42,3.21,3.21,0,0,0,.76.73,1.36,1.36,0,0,0,.73.23,2.42,2.42,0,0,0,.92-.23,2,2,0,0,0,.74-.53,2.8,2.8,0,0,0,.42-2,22.91,22.91,0,0,0-.53-2.94c0-.15-.05-.31-.07-.51a2.57,2.57,0,0,1,.05-.83,1.75,1.75,0,0,1,.5-.88,1.66,1.66,0,0,1,1.09-.42,2.2,2.2,0,0,1,.95.21,8.49,8.49,0,0,1,1.61,1,12.3,12.3,0,0,1,2.48,2.51,11.76,11.76,0,0,1,1.6,3.16,19.7,19.7,0,0,1,.79,6.66c-.15,4.35-.86,8.47-1.34,12.61a102.68,102.68,0,0,0-.86,12.36c0,2,.09,4.18.05,6.28s-.11,4.23-.23,6.33c-.21,4.2-.7,8.4-.74,12.46,0,2,.15,4.06,1,5.41s2.65,1.83,4.59,1.89a5.24,5.24,0,0,0,1.29-.06,5.08,5.08,0,0,0,1.2-.43,9.3,9.3,0,0,0,2.27-1.62,26.11,26.11,0,0,0,3.75-4.67,85.09,85.09,0,0,0,5.78-10.95c1.77-3.83,3.67-7.55,5.49-11.31.92-1.87,1.83-3.75,2.7-5.64.44-1,.82-1.83,1.17-2.83s.73-2,1.07-2.93q2.09-5.86,3.58-11.92c1-4,1.8-8.11,2.52-12.22A122.13,122.13,0,0,0,269,139.82a172.41,172.41,0,0,0-7.73-49.26A160.55,160.55,0,0,0,252,67.3a87.29,87.29,0,0,0-23.14-29.23c-3.22-2.66-6.63-5.08-10-7.57-.84-.61-1.66-1.32-2.48-1.9s-1.79-1.06-2.7-1.57c-1.83-1-3.67-2-5.52-3Zm.19-.36,11.13,5.8q2.78,1.47,5.52,3c.92.51,1.83,1,2.73,1.59s1.65,1.29,2.51,1.91c3.35,2.49,6.77,4.91,10,7.58a87.75,87.75,0,0,1,9.13,8.64,96.74,96.74,0,0,1,14.23,20.66A162.26,162.26,0,0,1,262,90.32a174.56,174.56,0,0,1,8.46,49.48,122.41,122.41,0,0,1-1.77,25.14,140.37,140.37,0,0,1-6,24.52c-.34,1-.7,2-1.07,3s-.78,2-1.21,3c-.87,1.92-1.78,3.81-2.69,5.7-1.81,3.77-3.71,7.52-5.41,11.29a88.14,88.14,0,0,1-5.87,11.27,28.39,28.39,0,0,1-4.07,5.1,11.89,11.89,0,0,1-2.81,2,7.27,7.27,0,0,1-1.75.62,7.44,7.44,0,0,1-1.84.12,11.49,11.49,0,0,1-3.44-.58,6.08,6.08,0,0,1-3-2.31,8.52,8.52,0,0,1-1.24-3.4,20.9,20.9,0,0,1-.24-3.31c0-4.32.49-8.44.67-12.6.11-2.08.18-4.15.19-6.22s-.07-4.11-.09-6.26a106.81,106.81,0,0,1,.8-12.67c.46-4.18,1.15-8.33,1.25-12.36a16.77,16.77,0,0,0-.69-5.73,8.67,8.67,0,0,0-3.16-4.33,6.84,6.84,0,0,0-1-.68s-.07,0,.2,0a1.17,1.17,0,0,0,.73-.3,1.08,1.08,0,0,0,.32-.53c0-.17,0-.11,0-.06s0,.16,0,.27a24.52,24.52,0,0,1,.59,3.23,7.26,7.26,0,0,1-.1,1.95,4.72,4.72,0,0,1-.93,2A4.78,4.78,0,0,1,225.1,169a4.86,4.86,0,0,1-2.11.49,4.26,4.26,0,0,1-2.24-.64,6.25,6.25,0,0,1-1.51-1.42,12.55,12.55,0,0,1-1.65-3.12,40.2,40.2,0,0,1-1.71-6.28c-.44-2.07-.78-4.16-1.23-6.11a11.31,11.31,0,0,0-.38-1.33,1.78,1.78,0,0,0-.15-.34s0,.12.41.27a1.05,1.05,0,0,0,.57,0,1.2,1.2,0,0,0,.52-.24,1,1,0,0,0,.21-.26l0,.14c0,.15-.06.38-.08.6,0,.46-.05,1-.07,1.49a33.2,33.2,0,0,1-.61,6.52,11.72,11.72,0,0,1-1.28,3.37,7,7,0,0,1-2.85,2.71,7.92,7.92,0,0,1-3.74.83,17.59,17.59,0,0,1-3.44-.4,15.1,15.1,0,0,1-6.27-3,16.48,16.48,0,0,1-4.29-5.41,21.33,21.33,0,0,1-1.26-3.15,19.46,19.46,0,0,1-.73-3.4l3.14.34a16.15,16.15,0,0,1-1.54,3.34,11.13,11.13,0,0,1-2.5,2.9,6.91,6.91,0,0,1-3.93,1.53,7.83,7.83,0,0,1-4-.94A18.69,18.69,0,0,1,176.9,153c-.76-.89-1.43-1.74-2.12-2.72a13.38,13.38,0,0,1-1.65-3.35,23.28,23.28,0,0,1-1.06-7,53.72,53.72,0,0,1,.35-6.75c.23-2.21.54-4.39.82-6.54a48.21,48.21,0,0,0,.55-6.27,5.54,5.54,0,0,0-.37-2.32l0-.06-.08-.12c-.06-.08-.11-.16-.18-.24s-.26-.29-.39-.43a5.34,5.34,0,0,0-.94-.7,6.21,6.21,0,0,0-4.88-.31,6.93,6.93,0,0,0-2.24,1.21,5,5,0,0,0-.84.88l-.1.11s0,0,0,0a.24.24,0,0,0,0,.08,2.07,2.07,0,0,0-.09.43,13.59,13.59,0,0,0,.06,2.82c.11,1,.26,2.08.43,3.14A121.93,121.93,0,0,1,166,138a22.78,22.78,0,0,1-.09,3.58,9.51,9.51,0,0,1-1.21,3.92,5.45,5.45,0,0,1-4.08,2.62c-1.12.15-2.24.28-3.38.36a29.68,29.68,0,0,1-13.8-1.73,21.36,21.36,0,0,1-6.07-3.87,41.37,41.37,0,0,1-4.63-5.1,31.56,31.56,0,0,1-5.79-12.64,41.58,41.58,0,0,1-.69-13.71,37.73,37.73,0,0,1,1.41-6.77,31.51,31.51,0,0,1,1.18-3.26l1.27-3a121.37,121.37,0,0,0,4.59-12,47.34,47.34,0,0,0,.64-24.87l3.78-.67a35.52,35.52,0,0,1,.16,6.18,16,16,0,0,1-1.58,6.4,6.31,6.31,0,0,1-2.9,2.8,6.39,6.39,0,0,1-4,.28,7.85,7.85,0,0,1-3.34-1.66,11.51,11.51,0,0,1-2.23-2.65,21.67,21.67,0,0,1-2.37-5.86,41.5,41.5,0,0,1-1-6,59.65,59.65,0,0,1,0-11.95,57.08,57.08,0,0,1,.87-5.92c.2-1,.43-2,.7-2.93s.62-2,.85-2.8a21.35,21.35,0,0,0,.11-10.83A37.36,37.36,0,0,0,120,15.53a52.36,52.36,0,0,0-6.8-9.1l0,0a1,1,0,0,1,0-1.42.92.92,0,0,1,.57-.27,156.07,156.07,0,0,1,21.39-1.28c3.57,0,7.14.25,10.7.58s7.09.83,10.6,1.48c7,1.23,13.92,3,20.85,4.58a48.16,48.16,0,0,1,5.14,1.53q2.52.86,5,1.85A100.05,100.05,0,0,1,197.22,17.9Z"/></g></g></svg>