<svg id="Capa_1" enable-background="new 0 0 512 512" height="512" viewBox="0 0 512 512" width="512" xmlns="http://www.w3.org/2000/svg"><g><g><path d="m68.506 46.985v435.006c0 11.04 8.95 19.99 19.99 19.99h122.591 89.827 122.591c11.04 0 19.99-8.95 19.99-19.99v-435.006c0-11.04-8.95-19.99-19.99-19.99h-335.009c-11.041 0-19.99 8.95-19.99 19.99z" fill="#ff7b79"/><path d="m110.775 69.011v390.957h215.015l75.435-75.435v-315.522z" fill="#fff7bf"/><path clip-rule="evenodd" d="m299.346 191.089h-80.181l-18.275-68.302h116.73z" fill="#7ddac2" fill-rule="evenodd"/><path d="m325.135 384.53h76.091v75.438h-76.091z" fill="#ffee80"/></g><g><circle cx="256" cy="501.98" r="10"/><path d="m423.455 16.976h-45.35v-6.956c0-5.533-4.486-10.02-10.02-10.02s-10.02 4.486-10.02 10.02v6.956h-54.684v-6.956c0-5.533-4.486-10.02-10.02-10.02s-10.02 4.486-10.02 10.02v6.956h-54.685v-6.956c0-5.533-4.486-10.02-10.02-10.02s-10.02 4.486-10.02 10.02v6.956h-54.684v-6.956c0-5.533-4.486-10.02-10.02-10.02s-10.02 4.486-10.02 10.02v6.956h-45.35c-16.574 0-30.059 13.484-30.059 30.059v434.907c0 16.574 13.484 30.059 30.059 30.059h122.542c5.534 0 10.02-4.486 10.02-10.02s-4.486-10.02-10.02-10.02h-122.539c-5.525 0-10.02-4.495-10.02-10.02v-434.907c0-5.524 4.495-10.02 10.02-10.02h45.35v21.977h-23.119c-5.534 0-10.02 4.486-10.02 10.02v390.957c0 5.533 4.486 10.02 10.02 10.02h290.451c5.534 0 10.02-4.486 10.02-10.02l-.001-390.957c0-5.533-4.486-10.02-10.02-10.02h-23.119v-21.976h45.35c5.525 0 10.02 4.495 10.02 10.02v434.907c0 5.524-4.495 10.02-10.02 10.02h-122.544c-5.534 0-10.02 4.486-10.02 10.02s4.487 10.018 10.02 10.018h122.542c16.574 0 30.059-13.484 30.059-30.059v-434.907c0-16.574-13.485-30.058-30.059-30.058zm-140.113 20.039v21.977h-54.685v-21.977zm-129.408 0h54.684v21.977h-54.684zm196.044 412.933 41.228-41.229v41.229zm-14.169-14.171v-41.228h41.227zm55.396-61.267h-65.415c-5.534 0-10.02 4.486-10.02 10.02v65.419h-194.975v-370.919h270.41zm-33.139-315.519h-54.684v-21.976h54.684z"/><path d="m211.029 192.364c1.173 4.382 5.143 7.43 9.679 7.43h77.093c4.536 0 8.507-3.048 9.679-7.43l17.531-65.523 2.226-7.445h10.922c5.534 0 10.02-4.486 10.02-10.02 0-5.533-4.486-10.02-10.02-10.02h-18.384c-4.428 0-8.331 2.907-9.6 7.149l-2.265 7.576h-104.773c-3.114 0-6.051 1.448-7.948 3.919-1.896 2.471-2.536 5.682-1.731 8.691zm91.291-58.243-12.21 45.633h-61.71l-12.21-45.633z"/><path d="m163.642 267.253h110.76c5.534 0 10.02-4.486 10.02-10.02s-4.486-10.02-10.02-10.02h-110.76c-5.534 0-10.02 4.486-10.02 10.02s4.486 10.02 10.02 10.02z"/><path d="m163.642 318.468h110.76c5.534 0 10.02-4.486 10.02-10.02s-4.486-10.02-10.02-10.02h-110.76c-5.534 0-10.02 4.486-10.02 10.02s4.486 10.02 10.02 10.02z"/><path d="m163.642 369.681h110.76c5.534 0 10.02-4.486 10.02-10.02s-4.486-10.02-10.02-10.02h-110.76c-5.534 0-10.02 4.486-10.02 10.02s4.486 10.02 10.02 10.02z"/><path d="m163.642 420.895h110.76c5.534 0 10.02-4.486 10.02-10.02s-4.486-10.02-10.02-10.02h-110.76c-5.534 0-10.02 4.486-10.02 10.02s4.486 10.02 10.02 10.02z"/><path d="m326.659 246.981-4.092-4.221c-3.851-3.973-10.194-4.07-14.168-.221-3.973 3.852-4.072 10.196-.22 14.168l10.416 10.746c1.955 2.017 4.569 3.046 7.197 3.046 2.196 0 4.401-.718 6.237-2.18l25.52-20.312c4.33-3.446 5.046-9.75 1.6-14.079-3.447-4.33-9.75-5.047-14.079-1.6z"/><path d="m345.07 287.916-18.41 14.654-4.092-4.221c-3.851-3.973-10.194-4.07-14.168-.221-3.973 3.852-4.072 10.196-.22 14.168l10.416 10.746c1.955 2.017 4.569 3.046 7.197 3.046 2.196 0 4.401-.718 6.237-2.18l25.52-20.312c4.33-3.446 5.046-9.75 1.6-14.079-3.448-4.331-9.751-5.047-14.08-1.601z"/><circle cx="231.105" cy="209.899" r="10.02"/><circle cx="287.715" cy="209.899" r="10.02"/></g></g></svg>